M48
; DRILL file {KiCad 9.0.1} date 2026-04-16T13:06:29+0200
; FORMAT={-:-/ absolute / metric / decimal}
; #@! TF.CreationDate,2026-04-16T13:06:29+02:00
; #@! TF.GenerationSoftware,Kicad,Pcbnew,9.0.1
; #@! TF.FileFunction,Plated,1,2,PTH
FMAT,2
METRIC
; #@! TA.AperFunction,Plated,PTH,ViaDrill
T1C0.300
; #@! TA.AperFunction,Plated,PTH,ViaDrill
T2C0.400
; #@! TA.AperFunction,Plated,PTH,ComponentDrill
T3C0.500
; #@! TA.AperFunction,Plated,PTH,ComponentDrill
T4C0.750
; #@! TA.AperFunction,Plated,PTH,ComponentDrill
T5C1.000
; #@! TA.AperFunction,Plated,PTH,ComponentDrill
T6C1.350
; #@! TA.AperFunction,Plated,PTH,ComponentDrill
T7C3.200
%
G90
G05
T1
X97.6Y-84.3
X99.4Y-87.8
X100.7Y-77.9
X101.0Y-118.2
X106.7Y-101.2
X108.1Y-77.9
X110.1Y-118.5
X110.4Y-85.6
X113.0Y-81.3
X113.2Y-100.7
X114.8Y-104.2
X117.8Y-78.0
X120.3Y-97.7
X120.4Y-104.9
X122.1Y-116.7
X123.7Y-97.7
X125.3Y-90.4
X126.5Y-104.9
X127.4Y-116.8
X127.874Y-104.074
X128.6Y-113.6
X131.0Y-86.6
X131.961Y-109.839
X134.3Y-119.2
X136.168Y-104.1
X137.8Y-93.8
X137.8Y-104.7
X139.8Y-112.4
X141.9Y-115.8
X143.5Y-98.2
X146.2Y-78.2
X146.4Y-112.6
X150.5Y-107.4
X151.3Y-97.0
X155.4Y-78.4
X158.8Y-80.8
X159.0Y-120.4
X159.2Y-94.1
X160.0Y-105.5
X164.4Y-78.3
T2
X136.818Y-103.408
X136.852Y-100.942
X147.918Y-115.508
T3
X102.57Y-111.6
X105.08Y-111.6
X107.59Y-111.6
X110.1Y-111.6
X112.61Y-111.6
X115.12Y-111.6
X117.63Y-111.6
X120.14Y-111.6
X122.65Y-111.6
X125.16Y-111.6
T4
X97.418Y-100.008
X97.418Y-102.008
X165.818Y-93.008
X165.818Y-95.008
X165.818Y-97.008
X165.818Y-102.508
X165.818Y-104.508
X165.818Y-106.508
T5
X126.568Y-79.008
X129.108Y-79.008
X131.648Y-79.008
X134.188Y-79.008
X136.728Y-79.008
X139.268Y-79.008
T6
X113.53Y-127.3
X136.39Y-127.3
X141.47Y-127.3
T7
X96.418Y-79.508
X96.918Y-129.508
X168.418Y-130.008
X168.5Y-79.9
M30
