%TF.GenerationSoftware,KiCad,Pcbnew,9.0.1*%
%TF.CreationDate,2026-04-16T13:06:31+02:00*%
%TF.ProjectId,Odometre_Schematic,4f646f6d-6574-4726-955f-536368656d61,rev?*%
%TF.SameCoordinates,Original*%
%TF.FileFunction,Copper,L1,Top*%
%TF.FilePolarity,Positive*%
%FSLAX46Y46*%
G04 Gerber Fmt 4.6, Leading zero omitted, Abs format (unit mm)*
G04 Created by KiCad (PCBNEW 9.0.1) date 2026-04-16 13:06:31*
%MOMM*%
%LPD*%
G01*
G04 APERTURE LIST*
G04 Aperture macros list*
%AMRoundRect*
0 Rectangle with rounded corners*
0 $1 Rounding radius*
0 $2 $3 $4 $5 $6 $7 $8 $9 X,Y pos of 4 corners*
0 Add a 4 corners polygon primitive as box body*
4,1,4,$2,$3,$4,$5,$6,$7,$8,$9,$2,$3,0*
0 Add four circle primitives for the rounded corners*
1,1,$1+$1,$2,$3*
1,1,$1+$1,$4,$5*
1,1,$1+$1,$6,$7*
1,1,$1+$1,$8,$9*
0 Add four rect primitives between the rounded corners*
20,1,$1+$1,$2,$3,$4,$5,0*
20,1,$1+$1,$4,$5,$6,$7,0*
20,1,$1+$1,$6,$7,$8,$9,0*
20,1,$1+$1,$8,$9,$2,$3,0*%
G04 Aperture macros list end*
%TA.AperFunction,SMDPad,CuDef*%
%ADD10RoundRect,0.250000X0.475000X-0.337500X0.475000X0.337500X-0.475000X0.337500X-0.475000X-0.337500X0*%
%TD*%
%TA.AperFunction,ComponentPad*%
%ADD11C,2.200000*%
%TD*%
%TA.AperFunction,SMDPad,CuDef*%
%ADD12RoundRect,0.150000X-0.825000X-0.150000X0.825000X-0.150000X0.825000X0.150000X-0.825000X0.150000X0*%
%TD*%
%TA.AperFunction,SMDPad,CuDef*%
%ADD13RoundRect,0.250000X-0.337500X-0.475000X0.337500X-0.475000X0.337500X0.475000X-0.337500X0.475000X0*%
%TD*%
%TA.AperFunction,SMDPad,CuDef*%
%ADD14RoundRect,0.237500X-0.237500X0.250000X-0.237500X-0.250000X0.237500X-0.250000X0.237500X0.250000X0*%
%TD*%
%TA.AperFunction,ComponentPad*%
%ADD15R,1.700000X1.700000*%
%TD*%
%TA.AperFunction,ComponentPad*%
%ADD16C,1.700000*%
%TD*%
%TA.AperFunction,SMDPad,CuDef*%
%ADD17RoundRect,0.237500X0.287500X0.237500X-0.287500X0.237500X-0.287500X-0.237500X0.287500X-0.237500X0*%
%TD*%
%TA.AperFunction,SMDPad,CuDef*%
%ADD18RoundRect,0.237500X-0.237500X0.287500X-0.237500X-0.287500X0.237500X-0.287500X0.237500X0.287500X0*%
%TD*%
%TA.AperFunction,SMDPad,CuDef*%
%ADD19RoundRect,0.250000X0.337500X0.475000X-0.337500X0.475000X-0.337500X-0.475000X0.337500X-0.475000X0*%
%TD*%
%TA.AperFunction,ComponentPad*%
%ADD20RoundRect,0.250000X0.625000X-0.350000X0.625000X0.350000X-0.625000X0.350000X-0.625000X-0.350000X0*%
%TD*%
%TA.AperFunction,ComponentPad*%
%ADD21O,1.750000X1.200000*%
%TD*%
%TA.AperFunction,SMDPad,CuDef*%
%ADD22RoundRect,0.237500X-0.250000X-0.237500X0.250000X-0.237500X0.250000X0.237500X-0.250000X0.237500X0*%
%TD*%
%TA.AperFunction,SMDPad,CuDef*%
%ADD23R,1.475000X0.450000*%
%TD*%
%TA.AperFunction,SMDPad,CuDef*%
%ADD24RoundRect,0.250000X-0.350000X0.850000X-0.350000X-0.850000X0.350000X-0.850000X0.350000X0.850000X0*%
%TD*%
%TA.AperFunction,SMDPad,CuDef*%
%ADD25RoundRect,0.249997X-2.650003X2.950003X-2.650003X-2.950003X2.650003X-2.950003X2.650003X2.950003X0*%
%TD*%
%TA.AperFunction,ComponentPad*%
%ADD26RoundRect,0.250000X-0.625000X0.350000X-0.625000X-0.350000X0.625000X-0.350000X0.625000X0.350000X0*%
%TD*%
%TA.AperFunction,SMDPad,CuDef*%
%ADD27R,1.550000X1.300000*%
%TD*%
%TA.AperFunction,SMDPad,CuDef*%
%ADD28RoundRect,0.237500X0.237500X-0.250000X0.237500X0.250000X-0.237500X0.250000X-0.237500X-0.250000X0*%
%TD*%
%TA.AperFunction,ComponentPad*%
%ADD29C,5.600000*%
%TD*%
%TA.AperFunction,SMDPad,CuDef*%
%ADD30R,1.300000X1.550000*%
%TD*%
%TA.AperFunction,ComponentPad*%
%ADD31C,1.500000*%
%TD*%
%TA.AperFunction,SMDPad,CuDef*%
%ADD32RoundRect,0.250000X-0.475000X0.337500X-0.475000X-0.337500X0.475000X-0.337500X0.475000X0.337500X0*%
%TD*%
%TA.AperFunction,ViaPad*%
%ADD33C,0.600000*%
%TD*%
%TA.AperFunction,ViaPad*%
%ADD34C,0.800000*%
%TD*%
%TA.AperFunction,Conductor*%
%ADD35C,0.200000*%
%TD*%
%TA.AperFunction,Conductor*%
%ADD36C,0.250000*%
%TD*%
%TA.AperFunction,Conductor*%
%ADD37C,0.300000*%
%TD*%
G04 APERTURE END LIST*
D10*
%TO.P,C6,1*%
%TO.N,GND*%
X139418113Y-88545637D03*
%TO.P,C6,2*%
%TO.N,NRST*%
X139418113Y-86470637D03*
%TD*%
D11*
%TO.P,U4,1,M*%
%TO.N,LA55-P_OUT*%
X141470000Y-127300000D03*
%TO.P,U4,2,-*%
%TO.N,GND*%
X136390000Y-127300000D03*
%TO.P,U4,3,+*%
%TO.N,+12V*%
X113530000Y-127300000D03*
%TD*%
D12*
%TO.P,U1,1,TXD*%
%TO.N,FDCAN1_TX*%
X149943113Y-111603137D03*
%TO.P,U1,2,VSS*%
%TO.N,GND*%
X149943113Y-112873137D03*
%TO.P,U1,3,VDD*%
%TO.N,+5V*%
X149943113Y-114143137D03*
%TO.P,U1,4,RXD*%
%TO.N,FDCAN1_RX*%
X149943113Y-115413137D03*
%TO.P,U1,5,Vio*%
%TO.N,+3.3V*%
X154893113Y-115413137D03*
%TO.P,U1,6,CANL*%
%TO.N,CANL*%
X154893113Y-114143137D03*
%TO.P,U1,7,CANH*%
%TO.N,CANH*%
X154893113Y-112873137D03*
%TO.P,U1,8,STBY*%
%TO.N,GND*%
X154893113Y-111603137D03*
%TD*%
D13*
%TO.P,C3,1*%
%TO.N,+3.3V*%
X130880613Y-98008137D03*
%TO.P,C3,2*%
%TO.N,GND*%
X132955613Y-98008137D03*
%TD*%
D14*
%TO.P,R9,1*%
%TO.N,Net-(R9-Pad1)*%
X115100000Y-115087500D03*
%TO.P,R9,2*%
%TO.N,Bar3*%
X115100000Y-116912500D03*
%TD*%
%TO.P,R11,1*%
%TO.N,Net-(R11-Pad1)*%
X125200000Y-114887500D03*
%TO.P,R11,2*%
%TO.N,Bar5*%
X125200000Y-116712500D03*
%TD*%
D15*
%TO.P,J6,1,Pin_1*%
%TO.N,+3.3V*%
X126568113Y-79008137D03*
D16*
%TO.P,J6,2,Pin_2*%
%TO.N,DEBUG_SWCLK*%
X129108113Y-79008137D03*
%TO.P,J6,3,Pin_3*%
%TO.N,GND*%
X131648113Y-79008137D03*
%TO.P,J6,4,Pin_4*%
%TO.N,DEBUG_SWDIO*%
X134188113Y-79008137D03*
%TO.P,J6,5,Pin_5*%
%TO.N,NRST*%
X136728113Y-79008137D03*
%TO.P,J6,6,Pin_6*%
%TO.N,unconnected-(J6-Pin_6-Pad6)*%
X139268113Y-79008137D03*
%TD*%
D17*
%TO.P,D2,1,K*%
%TO.N,Net-(D2-K)*%
X150438113Y-93508137D03*
%TO.P,D2,2,A*%
%TO.N,LED_MOTEUR*%
X148688113Y-93508137D03*
%TD*%
D18*
%TO.P,D3,1,K*%
%TO.N,Net-(D3-K)*%
X122552500Y-91237500D03*
%TO.P,D3,2,A*%
%TO.N,+3.3V*%
X122552500Y-92987500D03*
%TD*%
D19*
%TO.P,C5,1*%
%TO.N,GND*%
X132955613Y-108008137D03*
%TO.P,C5,2*%
%TO.N,+3.3V*%
X130880613Y-108008137D03*
%TD*%
D18*
%TO.P,D4,1,K*%
%TO.N,Net-(D4-K)*%
X109900000Y-92600000D03*
%TO.P,D4,2,A*%
%TO.N,+5V*%
X109900000Y-94350000D03*
%TD*%
D20*
%TO.P,J2,1,Pin_1*%
%TO.N,CANH*%
X165818113Y-97008137D03*
D21*
%TO.P,J2,2,Pin_2*%
%TO.N,CANL*%
X165818113Y-95008137D03*
%TO.P,J2,3,Pin_3*%
%TO.N,GND*%
X165818113Y-93008137D03*
%TD*%
D14*
%TO.P,R7,1*%
%TO.N,Net-(R7-Pad1)*%
X105100000Y-115087500D03*
%TO.P,R7,2*%
%TO.N,Bar1*%
X105100000Y-116912500D03*
%TD*%
D10*
%TO.P,C8,1*%
%TO.N,+12V*%
X100381887Y-84691863D03*
%TO.P,C8,2*%
%TO.N,GND*%
X100381887Y-82616863D03*
%TD*%
D14*
%TO.P,R8,1*%
%TO.N,Net-(R8-Pad1)*%
X110100000Y-115087500D03*
%TO.P,R8,2*%
%TO.N,Bar2*%
X110100000Y-116912500D03*
%TD*%
D10*
%TO.P,C2,1*%
%TO.N,+3.3V*%
X118552500Y-83562500D03*
%TO.P,C2,2*%
%TO.N,GND*%
X118552500Y-81487500D03*
%TD*%
D22*
%TO.P,R1,1*%
%TO.N,Net-(D1-K)*%
X151918113Y-88508137D03*
%TO.P,R1,2*%
%TO.N,GND*%
X153743113Y-88508137D03*
%TD*%
D19*
%TO.P,C7,1*%
%TO.N,+3.3V*%
X153455613Y-117508137D03*
%TO.P,C7,2*%
%TO.N,GND*%
X151380613Y-117508137D03*
%TD*%
D23*
%TO.P,IC1,1,PB7/PB8*%
%TO.N,unconnected-(IC1-PB7{slash}PB8-Pad1)*%
X129123887Y-100166863D03*
%TO.P,IC1,2,PC14-OSCX_IN*%
%TO.N,unconnected-(IC1-PC14-OSCX_IN-Pad2)*%
X129123887Y-100816863D03*
%TO.P,IC1,3,PC15-OSCX_OUT*%
%TO.N,unconnected-(IC1-PC15-OSCX_OUT-Pad3)*%
X129123887Y-101466863D03*
%TO.P,IC1,4,VDD/VDDA*%
%TO.N,+3.3V*%
X129123887Y-102116863D03*
%TO.P,IC1,5,VSS/VSSA*%
%TO.N,GND*%
X129123887Y-102766863D03*
%TO.P,IC1,6,PF2-NRST*%
%TO.N,NRST*%
X129123887Y-103416863D03*
%TO.P,IC1,7,PA0*%
%TO.N,Bar1*%
X129123887Y-104066863D03*
%TO.P,IC1,8,PA1*%
%TO.N,Bar2*%
X129123887Y-104716863D03*
%TO.P,IC1,9,PA2*%
%TO.N,Bar3*%
X129123887Y-105366863D03*
%TO.P,IC1,10,PA3*%
%TO.N,LA55-P_OUT*%
X129123887Y-106016863D03*
%TO.P,IC1,11,PA4*%
%TO.N,D_Botton*%
X134999887Y-106016863D03*
%TO.P,IC1,12,PA5*%
%TO.N,LED_MOTEUR*%
X134999887Y-105366863D03*
%TO.P,IC1,13,PA6*%
%TO.N,Bar5*%
X134999887Y-104716863D03*
%TO.P,IC1,14,PA7*%
%TO.N,Bar4*%
X134999887Y-104066863D03*
%TO.P,IC1,15,PB0/PB1/PB2/PA8*%
%TO.N,FDCAN1_RX*%
X134999887Y-103416863D03*
%TO.P,IC1,16,PA11_[PA9]*%
%TO.N,Green_LED*%
X134999887Y-102766863D03*
%TO.P,IC1,17,PA12_[PA10]*%
%TO.N,unconnected-(IC1-PA12_[PA10]-Pad17)*%
X134999887Y-102116863D03*
%TO.P,IC1,18,PA13*%
%TO.N,DEBUG_SWDIO*%
X134999887Y-101466863D03*
%TO.P,IC1,19,PA14-BOOT0/PA15*%
%TO.N,DEBUG_SWCLK*%
X134999887Y-100816863D03*
%TO.P,IC1,20,PB3/PB4/PB5/PB6*%
%TO.N,FDCAN1_TX*%
X134999887Y-100166863D03*
%TD*%
D22*
%TO.P,R2,1*%
%TO.N,Net-(D2-K)*%
X152005613Y-93508137D03*
%TO.P,R2,2*%
%TO.N,GND*%
X153830613Y-93508137D03*
%TD*%
D24*
%TO.P,U3,1,GND*%
%TO.N,GND*%
X107680000Y-87800000D03*
%TO.P,U3,2,VO*%
%TO.N,+5V*%
X105400000Y-87800000D03*
D25*
X105400000Y-94100000D03*
D24*
%TO.P,U3,3,VI*%
%TO.N,+12V*%
X103120000Y-87800000D03*
%TD*%
D26*
%TO.P,J3,1,Pin_1*%
%TO.N,GND*%
X97418113Y-100008137D03*
D21*
%TO.P,J3,2,Pin_2*%
%TO.N,+12V*%
X97418113Y-102008137D03*
%TD*%
D27*
%TO.P,S2,1*%
%TO.N,D_Botton*%
X148443113Y-100258137D03*
%TO.P,S2,2*%
%TO.N,unconnected-(S2-Pad2)*%
X148443113Y-104758137D03*
%TO.P,S2,3*%
%TO.N,unconnected-(S2-Pad3)*%
X156393113Y-100258137D03*
%TO.P,S2,4*%
%TO.N,GND*%
X156393113Y-104758137D03*
%TD*%
D28*
%TO.P,R6,1*%
%TO.N,LA55-P_OUT*%
X153000000Y-127212500D03*
%TO.P,R6,2*%
%TO.N,GND*%
X153000000Y-125387500D03*
%TD*%
D20*
%TO.P,J1,1,Pin_1*%
%TO.N,CANH*%
X165818113Y-106508137D03*
D21*
%TO.P,J1,2,Pin_2*%
%TO.N,CANL*%
X165818113Y-104508137D03*
%TO.P,J1,3,Pin_3*%
%TO.N,GND*%
X165818113Y-102508137D03*
%TD*%
D29*
%TO.P,H1,1,1*%
%TO.N,GND*%
X96418110Y-79508140D03*
%TD*%
D10*
%TO.P,C9,1*%
%TO.N,+5V*%
X102846887Y-84691863D03*
%TO.P,C9,2*%
%TO.N,GND*%
X102846887Y-82616863D03*
%TD*%
D29*
%TO.P,H3,1,1*%
%TO.N,GND*%
X96918113Y-129508137D03*
%TD*%
D17*
%TO.P,D1,1,K*%
%TO.N,Net-(D1-K)*%
X150205613Y-88508137D03*
%TO.P,D1,2,A*%
%TO.N,Green_LED*%
X148455613Y-88508137D03*
%TD*%
D24*
%TO.P,U2,1,GND*%
%TO.N,GND*%
X120307500Y-86400000D03*
%TO.P,U2,2,VO*%
%TO.N,+3.3V*%
X118027500Y-86400000D03*
D25*
X118027500Y-92700000D03*
D24*
%TO.P,U2,3,VI*%
%TO.N,+12V*%
X115747500Y-86400000D03*
%TD*%
D28*
%TO.P,R5,1*%
%TO.N,Net-(D4-K)*%
X109900000Y-90887500D03*
%TO.P,R5,2*%
%TO.N,GND*%
X109900000Y-89062500D03*
%TD*%
%TO.P,R4,1*%
%TO.N,Net-(D3-K)*%
X122552500Y-89525000D03*
%TO.P,R4,2*%
%TO.N,GND*%
X122552500Y-87700000D03*
%TD*%
D30*
%TO.P,S1,1*%
%TO.N,NRST*%
X137168113Y-83533137D03*
%TO.P,S1,2*%
%TO.N,unconnected-(S1-Pad2)*%
X132668113Y-83533137D03*
%TO.P,S1,3*%
%TO.N,unconnected-(S1-Pad3)*%
X137168113Y-91483137D03*
%TO.P,S1,4*%
%TO.N,GND*%
X132668113Y-91483137D03*
%TD*%
D14*
%TO.P,R3,1*%
%TO.N,CANH*%
X156918113Y-112595637D03*
%TO.P,R3,2*%
%TO.N,CANL*%
X156918113Y-114420637D03*
%TD*%
D29*
%TO.P,H4,1,1*%
%TO.N,GND*%
X168418113Y-130008137D03*
%TD*%
D31*
%TO.P,U5,1,1*%
%TO.N,+3.3V*%
X102570000Y-111600000D03*
%TO.P,U5,2,2*%
%TO.N,Net-(R7-Pad1)*%
X105080000Y-111600000D03*
%TO.P,U5,3,3*%
%TO.N,+3.3V*%
X107590000Y-111600000D03*
%TO.P,U5,4,4*%
%TO.N,Net-(R8-Pad1)*%
X110100000Y-111600000D03*
%TO.P,U5,5,5*%
%TO.N,+3.3V*%
X112610000Y-111600000D03*
%TO.P,U5,6,6*%
%TO.N,Net-(R9-Pad1)*%
X115120000Y-111600000D03*
%TO.P,U5,7,7*%
%TO.N,+3.3V*%
X117630000Y-111600000D03*
%TO.P,U5,8,8*%
%TO.N,Net-(R10-Pad1)*%
X120140000Y-111600000D03*
%TO.P,U5,9,9*%
%TO.N,+3.3V*%
X122650000Y-111600000D03*
%TO.P,U5,10,10*%
%TO.N,Net-(R11-Pad1)*%
X125160000Y-111600000D03*
%TD*%
D29*
%TO.P,H2,1,1*%
%TO.N,GND*%
X168500000Y-79900000D03*
%TD*%
D10*
%TO.P,C1,1*%
%TO.N,+12V*%
X116052500Y-83600000D03*
%TO.P,C1,2*%
%TO.N,GND*%
X116052500Y-81525000D03*
%TD*%
D14*
%TO.P,R10,1*%
%TO.N,Net-(R10-Pad1)*%
X120200000Y-114887500D03*
%TO.P,R10,2*%
%TO.N,Bar4*%
X120200000Y-116712500D03*
%TD*%
D32*
%TO.P,C4,1*%
%TO.N,+3.3V*%
X125418113Y-101970637D03*
%TO.P,C4,2*%
%TO.N,GND*%
X125418113Y-104045637D03*
%TD*%
D33*
%TO.N,+3.3V*%
X131961173Y-109838827D03*
X141900000Y-115800000D03*
%TO.N,+5V*%
X146400000Y-112600000D03*
X113200000Y-100700000D03*
D34*
%TO.N,DEBUG_SWDIO*%
X136852427Y-100942451D03*
%TO.N,FDCAN1_RX*%
X147918113Y-115508137D03*
X136818113Y-103408137D03*
D33*
%TO.N,GND*%
X164400000Y-78300000D03*
X99400000Y-87800000D03*
X158800000Y-80800000D03*
X159000000Y-120400000D03*
X131000000Y-86600000D03*
X146200000Y-78200000D03*
X113000000Y-81300000D03*
X100700000Y-77900000D03*
X101000000Y-118200000D03*
X117800000Y-78000000D03*
X139800000Y-112400000D03*
X97600000Y-84300000D03*
X128600000Y-113600000D03*
X151300000Y-97000000D03*
X143500000Y-98200000D03*
X137800000Y-93800000D03*
X110400000Y-85600000D03*
X160000000Y-105500000D03*
X106700000Y-101200000D03*
X120400000Y-104900000D03*
X155400000Y-78400000D03*
X134300000Y-119200000D03*
X150500000Y-107400000D03*
X125300000Y-90400000D03*
X120300000Y-97700000D03*
X123700000Y-97700000D03*
X159200000Y-94100000D03*
X108100000Y-77900000D03*
%TO.N,Bar2*%
X110100000Y-118500000D03*
X126500000Y-104900000D03*
%TO.N,Bar4*%
X136168113Y-104100000D03*
X122100000Y-116700000D03*
%TO.N,Bar1*%
X127874265Y-104074265D03*
X114800000Y-104200000D03*
%TO.N,Bar5*%
X127400000Y-116800000D03*
X137800000Y-104700000D03*
%TD*%
D35*
%TO.N,+12V*%
X99600000Y-80800000D02*
X96242113Y-84157887D01*
X116052500Y-83600000D02*
X116052500Y-86095000D01*
X98594113Y-100832137D02*
X98594113Y-92325887D01*
X98560000Y-121660000D02*
X97418113Y-120518113D01*
X116052500Y-86095000D02*
X115747500Y-86400000D01*
X113530000Y-127300000D02*
X107890000Y-121660000D01*
X100381887Y-84691863D02*
X100381887Y-85061887D01*
X100381887Y-85061887D02*
X103120000Y-87800000D01*
X110147500Y-80800000D02*
X99600000Y-80800000D01*
X96242113Y-84157887D02*
X96242113Y-100832137D01*
X96242113Y-100832137D02*
X97418113Y-102008137D01*
X98594113Y-92325887D02*
X103120000Y-87800000D01*
X97418113Y-102008137D02*
X98594113Y-100832137D01*
X97418113Y-120518113D02*
X97418113Y-102008137D01*
X115747500Y-86400000D02*
X110147500Y-80800000D01*
X107890000Y-121660000D02*
X98560000Y-121660000D01*
%TO.N,LA55-P_OUT*%
X152912500Y-127300000D02*
X153000000Y-127212500D01*
X153000000Y-127212500D02*
X147919216Y-127212500D01*
X129123887Y-108417171D02*
X129123887Y-106016863D01*
X141470000Y-127300000D02*
X152912500Y-127300000D01*
X147919216Y-127212500D02*
X129123887Y-108417171D01*
%TO.N,+3.3V*%
X122013750Y-83562500D02*
X126568113Y-79008137D01*
X107870000Y-106300000D02*
X102570000Y-111600000D01*
X121762500Y-83562500D02*
X127406113Y-89206113D01*
X144634137Y-118534137D02*
X152429613Y-118534137D01*
X130880613Y-108758267D02*
X131961173Y-109838827D01*
X127406113Y-89206113D02*
X127406113Y-94533637D01*
X107590000Y-110510000D02*
X107590000Y-111600000D01*
X130880613Y-100359089D02*
X123509024Y-92987500D01*
X111800000Y-106300000D02*
X107870000Y-106300000D01*
X141900000Y-115800000D02*
X144634137Y-118534137D01*
X118552500Y-83562500D02*
X118552500Y-85875000D01*
X130880613Y-108008137D02*
X130880613Y-108758267D01*
X127406113Y-94533637D02*
X130880613Y-98008137D01*
X117910000Y-106300000D02*
X111800000Y-106300000D01*
X118552500Y-83562500D02*
X122013750Y-83562500D01*
X118552500Y-83562500D02*
X121762500Y-83562500D01*
D36*
X125418113Y-101970637D02*
X125418113Y-96521637D01*
D35*
X118027500Y-106977500D02*
X117630000Y-107375000D01*
X130061387Y-102116863D02*
X129123887Y-102116863D01*
X118027500Y-106182500D02*
X112610000Y-111600000D01*
X118027500Y-106182500D02*
X117910000Y-106300000D01*
X130880613Y-108008137D02*
X130880613Y-100359089D01*
X117630000Y-107375000D02*
X117630000Y-111600000D01*
D36*
X125418113Y-101970637D02*
X125564339Y-102116863D01*
D35*
X118027500Y-86400000D02*
X118027500Y-106182500D01*
X111800000Y-106300000D02*
X107590000Y-110510000D01*
X118027500Y-88462500D02*
X118027500Y-86400000D01*
X118027500Y-106182500D02*
X118027500Y-106977500D01*
X130880613Y-108008137D02*
X130880613Y-102936089D01*
X122552500Y-92987500D02*
X118027500Y-88462500D01*
X130880613Y-102936089D02*
X130061387Y-102116863D01*
X153455613Y-116850637D02*
X154893113Y-115413137D01*
X152429613Y-118534137D02*
X153455613Y-117508137D01*
X123509024Y-92987500D02*
X122552500Y-92987500D01*
D36*
X125564339Y-102116863D02*
X129123887Y-102116863D01*
D35*
X153455613Y-117508137D02*
X153455613Y-116850637D01*
D36*
X125418113Y-96521637D02*
X127406113Y-94533637D01*
D35*
X118027500Y-106977500D02*
X122650000Y-111600000D01*
X118552500Y-85875000D02*
X118027500Y-86400000D01*
%TO.N,NRST*%
X132800000Y-111526184D02*
X132800000Y-109592604D01*
D37*
X131918113Y-108710717D02*
X131918113Y-95939077D01*
X135477113Y-77757137D02*
X136728113Y-79008137D01*
D36*
X136728113Y-79008137D02*
X136728113Y-83093137D01*
D35*
X129123887Y-103416863D02*
X130116863Y-103416863D01*
D36*
X139418113Y-85783137D02*
X139418113Y-86470637D01*
D35*
X130307953Y-103607953D02*
X130307953Y-106982137D01*
X132800000Y-109592604D02*
X131918113Y-108710717D01*
D37*
X127857113Y-78489955D02*
X128589931Y-77757137D01*
D36*
X137168113Y-83533137D02*
X139418113Y-85783137D01*
D37*
X128589931Y-77757137D02*
X135477113Y-77757137D01*
D35*
X129992113Y-107297977D02*
X129992113Y-108718297D01*
D36*
X136728113Y-83093137D02*
X137168113Y-83533137D01*
D35*
X130116863Y-103416863D02*
X130307953Y-103607953D01*
D37*
X131918113Y-95939077D02*
X127857113Y-91878077D01*
D35*
X130307953Y-106982137D02*
X129992113Y-107297977D01*
X129992113Y-108718297D02*
X132800000Y-111526184D01*
D37*
X127857113Y-91878077D02*
X127857113Y-78489955D01*
D35*
%TO.N,+5V*%
X105400000Y-89850000D02*
X105400000Y-87800000D01*
X109900000Y-97400000D02*
X113200000Y-100700000D01*
X102846887Y-85246887D02*
X105400000Y-87800000D01*
X102846887Y-84691863D02*
X102846887Y-85246887D01*
X147943137Y-114143137D02*
X149943113Y-114143137D01*
X109900000Y-94350000D02*
X105400000Y-89850000D01*
X146400000Y-112600000D02*
X147943137Y-114143137D01*
X109900000Y-94350000D02*
X109900000Y-97400000D01*
D37*
%TO.N,Green_LED*%
X136159387Y-102766863D02*
X134999887Y-102766863D01*
X148455613Y-90470637D02*
X136159387Y-102766863D01*
X148455613Y-88508137D02*
X148455613Y-90470637D01*
D36*
%TO.N,Net-(D1-K)*%
X150205613Y-88508137D02*
X151918113Y-88508137D01*
%TO.N,Net-(D2-K)*%
X150438113Y-93508137D02*
X152005613Y-93508137D01*
D35*
%TO.N,LED_MOTEUR*%
X136829387Y-105366863D02*
X136838113Y-105358137D01*
D37*
X136838113Y-105358137D02*
X139041863Y-105358137D01*
D35*
X134999887Y-105366863D02*
X136829387Y-105366863D01*
D37*
X148688113Y-95711887D02*
X148688113Y-93508137D01*
X139041863Y-105358137D02*
X148688113Y-95711887D01*
D35*
%TO.N,Net-(D3-K)*%
X122552500Y-89525000D02*
X122552500Y-91237500D01*
%TO.N,Net-(D4-K)*%
X109900000Y-90887500D02*
X109900000Y-92600000D01*
D37*
%TO.N,CANH*%
X154893113Y-112873137D02*
X156640613Y-112873137D01*
X157330613Y-112595637D02*
X163418113Y-106508137D01*
X156918113Y-112595637D02*
X157330613Y-112595637D01*
X156640613Y-112873137D02*
X156918113Y-112595637D01*
X163418113Y-106508137D02*
X165818113Y-106508137D01*
%TO.N,CANL*%
X167144113Y-107155429D02*
X167144113Y-105834137D01*
X156640613Y-114143137D02*
X156918113Y-114420637D01*
X159878905Y-114420637D02*
X167144113Y-107155429D01*
X156918113Y-114420637D02*
X159878905Y-114420637D01*
X154893113Y-114143137D02*
X156640613Y-114143137D01*
X167144113Y-105834137D02*
X165818113Y-104508137D01*
%TO.N,DEBUG_SWCLK*%
X136014387Y-100816863D02*
X134999887Y-100816863D01*
X136106613Y-100724637D02*
X136014387Y-100816863D01*
X129108113Y-79008137D02*
X129108113Y-92349845D01*
X129108113Y-92349845D02*
X136106613Y-99348345D01*
X136106613Y-99348345D02*
X136106613Y-100724637D01*
%TO.N,DEBUG_SWDIO*%
X136852427Y-100942451D02*
X136328015Y-101466863D01*
X136328015Y-101466863D02*
X134999887Y-101466863D01*
D35*
%TO.N,FDCAN1_TX*%
X133961387Y-106661387D02*
X136000000Y-108700000D01*
X134062387Y-100166863D02*
X133961387Y-100267863D01*
X147000000Y-108700000D02*
X148700000Y-110400000D01*
X134999887Y-100166863D02*
X134062387Y-100166863D01*
X148739976Y-110400000D02*
X149943113Y-111603137D01*
X133961387Y-100267863D02*
X133961387Y-106661387D01*
X148700000Y-110400000D02*
X148739976Y-110400000D01*
X136000000Y-108700000D02*
X147000000Y-108700000D01*
%TO.N,FDCAN1_RX*%
X136809387Y-103416863D02*
X136818113Y-103408137D01*
D37*
X147918113Y-115508137D02*
X149848113Y-115508137D01*
X136918113Y-103508137D02*
X136818113Y-103408137D01*
X149848113Y-115508137D02*
X149943113Y-115413137D01*
D35*
X134999887Y-103416863D02*
X136809387Y-103416863D01*
D37*
%TO.N,GND*%
X132668113Y-91483137D02*
X135605613Y-88545637D01*
X149943113Y-112873137D02*
X153064013Y-112873137D01*
X159418113Y-88508137D02*
X167918113Y-80008137D01*
X96918113Y-129508137D02*
X134181863Y-129508137D01*
X154334013Y-111603137D02*
X154893113Y-111603137D01*
X168418113Y-105108137D02*
X165818113Y-102508137D01*
X135605613Y-88545637D02*
X139418113Y-88545637D01*
X153743113Y-93420637D02*
X153830613Y-93508137D01*
X158780613Y-102370637D02*
X156393113Y-104758137D01*
X158918113Y-102508137D02*
X165818113Y-102508137D01*
X97418113Y-100008137D02*
X97418113Y-85580637D01*
X164418113Y-93008137D02*
X165818113Y-93008137D01*
X134181863Y-129508137D02*
X136390000Y-127300000D01*
X158918113Y-98595637D02*
X158918113Y-102233137D01*
X154893113Y-110533137D02*
X156393113Y-109033137D01*
X158918113Y-102233137D02*
X158780613Y-102370637D01*
X151380613Y-117508137D02*
X151380613Y-114556537D01*
X96418110Y-79508140D02*
X114035640Y-79508140D01*
X140381613Y-87582137D02*
X152817113Y-87582137D01*
X114035640Y-79508140D02*
X116052500Y-81525000D01*
X97418113Y-85580637D02*
X100381887Y-82616863D01*
X152817113Y-87582137D02*
X153743113Y-88508137D01*
X158780613Y-102370637D02*
X158918113Y-102508137D01*
X153830613Y-93508137D02*
X158874363Y-98551887D01*
X139418113Y-88545637D02*
X140381613Y-87582137D01*
D35*
X132955613Y-98008137D02*
X132955613Y-108008137D01*
D37*
X153743113Y-88508137D02*
X153743113Y-93420637D01*
X168418113Y-130008137D02*
X168418113Y-105108137D01*
X153743113Y-88508137D02*
X159418113Y-88508137D01*
X154893113Y-111603137D02*
X154893113Y-110533137D01*
D35*
X129123887Y-102766863D02*
X128333137Y-102766863D01*
D37*
X153064013Y-112873137D02*
X154334013Y-111603137D01*
D35*
X128333137Y-102766863D02*
X127054363Y-104045637D01*
D37*
X151380613Y-114556537D02*
X153064013Y-112873137D01*
X156393113Y-109033137D02*
X156393113Y-104758137D01*
D35*
X127054363Y-104045637D02*
X125418113Y-104045637D01*
D37*
X158874363Y-98551887D02*
X164418113Y-93008137D01*
X158874363Y-98551887D02*
X158918113Y-98595637D01*
D35*
%TO.N,D_Botton*%
X142684387Y-106016863D02*
X142693113Y-106008137D01*
D37*
X142693113Y-106008137D02*
X148443113Y-100258137D01*
D35*
X134999887Y-106016863D02*
X142684387Y-106016863D01*
%TO.N,Bar2*%
X126683137Y-104716863D02*
X129123887Y-104716863D01*
X126500000Y-104900000D02*
X126683137Y-104716863D01*
X110100000Y-116912500D02*
X110100000Y-118500000D01*
%TO.N,Bar3*%
X130300000Y-111800000D02*
X127400000Y-108900000D01*
X127933137Y-105366863D02*
X129123887Y-105366863D01*
X127400000Y-108900000D02*
X127400000Y-105900000D01*
X115100000Y-116912500D02*
X116587500Y-118400000D01*
X130300000Y-118400000D02*
X130300000Y-111800000D01*
X127400000Y-105900000D02*
X127933137Y-105366863D01*
X116587500Y-118400000D02*
X130300000Y-118400000D01*
%TO.N,Bar4*%
X122087500Y-116712500D02*
X122100000Y-116700000D01*
X120200000Y-116712500D02*
X122087500Y-116712500D01*
X136168113Y-104100000D02*
X135033024Y-104100000D01*
X135033024Y-104100000D02*
X134999887Y-104066863D01*
%TO.N,Bar1*%
X105100000Y-116912500D02*
X100400000Y-112212500D01*
X100400000Y-104300000D02*
X114700000Y-104300000D01*
X114700000Y-104300000D02*
X114800000Y-104200000D01*
X129116485Y-104074265D02*
X129123887Y-104066863D01*
X127874265Y-104074265D02*
X129116485Y-104074265D01*
X100400000Y-112212500D02*
X100400000Y-104300000D01*
%TO.N,Bar5*%
X137383137Y-104716863D02*
X134999887Y-104716863D01*
X127312500Y-116712500D02*
X127400000Y-116800000D01*
X137800000Y-104700000D02*
X137400000Y-104700000D01*
X137400000Y-104700000D02*
X137383137Y-104716863D01*
X125200000Y-116712500D02*
X127312500Y-116712500D01*
%TO.N,Net-(R7-Pad1)*%
X105080000Y-111600000D02*
X105080000Y-115067500D01*
X105080000Y-115067500D02*
X105100000Y-115087500D01*
%TO.N,Net-(R8-Pad1)*%
X110100000Y-111600000D02*
X110100000Y-115087500D01*
%TO.N,Net-(R9-Pad1)*%
X115120000Y-115067500D02*
X115100000Y-115087500D01*
X115120000Y-111600000D02*
X115120000Y-115067500D01*
%TO.N,Net-(R10-Pad1)*%
X120140000Y-114827500D02*
X120200000Y-114887500D01*
X120140000Y-111600000D02*
X120140000Y-114827500D01*
%TO.N,Net-(R11-Pad1)*%
X125160000Y-111600000D02*
X125160000Y-114847500D01*
X125160000Y-114847500D02*
X125200000Y-114887500D01*
%TD*%
%TA.AperFunction,Conductor*%
%TO.N,GND*%
G36*
X121570732Y-93557723D02*
G01*
X121571916Y-93557576D01*
X121602404Y-93572187D01*
X121633203Y-93586253D01*
X121634200Y-93587426D01*
X121634924Y-93587773D01*
X121657536Y-93614865D01*
X121732160Y-93735850D01*
X121854150Y-93857840D01*
X122000984Y-93948408D01*
X122164747Y-94002674D01*
X122265823Y-94013000D01*
X122839176Y-94012999D01*
X122839184Y-94012998D01*
X122839187Y-94012998D01*
X122894530Y-94007344D01*
X122940253Y-94002674D01*
X123104016Y-93948408D01*
X123250850Y-93857840D01*
X123302809Y-93805880D01*
X123364130Y-93772396D01*
X123433822Y-93777380D01*
X123478170Y-93805881D01*
X125276043Y-95603754D01*
X125309528Y-95665077D01*
X125304544Y-95734769D01*
X125276043Y-95779116D01*
X124932256Y-96122902D01*
X124932251Y-96122908D01*
X124928422Y-96128638D01*
X124928412Y-96128655D01*
X124925752Y-96132637D01*
X124863801Y-96225351D01*
X124837706Y-96288352D01*
X124834879Y-96295176D01*
X124834876Y-96295182D01*
X124816651Y-96339182D01*
X124816648Y-96339192D01*
X124792613Y-96460026D01*
X124792613Y-100802836D01*
X124772928Y-100869875D01*
X124720124Y-100915630D01*
X124707620Y-100920540D01*
X124675075Y-100931325D01*
X124623781Y-100948322D01*
X124623776Y-100948324D01*
X124474455Y-101040426D01*
X124350402Y-101164479D01*
X124258300Y-101313800D01*
X124258298Y-101313805D01*
X124230462Y-101397807D01*
X124203114Y-101480340D01*
X124203114Y-101480341D01*
X124203113Y-101480341D01*
X124192613Y-101583120D01*
X124192613Y-102358138D01*
X124192614Y-102358156D01*
X124203113Y-102460933D01*
X124203114Y-102460936D01*
X124258298Y-102627468D01*
X124258300Y-102627473D01*
X124293182Y-102684025D01*
X124350401Y-102776793D01*
X124474457Y-102900849D01*
X124477741Y-102902874D01*
X124477766Y-102902890D01*
X124479558Y-102904883D01*
X124480124Y-102905330D01*
X124480047Y-102905426D01*
X124524492Y-102954836D01*
X124535716Y-103023798D01*
X124507874Y-103087881D01*
X124477778Y-103113963D01*
X124474773Y-103115816D01*
X124474768Y-103115820D01*
X124350797Y-103239791D01*
X124258756Y-103389012D01*
X124258754Y-103389017D01*
X124203607Y-103555439D01*
X124203606Y-103555446D01*
X124193113Y-103658150D01*
X124193113Y-103795637D01*
X126643112Y-103795637D01*
X126643112Y-103658165D01*
X126643111Y-103658150D01*
X126632618Y-103555439D01*
X126577471Y-103389017D01*
X126577469Y-103389012D01*
X126485428Y-103239791D01*
X126361457Y-103115820D01*
X126361454Y-103115818D01*
X126358452Y-103113966D01*
X126356826Y-103112158D01*
X126355790Y-103111339D01*
X126355930Y-103111161D01*
X126311730Y-103062017D01*
X126300510Y-102993054D01*
X126328356Y-102928973D01*
X126337702Y-102918956D01*
X126347221Y-102909821D01*
X126361769Y-102900849D01*
X126484852Y-102777765D01*
X126485766Y-102776889D01*
X126515677Y-102761349D01*
X126545259Y-102745197D01*
X126547164Y-102744992D01*
X126547769Y-102744678D01*
X126549015Y-102744793D01*
X126571617Y-102742363D01*
X127849955Y-102742363D01*
X127916994Y-102762048D01*
X127962749Y-102814852D01*
X127972693Y-102884010D01*
X127949218Y-102940678D01*
X127948095Y-102942178D01*
X127900284Y-102977965D01*
X127886387Y-102991863D01*
X127886387Y-103039695D01*
X127890318Y-103076262D01*
X127890636Y-103099369D01*
X127890497Y-103101111D01*
X127885887Y-103143990D01*
X127885887Y-103158942D01*
X127885495Y-103163860D01*
X127874709Y-103192072D01*
X127866202Y-103221045D01*
X127862360Y-103224373D01*
X127860545Y-103229123D01*
X127836217Y-103247026D01*
X127813398Y-103266800D01*
X127806184Y-103269129D01*
X127804272Y-103270537D01*
X127801230Y-103270729D01*
X127786079Y-103275623D01*
X127640773Y-103304526D01*
X127640763Y-103304529D01*
X127495092Y-103364867D01*
X127495079Y-103364874D01*
X127363976Y-103452475D01*
X127363972Y-103452478D01*
X127252478Y-103563972D01*
X127252475Y-103563976D01*
X127164874Y-103695079D01*
X127164867Y-103695092D01*
X127104529Y-103840763D01*
X127104526Y-103840775D01*
X127073765Y-103995418D01*
X127073168Y-104001483D01*
X127071249Y-104001294D01*
X127072503Y-104010010D01*
X127061524Y-104034050D01*
X127054080Y-104059402D01*
X127047239Y-104065329D01*
X127043478Y-104073566D01*
X127021243Y-104087855D01*
X127001276Y-104105157D01*
X126990761Y-104107444D01*
X126984700Y-104111340D01*
X126949765Y-104116363D01*
X126769806Y-104116363D01*
X126769790Y-104116362D01*
X126762194Y-104116362D01*
X126675823Y-104116362D01*
X126651632Y-104113979D01*
X126618779Y-104107444D01*
X126578844Y-104099500D01*
X126578842Y-104099500D01*
X126421158Y-104099500D01*
X126421155Y-104099500D01*
X126266510Y-104130261D01*
X126266498Y-104130264D01*
X126120827Y-104190602D01*
X126120814Y-104190609D01*
X125994907Y-104274739D01*
X125928230Y-104295617D01*
X125926016Y-104295637D01*
X125668113Y-104295637D01*
X125668113Y-105133136D01*
X125676781Y-105141804D01*
X125714298Y-105152821D01*
X125760053Y-105205625D01*
X125761820Y-105209684D01*
X125790602Y-105279172D01*
X125790609Y-105279185D01*
X125878210Y-105410288D01*
X125878213Y-105410292D01*
X125989707Y-105521786D01*
X125989711Y-105521789D01*
X126120814Y-105609390D01*
X126120827Y-105609397D01*
X126266498Y-105669735D01*
X126266503Y-105669737D01*
X126372881Y-105690897D01*
X126421153Y-105700499D01*
X126421156Y-105700500D01*
X126421158Y-105700500D01*
X126578843Y-105700500D01*
X126627119Y-105690897D01*
X126651998Y-105685948D01*
X126673210Y-105687846D01*
X126694304Y-105684895D01*
X126707317Y-105690897D01*
X126721589Y-105692175D01*
X126738407Y-105705239D01*
X126757748Y-105714161D01*
X126765449Y-105726245D01*
X126776767Y-105735037D01*
X126783852Y-105755122D01*
X126795299Y-105773083D01*
X126796693Y-105791519D01*
X126800012Y-105800927D01*
X126800189Y-105808036D01*
X126800149Y-105818516D01*
X126799499Y-105820943D01*
X126799499Y-105979057D01*
X126799500Y-105979060D01*
X126799500Y-105989266D01*
X126799500Y-108813330D01*
X126799499Y-108813348D01*
X126799499Y-108979054D01*
X126799498Y-108979054D01*
X126799499Y-108979057D01*
X126840423Y-109131785D01*
X126861304Y-109167951D01*
X126897498Y-109230641D01*
X126919479Y-109268715D01*
X127038349Y-109387585D01*
X127038355Y-109387590D01*
X129663181Y-112012416D01*
X129696666Y-112073739D01*
X129699500Y-112100097D01*
X129699500Y-117675500D01*
X129679815Y-117742539D01*
X129627011Y-117788294D01*
X129575500Y-117799500D01*
X127702190Y-117799500D01*
X127635151Y-117779815D01*
X127589396Y-117727011D01*
X127579452Y-117657853D01*
X127608477Y-117594297D01*
X127654738Y-117560939D01*
X127779172Y-117509397D01*
X127779172Y-117509396D01*
X127779179Y-117509394D01*
X127910289Y-117421789D01*
X128021789Y-117310289D01*
X128109394Y-117179179D01*
X128169737Y-117033497D01*
X128200500Y-116878842D01*
X128200500Y-116721158D01*
X128200500Y-116721155D01*
X128200499Y-116721153D01*
X128182969Y-116633023D01*
X128169737Y-116566503D01*
X128168902Y-116564486D01*
X128109397Y-116420827D01*
X128109390Y-116420814D01*
X128021789Y-116289711D01*
X128021786Y-116289707D01*
X127910292Y-116178213D01*
X127910288Y-116178210D01*
X127779185Y-116090609D01*
X127779172Y-116090602D01*
X127633501Y-116030264D01*
X127633489Y-116030261D01*
X127478845Y-115999500D01*
X127478842Y-115999500D01*
X127321158Y-115999500D01*
X127321155Y-115999500D01*
X127166510Y-116030261D01*
X127166498Y-116030264D01*
X127020825Y-116090603D01*
X127020820Y-116090606D01*
X127020077Y-116091103D01*
X127019628Y-116091243D01*
X127015454Y-116093475D01*
X127015030Y-116092683D01*
X126953400Y-116111980D01*
X126951188Y-116112000D01*
X126157611Y-116112000D01*
X126090572Y-116092315D01*
X126064060Y-116069389D01*
X126057399Y-116061732D01*
X126020340Y-116001650D01*
X125903325Y-115884635D01*
X125900501Y-115881389D01*
X125887646Y-115853389D01*
X125872886Y-115826358D01*
X125873202Y-115821928D01*
X125871349Y-115817891D01*
X125875673Y-115787386D01*
X125877870Y-115756666D01*
X125880638Y-115752358D01*
X125881155Y-115748713D01*
X125888307Y-115740425D01*
X125906371Y-115712319D01*
X125952986Y-115665704D01*
X126020340Y-115598350D01*
X126110908Y-115451516D01*
X126165174Y-115287753D01*
X126175500Y-115186677D01*
X126175499Y-114588324D01*
X126167687Y-114511853D01*
X126165174Y-114487247D01*
X126134839Y-114395704D01*
X126110908Y-114323484D01*
X126020340Y-114176650D01*
X125898350Y-114054660D01*
X125898346Y-114054657D01*
X125819403Y-114005964D01*
X125772678Y-113954016D01*
X125760500Y-113900426D01*
X125760500Y-112772596D01*
X125780185Y-112705557D01*
X125811614Y-112672278D01*
X125815403Y-112669524D01*
X125815405Y-112669524D01*
X125974646Y-112553828D01*
X126113828Y-112414646D01*
X126229524Y-112255405D01*
X126318884Y-112080025D01*
X126379709Y-111892826D01*
X126385588Y-111855706D01*
X126410500Y-111698422D01*
X126410500Y-111501577D01*
X126379709Y-111307173D01*
X126342528Y-111192743D01*
X126318884Y-111119975D01*
X126318882Y-111119972D01*
X126318882Y-111119970D01*
X126229523Y-110944594D01*
X126113828Y-110785354D01*
X125974646Y-110646172D01*
X125815405Y-110530476D01*
X125809998Y-110527721D01*
X125640029Y-110441117D01*
X125452826Y-110380290D01*
X125258422Y-110349500D01*
X125258417Y-110349500D01*
X125061583Y-110349500D01*
X125061578Y-110349500D01*
X124867173Y-110380290D01*
X124679970Y-110441117D01*
X124504594Y-110530476D01*
X124413741Y-110596485D01*
X124345354Y-110646172D01*
X124345352Y-110646174D01*
X124345351Y-110646174D01*
X124206174Y-110785351D01*
X124206174Y-110785352D01*
X124206172Y-110785354D01*
X124191507Y-110805539D01*
X124090476Y-110944594D01*
X124015485Y-111091773D01*
X123967510Y-111142569D01*
X123899689Y-111159364D01*
X123833554Y-111136827D01*
X123794515Y-111091773D01*
X123719523Y-110944594D01*
X123603828Y-110785354D01*
X123464646Y-110646172D01*
X123305405Y-110530476D01*
X123299998Y-110527721D01*
X123130029Y-110441117D01*
X122942826Y-110380290D01*
X122748422Y-110349500D01*
X122748417Y-110349500D01*
X122551583Y-110349500D01*
X122551577Y-110349500D01*
X122352544Y-110381023D01*
X122283251Y-110372068D01*
X122245466Y-110346231D01*
X118664319Y-106765084D01*
X118630834Y-106703761D01*
X118628000Y-106677403D01*
X118628000Y-106261560D01*
X118628001Y-106261557D01*
X118628001Y-106103443D01*
X118628000Y-106103439D01*
X118628000Y-104433123D01*
X124193114Y-104433123D01*
X124203607Y-104535834D01*
X124258754Y-104702256D01*
X124258756Y-104702261D01*
X124350797Y-104851482D01*
X124474767Y-104975452D01*
X124623988Y-105067493D01*
X124623993Y-105067495D01*
X124790415Y-105122642D01*
X124790422Y-105122643D01*
X124893132Y-105133136D01*
X125168112Y-105133136D01*
X125168113Y-105133135D01*
X125168113Y-104295637D01*
X124193114Y-104295637D01*
X124193114Y-104433123D01*
X118628000Y-104433123D01*
X118628000Y-96524500D01*
X118647685Y-96457461D01*
X118700489Y-96411706D01*
X118752000Y-96400500D01*
X120727507Y-96400500D01*
X120727512Y-96400500D01*
X120830300Y-96389999D01*
X120996836Y-96334815D01*
X121146157Y-96242712D01*
X121270212Y-96118657D01*
X121362315Y-95969336D01*
X121417499Y-95802800D01*
X121428000Y-95700012D01*
X121428000Y-93679966D01*
X121428336Y-93678821D01*
X121428021Y-93677670D01*
X121438156Y-93645377D01*
X121447685Y-93612927D01*
X121448586Y-93612145D01*
X121448944Y-93611007D01*
X121474934Y-93589315D01*
X121500489Y-93567172D01*
X121501669Y-93567002D01*
X121502586Y-93566237D01*
X121536170Y-93562041D01*
X121569647Y-93557228D01*
X121570732Y-93557723D01*
G37*
%TD.AperFunction*%
%TA.AperFunction,Conductor*%
G36*
X121529442Y-84182685D02*
G01*
X121550084Y-84199319D01*
X126769294Y-89418529D01*
X126802779Y-89479852D01*
X126805613Y-89506210D01*
X126805613Y-94198184D01*
X126785928Y-94265223D01*
X126769294Y-94285865D01*
X126300640Y-94754519D01*
X126239317Y-94788004D01*
X126169625Y-94783020D01*
X126125278Y-94754519D01*
X123996614Y-92625855D01*
X123996612Y-92625852D01*
X123877741Y-92506981D01*
X123877740Y-92506980D01*
X123786914Y-92454542D01*
X123786913Y-92454541D01*
X123740814Y-92427925D01*
X123740813Y-92427924D01*
X123728287Y-92424567D01*
X123588081Y-92386999D01*
X123588078Y-92386999D01*
X123533241Y-92386999D01*
X123528605Y-92385637D01*
X123523881Y-92386645D01*
X123495407Y-92375889D01*
X123466202Y-92367314D01*
X123461794Y-92363193D01*
X123458519Y-92361956D01*
X123447381Y-92349718D01*
X123433666Y-92336896D01*
X123430493Y-92332620D01*
X123372840Y-92239150D01*
X123327416Y-92193726D01*
X123321977Y-92186397D01*
X123312930Y-92161831D01*
X123300386Y-92138858D01*
X123301050Y-92129570D01*
X123297832Y-92120832D01*
X123303502Y-92095276D01*
X123305370Y-92069166D01*
X123311367Y-92059834D01*
X123312968Y-92052621D01*
X123321337Y-92044320D01*
X123333871Y-92024819D01*
X123372840Y-91985850D01*
X123463408Y-91839016D01*
X123517674Y-91675253D01*
X123528000Y-91574177D01*
X123527999Y-90900824D01*
X123526414Y-90885311D01*
X123517674Y-90799747D01*
X123510724Y-90778773D01*
X123463408Y-90635984D01*
X123372840Y-90489150D01*
X123333871Y-90450181D01*
X123300386Y-90388858D01*
X123305370Y-90319166D01*
X123333871Y-90274819D01*
X123344351Y-90264339D01*
X123372840Y-90235850D01*
X123463408Y-90089016D01*
X123517674Y-89925253D01*
X123528000Y-89824177D01*
X123527999Y-89225824D01*
X123525991Y-89206171D01*
X123517674Y-89124747D01*
X123497937Y-89065185D01*
X123463408Y-88960984D01*
X123372840Y-88814150D01*
X123258517Y-88699827D01*
X123225032Y-88638504D01*
X123230016Y-88568812D01*
X123258517Y-88524464D01*
X123372448Y-88410533D01*
X123462948Y-88263811D01*
X123462953Y-88263800D01*
X123517180Y-88100152D01*
X123527499Y-87999154D01*
X123527500Y-87999141D01*
X123527500Y-87950000D01*
X121577501Y-87950000D01*
X121577501Y-87999154D01*
X121587819Y-88100152D01*
X121642046Y-88263800D01*
X121642051Y-88263811D01*
X121732552Y-88410534D01*
X121732555Y-88410538D01*
X121846482Y-88524465D01*
X121879967Y-88585788D01*
X121874983Y-88655480D01*
X121846483Y-88699827D01*
X121732159Y-88814151D01*
X121641593Y-88960981D01*
X121641591Y-88960986D01*
X121635352Y-88979815D01*
X121587326Y-89124747D01*
X121587326Y-89124748D01*
X121587325Y-89124748D01*
X121577000Y-89225815D01*
X121577000Y-89341486D01*
X121557315Y-89408525D01*
X121504511Y-89454280D01*
X121435353Y-89464224D01*
X121371797Y-89435199D01*
X121347462Y-89406583D01*
X121270214Y-89281346D01*
X121270211Y-89281342D01*
X121146157Y-89157288D01*
X121146153Y-89157285D01*
X120996844Y-89065189D01*
X120996838Y-89065186D01*
X120996836Y-89065185D01*
X120996833Y-89065184D01*
X120830301Y-89010001D01*
X120727519Y-88999500D01*
X120727512Y-88999500D01*
X119465097Y-88999500D01*
X119398058Y-88979815D01*
X119377416Y-88963181D01*
X118664319Y-88250084D01*
X118649615Y-88223156D01*
X118633023Y-88197338D01*
X118632131Y-88191137D01*
X118630834Y-88188761D01*
X118628000Y-88162403D01*
X118628000Y-88045908D01*
X118647685Y-87978869D01*
X118691771Y-87940363D01*
X118690687Y-87938605D01*
X118696832Y-87934814D01*
X118696834Y-87934814D01*
X118846156Y-87842712D01*
X118970212Y-87718656D01*
X119062255Y-87569428D01*
X119114201Y-87522705D01*
X119183164Y-87511482D01*
X119247246Y-87539325D01*
X119273332Y-87569429D01*
X119365184Y-87718345D01*
X119489154Y-87842315D01*
X119638375Y-87934356D01*
X119638380Y-87934358D01*
X119804802Y-87989505D01*
X119804809Y-87989506D01*
X119907519Y-87999999D01*
X120057499Y-87999999D01*
X120557500Y-87999999D01*
X120707472Y-87999999D01*
X120707486Y-87999998D01*
X120810197Y-87989505D01*
X120976619Y-87934358D01*
X120976624Y-87934356D01*
X121125845Y-87842315D01*
X121249815Y-87718345D01*
X121341856Y-87569124D01*
X121341858Y-87569119D01*
X121366921Y-87493485D01*
X121406693Y-87436040D01*
X121471209Y-87409217D01*
X121539985Y-87421532D01*
X121572308Y-87444808D01*
X121577500Y-87450000D01*
X122302500Y-87450000D01*
X122802500Y-87450000D01*
X123527499Y-87450000D01*
X123527499Y-87400860D01*
X123527498Y-87400845D01*
X123517180Y-87299847D01*
X123462953Y-87136199D01*
X123462948Y-87136188D01*
X123372447Y-86989465D01*
X123372444Y-86989461D01*
X123250538Y-86867555D01*
X123250534Y-86867552D01*
X123103811Y-86777051D01*
X123103800Y-86777046D01*
X122940152Y-86722819D01*
X122839154Y-86712500D01*
X122802500Y-86712500D01*
X122802500Y-87450000D01*
X122302500Y-87450000D01*
X122302500Y-86712500D01*
X122265861Y-86712500D01*
X122265843Y-86712501D01*
X122164847Y-86722819D01*
X122001199Y-86777046D01*
X122001188Y-86777051D01*
X121854465Y-86867552D01*
X121854461Y-86867555D01*
X121732555Y-86989461D01*
X121732552Y-86989465D01*
X121638255Y-87142344D01*
X121636148Y-87141044D01*
X121597712Y-87184700D01*
X121530519Y-87203853D01*
X121463637Y-87183639D01*
X121418302Y-87130474D01*
X121407500Y-87079857D01*
X121407500Y-86650000D01*
X120557500Y-86650000D01*
X120557500Y-87999999D01*
X120057499Y-87999999D01*
X120057500Y-87999998D01*
X120057500Y-86150000D01*
X120557500Y-86150000D01*
X121407499Y-86150000D01*
X121407499Y-85500028D01*
X121407498Y-85500013D01*
X121397005Y-85397302D01*
X121341858Y-85230880D01*
X121341856Y-85230875D01*
X121249815Y-85081654D01*
X121125845Y-84957684D01*
X120976624Y-84865643D01*
X120976619Y-84865641D01*
X120810197Y-84810494D01*
X120810190Y-84810493D01*
X120707486Y-84800000D01*
X120557500Y-84800000D01*
X120557500Y-86150000D01*
X120057500Y-86150000D01*
X120057500Y-84800000D01*
X119907527Y-84800000D01*
X119907512Y-84800001D01*
X119804802Y-84810494D01*
X119638380Y-84865641D01*
X119638375Y-84865643D01*
X119489154Y-84957684D01*
X119364681Y-85082158D01*
X119303358Y-85115643D01*
X119233666Y-85110659D01*
X119177733Y-85068787D01*
X119153316Y-85003323D01*
X119153000Y-84994477D01*
X119153000Y-84738585D01*
X119172685Y-84671546D01*
X119225489Y-84625791D01*
X119237989Y-84620881D01*
X119346834Y-84584814D01*
X119496156Y-84492712D01*
X119620212Y-84368656D01*
X119710729Y-84221902D01*
X119762677Y-84175179D01*
X119816268Y-84163000D01*
X121462403Y-84163000D01*
X121529442Y-84182685D01*
G37*
%TD.AperFunction*%
%TA.AperFunction,Conductor*%
G36*
X167920924Y-74508752D02*
G01*
X168367148Y-74527210D01*
X168377319Y-74528053D01*
X168818222Y-74583012D01*
X168828302Y-74584694D01*
X169263148Y-74675873D01*
X169273056Y-74678382D01*
X169698881Y-74805157D01*
X169708564Y-74808481D01*
X170122456Y-74969985D01*
X170131820Y-74974092D01*
X170530968Y-75169225D01*
X170539981Y-75174103D01*
X170921626Y-75401516D01*
X170930207Y-75407121D01*
X171291786Y-75665286D01*
X171299869Y-75671577D01*
X171638886Y-75958713D01*
X171646426Y-75965654D01*
X171960575Y-76279805D01*
X171967516Y-76287345D01*
X172254649Y-76626365D01*
X172260944Y-76634453D01*
X172332254Y-76734329D01*
X172499475Y-76968540D01*
X172519103Y-76996030D01*
X172524708Y-77004610D01*
X172752118Y-77386259D01*
X172756996Y-77395272D01*
X172952120Y-77794409D01*
X172956237Y-77803795D01*
X173117734Y-78217683D01*
X173121061Y-78227376D01*
X173218220Y-78553735D01*
X173247824Y-78653173D01*
X173250340Y-78663108D01*
X173341510Y-79097927D01*
X173343197Y-79108036D01*
X173398147Y-79548904D01*
X173398993Y-79559117D01*
X173417506Y-80006789D01*
X173417612Y-80011913D01*
X173417612Y-130940835D01*
X173414602Y-130967989D01*
X173335631Y-131319865D01*
X173333009Y-131329658D01*
X173211970Y-131717385D01*
X173208560Y-131726920D01*
X173056236Y-132103462D01*
X173052050Y-132112702D01*
X172869471Y-132475514D01*
X172864545Y-132484380D01*
X172652924Y-132831061D01*
X172647290Y-132839495D01*
X172408037Y-133167729D01*
X172401732Y-133175674D01*
X172136457Y-133483249D01*
X172129524Y-133490652D01*
X171840007Y-133775511D01*
X171832493Y-133782323D01*
X171520655Y-134042576D01*
X171512608Y-134048751D01*
X171180534Y-134282652D01*
X171172010Y-134288149D01*
X170821949Y-134494117D01*
X170813004Y-134498899D01*
X170447261Y-134675577D01*
X170437955Y-134679611D01*
X170059021Y-134825798D01*
X170049417Y-134829059D01*
X169659785Y-134943792D01*
X169649946Y-134946257D01*
X169252237Y-135028764D01*
X169242229Y-135030416D01*
X168839122Y-135080139D01*
X168829014Y-135080968D01*
X168420207Y-135097703D01*
X168415135Y-135097807D01*
X95979449Y-135097807D01*
X95954588Y-135095289D01*
X95569448Y-135016472D01*
X95560031Y-135014158D01*
X95143116Y-134894235D01*
X95133909Y-134891192D01*
X94727651Y-134739061D01*
X94718709Y-134735308D01*
X94325566Y-134551888D01*
X94316945Y-134547447D01*
X93939360Y-134333877D01*
X93931112Y-134328777D01*
X93571342Y-134086335D01*
X93563519Y-134080605D01*
X93393672Y-133945711D01*
X93223816Y-133810808D01*
X93216473Y-133804493D01*
X92898873Y-133508955D01*
X92892038Y-133502077D01*
X92866418Y-133474195D01*
X92598517Y-133182639D01*
X92592244Y-133175251D01*
X92324586Y-132833856D01*
X92318906Y-132825997D01*
X92078740Y-132464724D01*
X92073691Y-132456444D01*
X91862491Y-132077506D01*
X91858105Y-132068857D01*
X91677167Y-131674582D01*
X91673470Y-131665617D01*
X91523894Y-131258405D01*
X91520909Y-131249179D01*
X91471719Y-131074029D01*
X91403606Y-130831501D01*
X91401360Y-130822109D01*
X91317052Y-130396525D01*
X91315547Y-130386984D01*
X91264755Y-129956127D01*
X91263998Y-129946469D01*
X91249317Y-129571377D01*
X91247016Y-129512589D01*
X91246928Y-129506583D01*
X91527275Y-100911191D01*
X95641611Y-100911191D01*
X95651561Y-100948323D01*
X95682536Y-101063922D01*
X95682537Y-101063923D01*
X95697439Y-101089736D01*
X95697440Y-101089737D01*
X95761588Y-101200846D01*
X95761594Y-101200854D01*
X95880462Y-101319722D01*
X95880468Y-101319727D01*
X96075196Y-101514455D01*
X96108681Y-101575778D01*
X96105446Y-101640453D01*
X96069711Y-101750434D01*
X96069710Y-101750438D01*
X96042613Y-101921526D01*
X96042613Y-102094748D01*
X96069711Y-102265838D01*
X96123240Y-102430582D01*
X96201881Y-102584925D01*
X96303699Y-102725065D01*
X96426185Y-102847551D01*
X96505711Y-102905330D01*
X96566326Y-102949370D01*
X96643496Y-102988689D01*
X96720668Y-103028010D01*
X96731926Y-103031668D01*
X96789602Y-103071101D01*
X96816804Y-103135459D01*
X96817613Y-103149600D01*
X96817613Y-120431443D01*
X96817612Y-120431461D01*
X96817612Y-120597167D01*
X96817611Y-120597167D01*
X96858536Y-120749898D01*
X96887471Y-120800013D01*
X96887472Y-120800017D01*
X96887473Y-120800017D01*
X96937592Y-120886827D01*
X96937594Y-120886830D01*
X97056462Y-121005698D01*
X97056468Y-121005703D01*
X98075139Y-122024374D01*
X98075149Y-122024385D01*
X98079479Y-122028715D01*
X98079480Y-122028716D01*
X98191284Y-122140520D01*
X98278095Y-122190639D01*
X98278097Y-122190641D01*
X98316151Y-122212611D01*
X98328215Y-122219577D01*
X98480943Y-122260500D01*
X107589903Y-122260500D01*
X107656942Y-122280185D01*
X107677584Y-122296819D01*
X111997841Y-126617076D01*
X112031326Y-126678399D01*
X112028091Y-126743076D01*
X111968910Y-126925214D01*
X111929500Y-127174038D01*
X111929500Y-127425961D01*
X111968910Y-127674785D01*
X112046760Y-127914383D01*
X112113486Y-128045338D01*
X112160995Y-128138581D01*
X112161132Y-128138848D01*
X112309201Y-128342649D01*
X112309205Y-128342654D01*
X112487345Y-128520794D01*
X112487350Y-128520798D01*
X112588449Y-128594250D01*
X112691155Y-128668870D01*
X112834184Y-128741747D01*
X112915616Y-128783239D01*
X112915618Y-128783239D01*
X112915621Y-128783241D01*
X113155215Y-128861090D01*
X113404038Y-128900500D01*
X113404039Y-128900500D01*
X113655961Y-128900500D01*
X113655962Y-128900500D01*
X113904785Y-128861090D01*
X114144379Y-128783241D01*
X114368845Y-128668870D01*
X114572656Y-128520793D01*
X114750793Y-128342656D01*
X114898870Y-128138845D01*
X115013241Y-127914379D01*
X115091090Y-127674785D01*
X115130500Y-127425962D01*
X115130500Y-127174071D01*
X134790000Y-127174071D01*
X134790000Y-127425928D01*
X134829397Y-127674669D01*
X134907219Y-127914184D01*
X135021557Y-128138583D01*
X135095748Y-128240697D01*
X135095748Y-128240698D01*
X135769824Y-127566622D01*
X135791823Y-127619732D01*
X135865693Y-127730287D01*
X135959713Y-127824307D01*
X136070268Y-127898177D01*
X136123376Y-127920175D01*
X135449300Y-128594250D01*
X135551416Y-128668442D01*
X135775815Y-128782780D01*
X136015330Y-128860602D01*
X136264072Y-128900000D01*
X136515928Y-128900000D01*
X136764669Y-128860602D01*
X137004184Y-128782780D01*
X137228575Y-128668446D01*
X137228581Y-128668442D01*
X137330697Y-128594250D01*
X137330698Y-128594250D01*
X136656622Y-127920175D01*
X136709732Y-127898177D01*
X136820287Y-127824307D01*
X136914307Y-127730287D01*
X136988177Y-127619732D01*
X137010175Y-127566622D01*
X137684250Y-128240698D01*
X137684250Y-128240697D01*
X137758442Y-128138581D01*
X137758446Y-128138575D01*
X137872780Y-127914184D01*
X137950602Y-127674669D01*
X137990000Y-127425928D01*
X137990000Y-127174071D01*
X137950602Y-126925330D01*
X137872780Y-126685815D01*
X137758442Y-126461416D01*
X137684250Y-126359301D01*
X137684250Y-126359300D01*
X137010175Y-127033376D01*
X136988177Y-126980268D01*
X136914307Y-126869713D01*
X136820287Y-126775693D01*
X136709732Y-126701823D01*
X136656621Y-126679823D01*
X137330698Y-126005748D01*
X137228583Y-125931557D01*
X137004184Y-125817219D01*
X136764669Y-125739397D01*
X136515928Y-125700000D01*
X136264072Y-125700000D01*
X136015330Y-125739397D01*
X135775815Y-125817219D01*
X135551413Y-125931559D01*
X135449301Y-126005747D01*
X135449300Y-126005748D01*
X136123377Y-126679824D01*
X136070268Y-126701823D01*
X135959713Y-126775693D01*
X135865693Y-126869713D01*
X135791823Y-126980268D01*
X135769824Y-127033377D01*
X135095748Y-126359300D01*
X135095747Y-126359301D01*
X135021559Y-126461413D01*
X134907219Y-126685815D01*
X134829397Y-126925330D01*
X134790000Y-127174071D01*
X115130500Y-127174071D01*
X115130500Y-127174038D01*
X115091090Y-126925215D01*
X115013241Y-126685621D01*
X115013239Y-126685618D01*
X115013239Y-126685616D01*
X114957224Y-126575681D01*
X114898870Y-126461155D01*
X114839661Y-126379660D01*
X114750798Y-126257350D01*
X114750794Y-126257345D01*
X114572654Y-126079205D01*
X114572649Y-126079201D01*
X114368848Y-125931132D01*
X114368847Y-125931131D01*
X114368845Y-125931130D01*
X114298747Y-125895413D01*
X114144383Y-125816760D01*
X113904785Y-125738910D01*
X113655962Y-125699500D01*
X113404038Y-125699500D01*
X113279626Y-125719205D01*
X113155214Y-125738910D01*
X113066175Y-125767841D01*
X112973074Y-125798091D01*
X112903234Y-125800086D01*
X112847076Y-125767841D01*
X108377590Y-121298355D01*
X108377588Y-121298352D01*
X108258717Y-121179481D01*
X108258716Y-121179480D01*
X108171904Y-121129360D01*
X108171904Y-121129359D01*
X108171900Y-121129358D01*
X108121785Y-121100423D01*
X107969057Y-121059499D01*
X107810943Y-121059499D01*
X107803347Y-121059499D01*
X107803331Y-121059500D01*
X98860097Y-121059500D01*
X98793058Y-121039815D01*
X98772416Y-121023181D01*
X98054932Y-120305697D01*
X98021447Y-120244374D01*
X98018613Y-120218016D01*
X98018613Y-103149600D01*
X98038298Y-103082561D01*
X98091102Y-103036806D01*
X98104291Y-103031670D01*
X98115558Y-103028010D01*
X98269901Y-102949369D01*
X98410041Y-102847551D01*
X98532527Y-102725065D01*
X98634345Y-102584925D01*
X98712986Y-102430582D01*
X98766515Y-102265838D01*
X98793613Y-102094748D01*
X98793613Y-101921526D01*
X98766515Y-101750436D01*
X98730778Y-101640452D01*
X98728784Y-101570612D01*
X98761027Y-101514456D01*
X98952619Y-101322865D01*
X98952624Y-101322861D01*
X98962827Y-101312657D01*
X98962829Y-101312657D01*
X99074633Y-101200853D01*
X99138786Y-101089736D01*
X99153690Y-101063922D01*
X99194613Y-100911194D01*
X99194613Y-100753080D01*
X99194613Y-92625983D01*
X99214298Y-92558944D01*
X99230927Y-92538307D01*
X102384382Y-89384851D01*
X102445703Y-89351368D01*
X102511063Y-89354827D01*
X102617203Y-89389999D01*
X102719991Y-89400500D01*
X103520008Y-89400499D01*
X103520016Y-89400498D01*
X103520019Y-89400498D01*
X103613017Y-89390998D01*
X103622797Y-89389999D01*
X103789334Y-89334814D01*
X103938656Y-89242712D01*
X104062712Y-89118656D01*
X104154461Y-88969905D01*
X104206409Y-88923181D01*
X104275371Y-88911958D01*
X104339454Y-88939801D01*
X104365538Y-88969905D01*
X104390269Y-89010001D01*
X104420761Y-89059437D01*
X104457288Y-89118656D01*
X104581344Y-89242712D01*
X104730666Y-89334814D01*
X104730667Y-89334814D01*
X104736813Y-89338605D01*
X104735706Y-89340399D01*
X104780337Y-89379687D01*
X104799500Y-89445908D01*
X104799500Y-89763330D01*
X104799499Y-89763348D01*
X104799499Y-89929054D01*
X104799498Y-89929054D01*
X104799499Y-89929057D01*
X104840423Y-90081785D01*
X104840424Y-90081787D01*
X104840423Y-90081787D01*
X104844597Y-90089015D01*
X104844599Y-90089018D01*
X104916468Y-90213500D01*
X104932941Y-90281401D01*
X104910088Y-90347427D01*
X104855167Y-90390618D01*
X104809081Y-90399500D01*
X102699980Y-90399500D01*
X102597198Y-90410001D01*
X102430666Y-90465184D01*
X102430655Y-90465189D01*
X102281346Y-90557285D01*
X102281342Y-90557288D01*
X102157288Y-90681342D01*
X102157285Y-90681346D01*
X102065189Y-90830655D01*
X102065184Y-90830666D01*
X102010001Y-90997198D01*
X101999500Y-91099980D01*
X101999500Y-97100019D01*
X102010001Y-97202801D01*
X102065184Y-97369333D01*
X102065189Y-97369344D01*
X102157285Y-97518653D01*
X102157288Y-97518657D01*
X102281342Y-97642711D01*
X102281346Y-97642714D01*
X102430655Y-97734810D01*
X102430658Y-97734811D01*
X102430664Y-97734815D01*
X102597200Y-97789999D01*
X102699988Y-97800500D01*
X102699993Y-97800500D01*
X108100007Y-97800500D01*
X108100012Y-97800500D01*
X108202800Y-97789999D01*
X108369336Y-97734815D01*
X108518657Y-97642712D01*
X108642712Y-97518657D01*
X108734815Y-97369336D01*
X108789999Y-97202800D01*
X108800500Y-97100012D01*
X108800500Y-95082997D01*
X108820185Y-95015958D01*
X108872989Y-94970203D01*
X108942147Y-94960259D01*
X109005703Y-94989284D01*
X109030039Y-95017901D01*
X109077437Y-95094747D01*
X109079660Y-95098350D01*
X109201650Y-95220340D01*
X109240597Y-95244362D01*
X109287320Y-95296307D01*
X109299500Y-95349900D01*
X109299500Y-97313330D01*
X109299499Y-97313348D01*
X109299499Y-97479054D01*
X109299498Y-97479054D01*
X109340423Y-97631784D01*
X109340424Y-97631787D01*
X109344833Y-97639423D01*
X109344834Y-97639425D01*
X109419477Y-97768712D01*
X109419481Y-97768717D01*
X109538349Y-97887585D01*
X109538355Y-97887590D01*
X112365425Y-100714660D01*
X112398910Y-100775983D01*
X112399361Y-100778149D01*
X112430261Y-100933491D01*
X112430264Y-100933501D01*
X112490602Y-101079172D01*
X112490609Y-101079185D01*
X112578210Y-101210288D01*
X112578213Y-101210292D01*
X112689707Y-101321786D01*
X112689711Y-101321789D01*
X112820814Y-101409390D01*
X112820827Y-101409397D01*
X112966498Y-101469735D01*
X112966503Y-101469737D01*
X113061977Y-101488728D01*
X113121153Y-101500499D01*
X113121156Y-101500500D01*
X113121158Y-101500500D01*
X113278844Y-101500500D01*
X113278845Y-101500499D01*
X113433497Y-101469737D01*
X113579179Y-101409394D01*
X113710289Y-101321789D01*
X113821789Y-101210289D01*
X113909394Y-101079179D01*
X113969737Y-100933497D01*
X114000500Y-100778842D01*
X114000500Y-100621158D01*
X114000500Y-100621155D01*
X114000499Y-100621153D01*
X113969737Y-100466503D01*
X113958652Y-100439741D01*
X113909397Y-100320827D01*
X113909390Y-100320814D01*
X113821789Y-100189711D01*
X113821786Y-100189707D01*
X113710292Y-100078213D01*
X113710288Y-100078210D01*
X113579185Y-99990609D01*
X113579172Y-99990602D01*
X113433501Y-99930264D01*
X113433491Y-99930261D01*
X113278151Y-99899362D01*
X113216241Y-99866977D01*
X113214662Y-99865426D01*
X110536819Y-97187583D01*
X110503334Y-97126260D01*
X110500500Y-97099902D01*
X110500500Y-95349900D01*
X110520185Y-95282861D01*
X110559401Y-95244363D01*
X110598350Y-95220340D01*
X110720340Y-95098350D01*
X110810908Y-94951516D01*
X110865174Y-94787753D01*
X110875500Y-94686677D01*
X110875499Y-94013324D01*
X110865174Y-93912247D01*
X110810908Y-93748484D01*
X110720340Y-93601650D01*
X110681371Y-93562681D01*
X110647886Y-93501358D01*
X110652870Y-93431666D01*
X110681371Y-93387319D01*
X110685553Y-93383137D01*
X110720340Y-93348350D01*
X110810908Y-93201516D01*
X110865174Y-93037753D01*
X110875500Y-92936677D01*
X110875499Y-92263324D01*
X110873814Y-92246832D01*
X110865174Y-92162247D01*
X110865036Y-92161831D01*
X110810908Y-91998484D01*
X110720340Y-91851650D01*
X110681371Y-91812681D01*
X110647886Y-91751358D01*
X110652870Y-91681666D01*
X110681371Y-91637319D01*
X110720340Y-91598350D01*
X110810908Y-91451516D01*
X110865174Y-91287753D01*
X110875500Y-91186677D01*
X110875499Y-90588324D01*
X110874252Y-90576120D01*
X110865174Y-90487247D01*
X110852891Y-90450181D01*
X110810908Y-90323484D01*
X110720340Y-90176650D01*
X110606017Y-90062327D01*
X110572532Y-90001004D01*
X110577516Y-89931312D01*
X110606017Y-89886964D01*
X110719948Y-89773033D01*
X110810448Y-89626311D01*
X110810453Y-89626300D01*
X110864680Y-89462652D01*
X110874999Y-89361654D01*
X110875000Y-89361641D01*
X110875000Y-89312500D01*
X108925001Y-89312500D01*
X108925001Y-89361654D01*
X108935319Y-89462652D01*
X108989546Y-89626300D01*
X108989551Y-89626311D01*
X109080052Y-89773034D01*
X109080055Y-89773038D01*
X109193982Y-89886965D01*
X109227467Y-89948288D01*
X109222483Y-90017980D01*
X109193983Y-90062327D01*
X109079659Y-90176651D01*
X108989093Y-90323481D01*
X108989091Y-90323486D01*
X108974619Y-90367160D01*
X108934826Y-90487247D01*
X108934826Y-90487248D01*
X108934825Y-90487248D01*
X108924500Y-90588315D01*
X108924500Y-90700955D01*
X108904815Y-90767994D01*
X108852011Y-90813749D01*
X108782853Y-90823693D01*
X108719297Y-90794668D01*
X108694962Y-90766052D01*
X108642714Y-90681346D01*
X108642711Y-90681342D01*
X108518657Y-90557288D01*
X108518653Y-90557285D01*
X108369344Y-90465189D01*
X108369338Y-90465186D01*
X108369336Y-90465185D01*
X108369333Y-90465184D01*
X108202801Y-90410001D01*
X108100019Y-90399500D01*
X108100012Y-90399500D01*
X106850097Y-90399500D01*
X106783058Y-90379815D01*
X106762416Y-90363181D01*
X106036819Y-89637584D01*
X106022115Y-89610656D01*
X106005523Y-89584838D01*
X106004631Y-89578637D01*
X106003334Y-89576261D01*
X106000500Y-89549903D01*
X106000500Y-89445908D01*
X106020185Y-89378869D01*
X106064271Y-89340363D01*
X106063187Y-89338605D01*
X106069332Y-89334814D01*
X106069334Y-89334814D01*
X106218656Y-89242712D01*
X106342712Y-89118656D01*
X106434755Y-88969428D01*
X106486701Y-88922705D01*
X106555664Y-88911482D01*
X106619746Y-88939325D01*
X106645832Y-88969429D01*
X106737684Y-89118345D01*
X106861654Y-89242315D01*
X107010875Y-89334356D01*
X107010880Y-89334358D01*
X107177302Y-89389505D01*
X107177309Y-89389506D01*
X107280019Y-89399999D01*
X107429999Y-89399999D01*
X107930000Y-89399999D01*
X108079972Y-89399999D01*
X108079986Y-89399998D01*
X108182697Y-89389505D01*
X108349119Y-89334358D01*
X108349124Y-89334356D01*
X108498345Y-89242315D01*
X108622315Y-89118345D01*
X108714356Y-88969124D01*
X108714359Y-88969117D01*
X108742532Y-88884097D01*
X108782304Y-88826651D01*
X108846820Y-88799828D01*
X108915596Y-88812143D01*
X108916092Y-88812500D01*
X109650000Y-88812500D01*
X110150000Y-88812500D01*
X110874999Y-88812500D01*
X110874999Y-88763360D01*
X110874998Y-88763345D01*
X110864680Y-88662347D01*
X110810453Y-88498699D01*
X110810448Y-88498688D01*
X110719947Y-88351965D01*
X110719944Y-88351961D01*
X110598038Y-88230055D01*
X110598034Y-88230052D01*
X110451311Y-88139551D01*
X110451300Y-88139546D01*
X110287652Y-88085319D01*
X110186654Y-88075000D01*
X110150000Y-88075000D01*
X110150000Y-88812500D01*
X109650000Y-88812500D01*
X109650000Y-88075000D01*
X109613361Y-88075000D01*
X109613343Y-88075001D01*
X109512347Y-88085319D01*
X109348699Y-88139546D01*
X109348688Y-88139551D01*
X109201965Y-88230052D01*
X109201961Y-88230055D01*
X109080055Y-88351961D01*
X109080052Y-88351965D01*
X109009538Y-88466286D01*
X108957590Y-88513011D01*
X108888628Y-88524232D01*
X108824546Y-88496389D01*
X108785690Y-88438320D01*
X108780000Y-88401189D01*
X108780000Y-88050000D01*
X107930000Y-88050000D01*
X107930000Y-89399999D01*
X107429999Y-89399999D01*
X107430000Y-89399998D01*
X107430000Y-87550000D01*
X107930000Y-87550000D01*
X108779999Y-87550000D01*
X108779999Y-86900028D01*
X108779998Y-86900013D01*
X108769505Y-86797302D01*
X108714358Y-86630880D01*
X108714356Y-86630875D01*
X108622315Y-86481654D01*
X108498345Y-86357684D01*
X108349124Y-86265643D01*
X108349119Y-86265641D01*
X108182697Y-86210494D01*
X108182690Y-86210493D01*
X108079986Y-86200000D01*
X107930000Y-86200000D01*
X107930000Y-87550000D01*
X107430000Y-87550000D01*
X107430000Y-86200000D01*
X107280027Y-86200000D01*
X107280012Y-86200001D01*
X107177302Y-86210494D01*
X107010880Y-86265641D01*
X107010875Y-86265643D01*
X106861654Y-86357684D01*
X106737683Y-86481655D01*
X106737680Y-86481659D01*
X106645831Y-86630570D01*
X106593883Y-86677295D01*
X106524921Y-86688516D01*
X106460839Y-86660673D01*
X106434754Y-86630569D01*
X106342712Y-86481344D01*
X106218657Y-86357289D01*
X106218656Y-86357288D01*
X106069334Y-86265186D01*
X105902797Y-86210001D01*
X105902795Y-86210000D01*
X105800010Y-86199500D01*
X104999998Y-86199500D01*
X104999980Y-86199501D01*
X104897203Y-86210000D01*
X104897200Y-86210001D01*
X104791066Y-86245171D01*
X104721237Y-86247573D01*
X104664381Y-86215146D01*
X103996385Y-85547150D01*
X103962900Y-85485827D01*
X103967884Y-85416135D01*
X103978524Y-85394377D01*
X104006701Y-85348697D01*
X104061886Y-85182160D01*
X104072387Y-85079372D01*
X104072386Y-84304355D01*
X104061886Y-84201566D01*
X104006701Y-84035029D01*
X103914599Y-83885707D01*
X103790543Y-83761651D01*
X103787229Y-83759606D01*
X103785433Y-83757611D01*
X103784876Y-83757170D01*
X103784951Y-83757074D01*
X103740505Y-83707660D01*
X103729284Y-83638697D01*
X103757127Y-83574615D01*
X103787235Y-83548528D01*
X103790229Y-83546681D01*
X103914202Y-83422708D01*
X104006243Y-83273487D01*
X104006245Y-83273482D01*
X104061392Y-83107060D01*
X104061393Y-83107053D01*
X104071886Y-83004349D01*
X104071887Y-83004336D01*
X104071887Y-82866863D01*
X99156888Y-82866863D01*
X99156888Y-83004349D01*
X99167381Y-83107060D01*
X99222528Y-83273482D01*
X99222530Y-83273487D01*
X99314571Y-83422708D01*
X99438542Y-83546679D01*
X99438546Y-83546682D01*
X99441543Y-83548531D01*
X99443166Y-83550335D01*
X99444210Y-83551161D01*
X99444068Y-83551339D01*
X99488268Y-83600479D01*
X99499489Y-83669442D01*
X99471646Y-83733524D01*
X99441548Y-83759604D01*
X99438236Y-83761646D01*
X99438230Y-83761651D01*
X99314176Y-83885705D01*
X99222074Y-84035026D01*
X99222073Y-84035029D01*
X99166888Y-84201566D01*
X99166888Y-84201567D01*
X99166887Y-84201567D01*
X99156387Y-84304346D01*
X99156387Y-85079364D01*
X99156388Y-85079382D01*
X99166887Y-85182159D01*
X99166888Y-85182162D01*
X99222072Y-85348694D01*
X99222074Y-85348699D01*
X99243007Y-85382637D01*
X99314175Y-85498019D01*
X99438231Y-85622075D01*
X99587553Y-85714177D01*
X99754090Y-85769362D01*
X99856878Y-85779863D01*
X100199265Y-85779862D01*
X100266304Y-85799546D01*
X100286945Y-85816180D01*
X101983182Y-87512418D01*
X102016666Y-87573739D01*
X102019500Y-87600097D01*
X102019500Y-87999901D01*
X101999815Y-88066940D01*
X101983181Y-88087582D01*
X98225399Y-91845365D01*
X98113594Y-91957169D01*
X98113592Y-91957172D01*
X98098558Y-91983212D01*
X98073513Y-92026592D01*
X98034536Y-92094102D01*
X97993612Y-92246830D01*
X97993612Y-92246832D01*
X97993612Y-92414933D01*
X97993613Y-92414946D01*
X97993613Y-98784137D01*
X97973928Y-98851176D01*
X97921124Y-98896931D01*
X97869613Y-98908137D01*
X97668113Y-98908137D01*
X97668113Y-99727807D01*
X97648368Y-99708062D01*
X97562858Y-99658693D01*
X97467483Y-99633137D01*
X97368743Y-99633137D01*
X97273368Y-99658693D01*
X97187858Y-99708062D01*
X97168113Y-99727807D01*
X97168113Y-98908137D01*
X96966613Y-98908137D01*
X96899574Y-98888452D01*
X96853819Y-98835648D01*
X96842613Y-98784137D01*
X96842613Y-84457983D01*
X96862298Y-84390944D01*
X96878927Y-84370307D01*
X98945208Y-82304026D01*
X99006529Y-82270543D01*
X99076221Y-82275527D01*
X99132154Y-82317399D01*
X99146865Y-82356841D01*
X99156887Y-82366863D01*
X104071886Y-82366863D01*
X104071886Y-82229391D01*
X104071885Y-82229376D01*
X104061392Y-82126665D01*
X104006245Y-81960243D01*
X104006243Y-81960238D01*
X103914202Y-81811017D01*
X103790232Y-81687047D01*
X103697807Y-81630039D01*
X103651083Y-81578091D01*
X103639860Y-81509128D01*
X103667704Y-81445046D01*
X103725772Y-81406190D01*
X103762904Y-81400500D01*
X109847403Y-81400500D01*
X109914442Y-81420185D01*
X109935084Y-81436819D01*
X114610681Y-86112416D01*
X114644166Y-86173739D01*
X114647000Y-86200097D01*
X114647000Y-87300001D01*
X114647001Y-87300018D01*
X114657500Y-87402796D01*
X114657501Y-87402799D01*
X114712685Y-87569331D01*
X114712687Y-87569336D01*
X114712745Y-87569430D01*
X114804788Y-87718656D01*
X114928844Y-87842712D01*
X115078166Y-87934814D01*
X115244703Y-87989999D01*
X115347491Y-88000500D01*
X116147508Y-88000499D01*
X116147516Y-88000498D01*
X116147519Y-88000498D01*
X116203802Y-87994748D01*
X116250297Y-87989999D01*
X116416834Y-87934814D01*
X116566156Y-87842712D01*
X116690212Y-87718656D01*
X116781961Y-87569905D01*
X116833909Y-87523181D01*
X116902871Y-87511958D01*
X116966954Y-87539801D01*
X116993039Y-87569906D01*
X117065754Y-87687798D01*
X117084788Y-87718656D01*
X117208844Y-87842712D01*
X117358166Y-87934814D01*
X117358167Y-87934814D01*
X117364313Y-87938605D01*
X117363206Y-87940399D01*
X117407837Y-87979687D01*
X117427000Y-88045908D01*
X117427000Y-88383439D01*
X117426999Y-88383443D01*
X117426999Y-88541557D01*
X117427000Y-88541560D01*
X117427000Y-88875500D01*
X117407315Y-88942539D01*
X117354511Y-88988294D01*
X117303000Y-88999500D01*
X115327480Y-88999500D01*
X115224698Y-89010001D01*
X115058166Y-89065184D01*
X115058155Y-89065189D01*
X114908846Y-89157285D01*
X114908842Y-89157288D01*
X114784788Y-89281342D01*
X114784785Y-89281346D01*
X114692689Y-89430655D01*
X114692684Y-89430666D01*
X114637501Y-89597198D01*
X114627000Y-89699980D01*
X114627000Y-95700019D01*
X114637501Y-95802801D01*
X114692684Y-95969333D01*
X114692689Y-95969344D01*
X114784785Y-96118653D01*
X114784788Y-96118657D01*
X114908842Y-96242711D01*
X114908846Y-96242714D01*
X115058155Y-96334810D01*
X115058158Y-96334811D01*
X115058164Y-96334815D01*
X115224700Y-96389999D01*
X115327488Y-96400500D01*
X117303000Y-96400500D01*
X117370039Y-96420185D01*
X117415794Y-96472989D01*
X117427000Y-96524500D01*
X117427000Y-105575500D01*
X117407315Y-105642539D01*
X117354511Y-105688294D01*
X117303000Y-105699500D01*
X107956669Y-105699500D01*
X107956653Y-105699499D01*
X107949057Y-105699499D01*
X107790943Y-105699499D01*
X107676397Y-105730192D01*
X107638214Y-105740423D01*
X107594464Y-105765683D01*
X107594463Y-105765683D01*
X107501287Y-105819477D01*
X107501282Y-105819481D01*
X107389478Y-105931286D01*
X102974532Y-110346231D01*
X102913209Y-110379716D01*
X102867453Y-110381023D01*
X102668422Y-110349500D01*
X102668417Y-110349500D01*
X102471583Y-110349500D01*
X102471578Y-110349500D01*
X102277173Y-110380290D01*
X102089970Y-110441117D01*
X101914594Y-110530476D01*
X101823741Y-110596485D01*
X101755354Y-110646172D01*
X101755352Y-110646174D01*
X101755351Y-110646174D01*
X101616174Y-110785351D01*
X101616174Y-110785352D01*
X101616172Y-110785354D01*
X101601507Y-110805539D01*
X101500476Y-110944594D01*
X101411117Y-111119970D01*
X101350290Y-111307173D01*
X101319500Y-111501577D01*
X101319500Y-111698422D01*
X101350290Y-111892826D01*
X101393184Y-112024836D01*
X101395179Y-112094678D01*
X101359099Y-112154511D01*
X101296398Y-112185339D01*
X101226984Y-112177375D01*
X101187572Y-112150836D01*
X101036819Y-112000083D01*
X101003334Y-111938760D01*
X101000500Y-111912402D01*
X101000500Y-105024500D01*
X101020185Y-104957461D01*
X101072989Y-104911706D01*
X101124500Y-104900500D01*
X114374684Y-104900500D01*
X114422136Y-104909939D01*
X114536866Y-104957461D01*
X114566503Y-104969737D01*
X114721153Y-105000499D01*
X114721156Y-105000500D01*
X114721158Y-105000500D01*
X114878844Y-105000500D01*
X114878845Y-105000499D01*
X115033497Y-104969737D01*
X115179179Y-104909394D01*
X115310289Y-104821789D01*
X115421789Y-104710289D01*
X115509394Y-104579179D01*
X115569737Y-104433497D01*
X115600500Y-104278842D01*
X115600500Y-104121158D01*
X115600500Y-104121155D01*
X115600499Y-104121153D01*
X115596192Y-104099500D01*
X115569737Y-103966503D01*
X115555176Y-103931349D01*
X115509397Y-103820827D01*
X115509390Y-103820814D01*
X115421789Y-103689711D01*
X115421786Y-103689707D01*
X115310292Y-103578213D01*
X115310288Y-103578210D01*
X115179185Y-103490609D01*
X115179172Y-103490602D01*
X115033501Y-103430264D01*
X115033489Y-103430261D01*
X114878845Y-103399500D01*
X114878842Y-103399500D01*
X114721158Y-103399500D01*
X114721155Y-103399500D01*
X114566510Y-103430261D01*
X114566498Y-103430264D01*
X114420827Y-103490602D01*
X114420814Y-103490609D01*
X114289712Y-103578209D01*
X114260285Y-103607637D01*
X114204739Y-103663182D01*
X114143419Y-103696666D01*
X114117060Y-103699500D01*
X100320943Y-103699500D01*
X100168216Y-103740423D01*
X100168209Y-103740426D01*
X100031290Y-103819475D01*
X100031282Y-103819481D01*
X99919481Y-103931282D01*
X99919475Y-103931290D01*
X99840426Y-104068209D01*
X99840423Y-104068216D01*
X99799500Y-104220943D01*
X99799500Y-112125830D01*
X99799499Y-112125848D01*
X99799499Y-112291554D01*
X99799498Y-112291554D01*
X99840423Y-112444287D01*
X99848612Y-112458469D01*
X99848611Y-112458469D01*
X99848613Y-112458471D01*
X99919475Y-112581209D01*
X99919481Y-112581217D01*
X100038349Y-112700085D01*
X100038355Y-112700090D01*
X104088181Y-116749917D01*
X104121666Y-116811240D01*
X104124500Y-116837598D01*
X104124500Y-117211669D01*
X104124501Y-117211687D01*
X104134825Y-117312752D01*
X104166850Y-117409394D01*
X104189092Y-117476516D01*
X104279660Y-117623350D01*
X104401650Y-117745340D01*
X104548484Y-117835908D01*
X104712247Y-117890174D01*
X104813323Y-117900500D01*
X105386676Y-117900499D01*
X105386684Y-117900498D01*
X105386687Y-117900498D01*
X105442030Y-117894844D01*
X105487753Y-117890174D01*
X105651516Y-117835908D01*
X105798350Y-117745340D01*
X105920340Y-117623350D01*
X106010908Y-117476516D01*
X106065174Y-117312753D01*
X106075500Y-117211677D01*
X106075499Y-116613324D01*
X106071046Y-116569735D01*
X106065174Y-116512247D01*
X106050014Y-116466498D01*
X106010908Y-116348484D01*
X105920340Y-116201650D01*
X105806371Y-116087681D01*
X105772886Y-116026358D01*
X105777870Y-115956666D01*
X105806371Y-115912319D01*
X105839848Y-115878842D01*
X105920340Y-115798350D01*
X106010908Y-115651516D01*
X106065174Y-115487753D01*
X106075500Y-115386677D01*
X106075499Y-114788324D01*
X106074458Y-114778137D01*
X106065174Y-114687247D01*
X106058291Y-114666475D01*
X106010908Y-114523484D01*
X105920340Y-114376650D01*
X105798350Y-114254660D01*
X105798349Y-114254659D01*
X105739402Y-114218300D01*
X105692678Y-114166352D01*
X105680500Y-114112762D01*
X105680500Y-112772596D01*
X105700185Y-112705557D01*
X105731614Y-112672278D01*
X105735403Y-112669524D01*
X105735405Y-112669524D01*
X105894646Y-112553828D01*
X106033828Y-112414646D01*
X106149524Y-112255405D01*
X106224515Y-112108226D01*
X106272489Y-112057430D01*
X106340310Y-112040635D01*
X106406445Y-112063172D01*
X106445485Y-112108226D01*
X106520476Y-112255405D01*
X106636172Y-112414646D01*
X106775354Y-112553828D01*
X106934595Y-112669524D01*
X106994575Y-112700085D01*
X107109970Y-112758882D01*
X107109972Y-112758882D01*
X107109975Y-112758884D01*
X107165161Y-112776815D01*
X107297173Y-112819709D01*
X107491578Y-112850500D01*
X107491583Y-112850500D01*
X107688422Y-112850500D01*
X107882826Y-112819709D01*
X108070025Y-112758884D01*
X108245405Y-112669524D01*
X108404646Y-112553828D01*
X108543828Y-112414646D01*
X108659524Y-112255405D01*
X108734515Y-112108226D01*
X108782489Y-112057430D01*
X108850310Y-112040635D01*
X108916445Y-112063172D01*
X108955485Y-112108226D01*
X109030476Y-112255405D01*
X109146172Y-112414646D01*
X109285354Y-112553828D01*
X109444594Y-112669523D01*
X109448386Y-112672278D01*
X109491051Y-112727608D01*
X109499500Y-112772596D01*
X109499500Y-114125098D01*
X109479815Y-114192137D01*
X109440598Y-114230636D01*
X109401650Y-114254659D01*
X109279661Y-114376648D01*
X109189093Y-114523481D01*
X109189091Y-114523486D01*
X109179134Y-114553535D01*
X109134826Y-114687247D01*
X109134826Y-114687248D01*
X109134825Y-114687248D01*
X109124500Y-114788315D01*
X109124500Y-115386669D01*
X109124501Y-115386687D01*
X109134825Y-115487752D01*
X109170970Y-115596828D01*
X109189092Y-115651516D01*
X109272897Y-115787386D01*
X109279661Y-115798351D01*
X109393629Y-115912319D01*
X109427114Y-115973642D01*
X109422130Y-116043334D01*
X109393629Y-116087681D01*
X109279661Y-116201648D01*
X109189093Y-116348481D01*
X109189091Y-116348486D01*
X109180626Y-116374033D01*
X109134826Y-116512247D01*
X109134826Y-116512248D01*
X109134825Y-116512248D01*
X109124500Y-116613315D01*
X109124500Y-117211669D01*
X109124501Y-117211687D01*
X109134825Y-117312752D01*
X109166850Y-117409394D01*
X109189092Y-117476516D01*
X109279660Y-117623350D01*
X109401650Y-117745340D01*
X109440597Y-117769362D01*
X109447419Y-117776947D01*
X109456703Y-117781187D01*
X109470390Y-117802485D01*
X109487320Y-117821307D01*
X109489964Y-117832943D01*
X109494477Y-117839965D01*
X109499500Y-117874900D01*
X109499500Y-117920234D01*
X109479815Y-117987273D01*
X109478602Y-117989125D01*
X109390609Y-118120814D01*
X109390602Y-118120827D01*
X109330264Y-118266498D01*
X109330261Y-118266510D01*
X109299500Y-118421153D01*
X109299500Y-118578846D01*
X109330261Y-118733489D01*
X109330264Y-118733501D01*
X109390602Y-118879172D01*
X109390609Y-118879185D01*
X109478210Y-119010288D01*
X109478213Y-119010292D01*
X109589707Y-119121786D01*
X109589711Y-119121789D01*
X109720814Y-119209390D01*
X109720827Y-119209397D01*
X109866498Y-119269735D01*
X109866503Y-119269737D01*
X110021153Y-119300499D01*
X110021156Y-119300500D01*
X110021158Y-119300500D01*
X110178844Y-119300500D01*
X110178845Y-119300499D01*
X110333497Y-119269737D01*
X110479179Y-119209394D01*
X110610289Y-119121789D01*
X110721789Y-119010289D01*
X110809394Y-118879179D01*
X110869737Y-118733497D01*
X110900500Y-118578842D01*
X110900500Y-118421158D01*
X110900500Y-118421155D01*
X110900499Y-118421153D01*
X110876892Y-118302473D01*
X110869737Y-118266503D01*
X110815654Y-118135934D01*
X110809397Y-118120827D01*
X110809390Y-118120814D01*
X110721398Y-117989125D01*
X110715747Y-117971078D01*
X110705523Y-117955169D01*
X110701071Y-117924207D01*
X110700520Y-117922447D01*
X110700500Y-117920234D01*
X110700500Y-117874900D01*
X110720185Y-117807861D01*
X110759401Y-117769363D01*
X110798350Y-117745340D01*
X110920340Y-117623350D01*
X111010908Y-117476516D01*
X111065174Y-117312753D01*
X111075500Y-117211677D01*
X111075499Y-116613324D01*
X111071046Y-116569735D01*
X111065174Y-116512247D01*
X111050014Y-116466498D01*
X111010908Y-116348484D01*
X110920340Y-116201650D01*
X110806371Y-116087681D01*
X110772886Y-116026358D01*
X110777870Y-115956666D01*
X110806371Y-115912319D01*
X110839848Y-115878842D01*
X110920340Y-115798350D01*
X111010908Y-115651516D01*
X111065174Y-115487753D01*
X111075500Y-115386677D01*
X111075499Y-114788324D01*
X111074458Y-114778137D01*
X111065174Y-114687247D01*
X111058291Y-114666475D01*
X111010908Y-114523484D01*
X110920340Y-114376650D01*
X110798350Y-114254660D01*
X110798349Y-114254659D01*
X110759402Y-114230636D01*
X110712678Y-114178687D01*
X110700500Y-114125098D01*
X110700500Y-112772596D01*
X110720185Y-112705557D01*
X110751614Y-112672278D01*
X110755403Y-112669524D01*
X110755405Y-112669524D01*
X110914646Y-112553828D01*
X111053828Y-112414646D01*
X111169524Y-112255405D01*
X111244515Y-112108226D01*
X111292489Y-112057430D01*
X111360310Y-112040635D01*
X111426445Y-112063172D01*
X111465485Y-112108226D01*
X111540476Y-112255405D01*
X111656172Y-112414646D01*
X111795354Y-112553828D01*
X111954595Y-112669524D01*
X112014575Y-112700085D01*
X112129970Y-112758882D01*
X112129972Y-112758882D01*
X112129975Y-112758884D01*
X112185161Y-112776815D01*
X112317173Y-112819709D01*
X112511578Y-112850500D01*
X112511583Y-112850500D01*
X112708422Y-112850500D01*
X112902826Y-112819709D01*
X113090025Y-112758884D01*
X113265405Y-112669524D01*
X113424646Y-112553828D01*
X113563828Y-112414646D01*
X113679524Y-112255405D01*
X113754515Y-112108226D01*
X113802489Y-112057430D01*
X113870310Y-112040635D01*
X113936445Y-112063172D01*
X113975485Y-112108226D01*
X114050476Y-112255405D01*
X114166172Y-112414646D01*
X114305354Y-112553828D01*
X114464594Y-112669523D01*
X114468386Y-112672278D01*
X114511051Y-112727608D01*
X114519500Y-112772596D01*
X114519500Y-114112762D01*
X114499815Y-114179801D01*
X114460598Y-114218300D01*
X114401650Y-114254659D01*
X114279661Y-114376648D01*
X114189093Y-114523481D01*
X114189091Y-114523486D01*
X114179134Y-114553535D01*
X114134826Y-114687247D01*
X114134826Y-114687248D01*
X114134825Y-114687248D01*
X114124500Y-114788315D01*
X114124500Y-115386669D01*
X114124501Y-115386687D01*
X114134825Y-115487752D01*
X114170970Y-115596828D01*
X114189092Y-115651516D01*
X114272897Y-115787386D01*
X114279661Y-115798351D01*
X114393629Y-115912319D01*
X114427114Y-115973642D01*
X114422130Y-116043334D01*
X114393629Y-116087681D01*
X114279661Y-116201648D01*
X114189093Y-116348481D01*
X114189091Y-116348486D01*
X114180626Y-116374033D01*
X114134826Y-116512247D01*
X114134826Y-116512248D01*
X114134825Y-116512248D01*
X114124500Y-116613315D01*
X114124500Y-117211669D01*
X114124501Y-117211687D01*
X114134825Y-117312752D01*
X114166850Y-117409394D01*
X114189092Y-117476516D01*
X114279660Y-117623350D01*
X114401650Y-117745340D01*
X114548484Y-117835908D01*
X114712247Y-117890174D01*
X114813323Y-117900500D01*
X115187401Y-117900499D01*
X115254440Y-117920183D01*
X115275082Y-117936818D01*
X116218784Y-118880520D01*
X116218786Y-118880521D01*
X116218790Y-118880524D01*
X116257466Y-118902853D01*
X116355716Y-118959577D01*
X116508443Y-119000501D01*
X116508445Y-119000501D01*
X116674154Y-119000501D01*
X116674170Y-119000500D01*
X130379055Y-119000500D01*
X130379057Y-119000500D01*
X130531784Y-118959577D01*
X130668716Y-118880520D01*
X130780520Y-118768716D01*
X130859577Y-118631784D01*
X130900500Y-118479057D01*
X130900500Y-111720943D01*
X130859577Y-111568216D01*
X130821107Y-111501583D01*
X130780524Y-111431290D01*
X130780521Y-111431286D01*
X130780520Y-111431284D01*
X130668716Y-111319480D01*
X130668715Y-111319479D01*
X130664385Y-111315149D01*
X130664374Y-111315139D01*
X128036819Y-108687584D01*
X128003334Y-108626261D01*
X128000500Y-108599903D01*
X128000500Y-106810709D01*
X128020185Y-106743670D01*
X128072989Y-106697915D01*
X128142147Y-106687971D01*
X128167830Y-106694526D01*
X128278904Y-106735954D01*
X128338514Y-106742363D01*
X128399387Y-106742362D01*
X128466425Y-106762046D01*
X128512181Y-106814849D01*
X128523387Y-106866362D01*
X128523387Y-108330501D01*
X128523386Y-108330519D01*
X128523386Y-108496225D01*
X128523385Y-108496225D01*
X128523386Y-108496228D01*
X128564310Y-108648956D01*
X128586612Y-108687584D01*
X128593245Y-108699071D01*
X128593246Y-108699075D01*
X128593247Y-108699075D01*
X128643366Y-108785885D01*
X128643368Y-108785888D01*
X128762236Y-108904756D01*
X128762242Y-108904761D01*
X146345300Y-126487819D01*
X146378785Y-126549142D01*
X146373801Y-126618834D01*
X146331929Y-126674767D01*
X146266465Y-126699184D01*
X146257619Y-126699500D01*
X143036300Y-126699500D01*
X142969261Y-126679815D01*
X142925815Y-126631795D01*
X142919211Y-126618834D01*
X142838870Y-126461155D01*
X142779661Y-126379660D01*
X142690798Y-126257350D01*
X142690794Y-126257345D01*
X142512654Y-126079205D01*
X142512649Y-126079201D01*
X142308848Y-125931132D01*
X142308847Y-125931131D01*
X142308845Y-125931130D01*
X142238747Y-125895413D01*
X142084383Y-125816760D01*
X141844785Y-125738910D01*
X141595962Y-125699500D01*
X141344038Y-125699500D01*
X141219626Y-125719205D01*
X141095214Y-125738910D01*
X140855616Y-125816760D01*
X140631151Y-125931132D01*
X140427350Y-126079201D01*
X140427345Y-126079205D01*
X140249205Y-126257345D01*
X140249201Y-126257350D01*
X140101132Y-126461151D01*
X139986760Y-126685616D01*
X139908910Y-126925214D01*
X139869500Y-127174038D01*
X139869500Y-127425961D01*
X139908910Y-127674785D01*
X139986760Y-127914383D01*
X140053486Y-128045338D01*
X140100995Y-128138581D01*
X140101132Y-128138848D01*
X140249201Y-128342649D01*
X140249205Y-128342654D01*
X140427345Y-128520794D01*
X140427350Y-128520798D01*
X140528449Y-128594250D01*
X140631155Y-128668870D01*
X140774184Y-128741747D01*
X140855616Y-128783239D01*
X140855618Y-128783239D01*
X140855621Y-128783241D01*
X141095215Y-128861090D01*
X141344038Y-128900500D01*
X141344039Y-128900500D01*
X141595961Y-128900500D01*
X141595962Y-128900500D01*
X141844785Y-128861090D01*
X142084379Y-128783241D01*
X142308845Y-128668870D01*
X142512656Y-128520793D01*
X142690793Y-128342656D01*
X142838870Y-128138845D01*
X142925815Y-127968204D01*
X142973789Y-127917409D01*
X143036300Y-127900500D01*
X152105448Y-127900500D01*
X152172487Y-127920185D01*
X152193129Y-127936819D01*
X152301650Y-128045340D01*
X152448484Y-128135908D01*
X152612247Y-128190174D01*
X152713323Y-128200500D01*
X153286676Y-128200499D01*
X153286684Y-128200498D01*
X153286687Y-128200498D01*
X153342030Y-128194844D01*
X153387753Y-128190174D01*
X153551516Y-128135908D01*
X153698350Y-128045340D01*
X153820340Y-127923350D01*
X153910908Y-127776516D01*
X153965174Y-127612753D01*
X153975500Y-127511677D01*
X153975499Y-126913324D01*
X153965174Y-126812247D01*
X153910908Y-126648484D01*
X153820340Y-126501650D01*
X153706017Y-126387327D01*
X153672532Y-126326004D01*
X153677516Y-126256312D01*
X153706017Y-126211964D01*
X153819948Y-126098033D01*
X153910448Y-125951311D01*
X153910453Y-125951300D01*
X153964680Y-125787652D01*
X153974999Y-125686654D01*
X153975000Y-125686641D01*
X153975000Y-125637500D01*
X152025001Y-125637500D01*
X152025001Y-125686654D01*
X152035319Y-125787652D01*
X152089546Y-125951300D01*
X152089551Y-125951311D01*
X152180052Y-126098034D01*
X152180055Y-126098038D01*
X152293982Y-126211965D01*
X152296235Y-126216092D01*
X152300186Y-126218643D01*
X152312821Y-126246466D01*
X152327467Y-126273288D01*
X152327131Y-126277978D01*
X152329076Y-126282260D01*
X152324662Y-126312499D01*
X152322483Y-126342980D01*
X152319476Y-126348034D01*
X152318986Y-126351397D01*
X152308598Y-126366324D01*
X152299841Y-126381048D01*
X152297017Y-126384292D01*
X152179660Y-126501650D01*
X152142595Y-126561741D01*
X152135929Y-126569402D01*
X152114707Y-126582976D01*
X152095980Y-126599821D01*
X152084182Y-126602502D01*
X152077071Y-126607051D01*
X152064285Y-126607023D01*
X152042389Y-126612000D01*
X148219313Y-126612000D01*
X148152274Y-126592315D01*
X148131632Y-126575681D01*
X146644296Y-125088345D01*
X152025000Y-125088345D01*
X152025000Y-125137500D01*
X152750000Y-125137500D01*
X153250000Y-125137500D01*
X153974999Y-125137500D01*
X153974999Y-125088360D01*
X153974998Y-125088345D01*
X153964680Y-124987347D01*
X153910453Y-124823699D01*
X153910448Y-124823688D01*
X153819947Y-124676965D01*
X153819944Y-124676961D01*
X153698038Y-124555055D01*
X153698034Y-124555052D01*
X153551311Y-124464551D01*
X153551300Y-124464546D01*
X153387652Y-124410319D01*
X153286654Y-124400000D01*
X153250000Y-124400000D01*
X153250000Y-125137500D01*
X152750000Y-125137500D01*
X152750000Y-124400000D01*
X152713361Y-124400000D01*
X152713343Y-124400001D01*
X152612347Y-124410319D01*
X152448699Y-124464546D01*
X152448688Y-124464551D01*
X152301965Y-124555052D01*
X152301961Y-124555055D01*
X152180055Y-124676961D01*
X152180052Y-124676965D01*
X152089551Y-124823688D01*
X152089546Y-124823699D01*
X152035319Y-124987347D01*
X152025000Y-125088345D01*
X146644296Y-125088345D01*
X137277104Y-115721153D01*
X141099500Y-115721153D01*
X141099500Y-115878846D01*
X141130261Y-116033489D01*
X141130264Y-116033501D01*
X141190602Y-116179172D01*
X141190609Y-116179185D01*
X141278210Y-116310288D01*
X141278213Y-116310292D01*
X141389707Y-116421786D01*
X141389711Y-116421789D01*
X141520814Y-116509390D01*
X141520827Y-116509397D01*
X141654574Y-116564796D01*
X141666503Y-116569737D01*
X141731147Y-116582595D01*
X141821849Y-116600638D01*
X141883760Y-116633023D01*
X141885338Y-116634573D01*
X144265421Y-119014657D01*
X144265423Y-119014658D01*
X144265427Y-119014661D01*
X144402346Y-119093710D01*
X144402353Y-119093714D01*
X144555080Y-119134638D01*
X144555082Y-119134638D01*
X144720791Y-119134638D01*
X144720807Y-119134637D01*
X152342944Y-119134637D01*
X152342960Y-119134638D01*
X152350556Y-119134638D01*
X152508667Y-119134638D01*
X152508670Y-119134638D01*
X152661398Y-119093714D01*
X152711517Y-119064776D01*
X152798329Y-119014657D01*
X152910133Y-118902853D01*
X152910134Y-118902850D01*
X153043031Y-118769952D01*
X153104352Y-118736470D01*
X153130710Y-118733636D01*
X153843115Y-118733636D01*
X153843121Y-118733636D01*
X153945910Y-118723136D01*
X154112447Y-118667951D01*
X154261769Y-118575849D01*
X154385825Y-118451793D01*
X154477927Y-118302471D01*
X154533112Y-118135934D01*
X154543613Y-118033146D01*
X154543612Y-116983129D01*
X154538542Y-116933501D01*
X154533112Y-116880340D01*
X154532616Y-116878842D01*
X154492962Y-116759178D01*
X154490561Y-116689352D01*
X154522986Y-116632497D01*
X154905529Y-116249956D01*
X154966852Y-116216471D01*
X154993210Y-116213637D01*
X155783799Y-116213637D01*
X155783807Y-116213637D01*
X155820682Y-116210735D01*
X155820684Y-116210734D01*
X155820686Y-116210734D01*
X155893060Y-116189707D01*
X155978511Y-116164881D01*
X156119978Y-116081218D01*
X156236194Y-115965002D01*
X156319857Y-115823535D01*
X156365711Y-115665706D01*
X156368613Y-115628831D01*
X156368613Y-115516433D01*
X156388298Y-115449394D01*
X156441102Y-115403639D01*
X156510260Y-115393695D01*
X156524767Y-115397113D01*
X156530358Y-115398310D01*
X156530360Y-115398311D01*
X156631436Y-115408637D01*
X157204789Y-115408636D01*
X157204797Y-115408635D01*
X157204800Y-115408635D01*
X157260143Y-115402981D01*
X157305866Y-115398311D01*
X157469629Y-115344045D01*
X157616463Y-115253477D01*
X157738453Y-115131487D01*
X157739346Y-115130038D01*
X157740217Y-115129254D01*
X157742934Y-115125820D01*
X157743520Y-115126284D01*
X157791293Y-115083316D01*
X157844884Y-115071137D01*
X159942976Y-115071137D01*
X160027520Y-115054319D01*
X160068649Y-115046138D01*
X160187032Y-114997102D01*
X160197386Y-114990183D01*
X160199993Y-114988442D01*
X160246782Y-114957178D01*
X160293574Y-114925914D01*
X167649390Y-107570098D01*
X167720578Y-107463556D01*
X167743740Y-107407637D01*
X167769614Y-107345173D01*
X167794613Y-107219498D01*
X167794613Y-105770068D01*
X167794613Y-105770065D01*
X167769615Y-105644398D01*
X167769614Y-105644397D01*
X167769614Y-105644393D01*
X167720578Y-105526010D01*
X167720577Y-105526009D01*
X167720574Y-105526003D01*
X167649390Y-105419469D01*
X167609965Y-105380044D01*
X167558782Y-105328861D01*
X167371725Y-105141804D01*
X167178370Y-104948448D01*
X167144885Y-104887125D01*
X167148119Y-104822451D01*
X167166515Y-104765838D01*
X167193613Y-104594748D01*
X167193613Y-104421526D01*
X167166515Y-104250436D01*
X167112986Y-104085692D01*
X167034345Y-103931349D01*
X166932527Y-103791209D01*
X166810041Y-103668723D01*
X166734785Y-103614046D01*
X166726663Y-103608145D01*
X166683998Y-103552814D01*
X166678019Y-103483201D01*
X166710625Y-103421406D01*
X166726665Y-103407508D01*
X166809711Y-103347173D01*
X166932145Y-103224739D01*
X167033917Y-103084661D01*
X167112521Y-102930392D01*
X167166027Y-102765721D01*
X167167228Y-102758137D01*
X166098443Y-102758137D01*
X166118188Y-102738392D01*
X166167557Y-102652882D01*
X166193113Y-102557507D01*
X166193113Y-102458767D01*
X166167557Y-102363392D01*
X166118188Y-102277882D01*
X166098443Y-102258137D01*
X167167228Y-102258137D01*
X167167228Y-102258136D01*
X167166027Y-102250552D01*
X167112521Y-102085881D01*
X167033917Y-101931612D01*
X166932145Y-101791534D01*
X166809715Y-101669104D01*
X166669637Y-101567332D01*
X166515370Y-101488728D01*
X166350697Y-101435222D01*
X166179684Y-101408137D01*
X166068113Y-101408137D01*
X166068113Y-102227807D01*
X166048368Y-102208062D01*
X165962858Y-102158693D01*
X165867483Y-102133137D01*
X165768743Y-102133137D01*
X165673368Y-102158693D01*
X165587858Y-102208062D01*
X165568113Y-102227807D01*
X165568113Y-101408137D01*
X165456542Y-101408137D01*
X165285528Y-101435222D01*
X165120855Y-101488728D01*
X164966588Y-101567332D01*
X164826510Y-101669104D01*
X164704080Y-101791534D01*
X164602308Y-101931612D01*
X164523704Y-102085881D01*
X164470198Y-102250552D01*
X164468997Y-102258136D01*
X164468998Y-102258137D01*
X165537783Y-102258137D01*
X165518038Y-102277882D01*
X165468669Y-102363392D01*
X165443113Y-102458767D01*
X165443113Y-102557507D01*
X165468669Y-102652882D01*
X165518038Y-102738392D01*
X165537783Y-102758137D01*
X164468998Y-102758137D01*
X164470198Y-102765721D01*
X164523704Y-102930392D01*
X164602308Y-103084661D01*
X164704080Y-103224739D01*
X164826514Y-103347173D01*
X164909560Y-103407508D01*
X164952227Y-103462838D01*
X164958206Y-103532451D01*
X164925601Y-103594246D01*
X164909563Y-103608144D01*
X164826185Y-103668722D01*
X164703701Y-103791206D01*
X164703701Y-103791207D01*
X164703699Y-103791209D01*
X164667696Y-103840763D01*
X164601881Y-103931348D01*
X164523241Y-104085689D01*
X164469710Y-104250439D01*
X164442613Y-104421526D01*
X164442613Y-104594747D01*
X164459640Y-104702256D01*
X164469711Y-104765838D01*
X164523240Y-104930582D01*
X164601881Y-105084925D01*
X164703699Y-105225065D01*
X164703701Y-105225067D01*
X164811240Y-105332606D01*
X164844725Y-105393929D01*
X164839741Y-105463621D01*
X164797869Y-105519554D01*
X164788657Y-105525825D01*
X164724457Y-105565424D01*
X164600402Y-105689479D01*
X164533014Y-105798734D01*
X164481066Y-105845458D01*
X164427475Y-105857637D01*
X163354042Y-105857637D01*
X163228374Y-105882634D01*
X163228368Y-105882636D01*
X163109987Y-105931671D01*
X163003439Y-106002863D01*
X157421487Y-111584815D01*
X157360164Y-111618300D01*
X157312627Y-111618380D01*
X157312600Y-111618651D01*
X157309999Y-111618385D01*
X157307858Y-111618389D01*
X157305868Y-111617963D01*
X157204791Y-111607637D01*
X156631443Y-111607637D01*
X156631425Y-111607638D01*
X156530360Y-111617962D01*
X156366597Y-111672229D01*
X156366594Y-111672230D01*
X156219761Y-111762798D01*
X156165742Y-111816818D01*
X156104419Y-111850303D01*
X156078061Y-111853137D01*
X153420818Y-111853137D01*
X153420817Y-111853138D01*
X153421012Y-111855623D01*
X153466831Y-112013335D01*
X153550427Y-112154689D01*
X153555213Y-112160859D01*
X153552753Y-112162766D01*
X153579323Y-112211425D01*
X153574339Y-112281117D01*
X153553275Y-112313918D01*
X153554812Y-112315111D01*
X153550028Y-112321277D01*
X153466368Y-112462740D01*
X153466367Y-112462743D01*
X153420515Y-112620563D01*
X153420514Y-112620569D01*
X153417613Y-112657435D01*
X153417613Y-113088838D01*
X153420514Y-113125704D01*
X153420515Y-113125710D01*
X153466367Y-113283530D01*
X153466368Y-113283533D01*
X153550030Y-113424999D01*
X153554815Y-113431168D01*
X153552369Y-113433064D01*
X153578970Y-113481779D01*
X153573986Y-113551471D01*
X153553182Y-113583840D01*
X153554815Y-113585106D01*
X153550030Y-113591274D01*
X153466368Y-113732740D01*
X153466367Y-113732743D01*
X153420515Y-113890563D01*
X153420514Y-113890569D01*
X153417613Y-113927435D01*
X153417613Y-114358838D01*
X153420514Y-114395704D01*
X153420515Y-114395710D01*
X153466367Y-114553530D01*
X153466368Y-114553533D01*
X153466369Y-114553535D01*
X153486943Y-114588324D01*
X153550030Y-114694999D01*
X153554815Y-114701168D01*
X153552369Y-114703064D01*
X153578970Y-114751779D01*
X153573986Y-114821471D01*
X153553182Y-114853840D01*
X153554815Y-114855106D01*
X153550030Y-114861274D01*
X153466368Y-115002740D01*
X153466367Y-115002743D01*
X153420515Y-115160563D01*
X153420514Y-115160569D01*
X153417613Y-115197435D01*
X153417613Y-115628838D01*
X153420514Y-115665704D01*
X153420515Y-115665710D01*
X153466367Y-115823531D01*
X153466369Y-115823537D01*
X153479509Y-115845755D01*
X153496690Y-115913479D01*
X153474530Y-115979742D01*
X153460457Y-115996556D01*
X153210695Y-116246318D01*
X153149372Y-116279803D01*
X153123016Y-116282637D01*
X153068112Y-116282637D01*
X153068093Y-116282638D01*
X152965316Y-116293137D01*
X152965313Y-116293138D01*
X152798781Y-116348322D01*
X152798776Y-116348324D01*
X152649455Y-116440426D01*
X152525401Y-116564480D01*
X152525396Y-116564486D01*
X152523354Y-116567798D01*
X152521360Y-116569590D01*
X152520920Y-116570148D01*
X152520824Y-116570072D01*
X152471404Y-116614520D01*
X152402441Y-116625739D01*
X152338360Y-116597892D01*
X152312281Y-116567793D01*
X152310432Y-116564796D01*
X152310429Y-116564792D01*
X152186458Y-116440821D01*
X152037237Y-116348780D01*
X152037232Y-116348778D01*
X151870810Y-116293631D01*
X151870803Y-116293630D01*
X151768099Y-116283137D01*
X151630613Y-116283137D01*
X151630613Y-117384137D01*
X151610928Y-117451176D01*
X151558124Y-117496931D01*
X151506613Y-117508137D01*
X151380613Y-117508137D01*
X151380613Y-117634137D01*
X151360928Y-117701176D01*
X151308124Y-117746931D01*
X151256613Y-117758137D01*
X150293114Y-117758137D01*
X150293114Y-117809637D01*
X150273429Y-117876676D01*
X150220625Y-117922431D01*
X150169114Y-117933637D01*
X144934235Y-117933637D01*
X144867196Y-117913952D01*
X144846554Y-117897318D01*
X142734573Y-115785337D01*
X142701088Y-115724014D01*
X142700637Y-115721847D01*
X142698742Y-115712319D01*
X142669737Y-115566503D01*
X142669735Y-115566498D01*
X142609397Y-115420827D01*
X142609390Y-115420814D01*
X142521789Y-115289711D01*
X142521786Y-115289707D01*
X142410292Y-115178213D01*
X142410288Y-115178210D01*
X142279185Y-115090609D01*
X142279172Y-115090602D01*
X142133501Y-115030264D01*
X142133489Y-115030261D01*
X141978845Y-114999500D01*
X141978842Y-114999500D01*
X141821158Y-114999500D01*
X141821155Y-114999500D01*
X141666510Y-115030261D01*
X141666498Y-115030264D01*
X141520827Y-115090602D01*
X141520814Y-115090609D01*
X141389711Y-115178210D01*
X141389707Y-115178213D01*
X141278213Y-115289707D01*
X141278210Y-115289711D01*
X141190609Y-115420814D01*
X141190602Y-115420827D01*
X141130264Y-115566498D01*
X141130261Y-115566510D01*
X141099500Y-115721153D01*
X137277104Y-115721153D01*
X134077104Y-112521153D01*
X145599500Y-112521153D01*
X145599500Y-112678846D01*
X145630261Y-112833489D01*
X145630264Y-112833501D01*
X145690602Y-112979172D01*
X145690609Y-112979185D01*
X145778210Y-113110288D01*
X145778213Y-113110292D01*
X145889707Y-113221786D01*
X145889711Y-113221789D01*
X146020814Y-113309390D01*
X146020827Y-113309397D01*
X146160199Y-113367126D01*
X146166503Y-113369737D01*
X146231147Y-113382595D01*
X146321849Y-113400638D01*
X146383760Y-113433023D01*
X146385339Y-113434574D01*
X147462615Y-114511850D01*
X147462617Y-114511853D01*
X147486230Y-114535466D01*
X147495179Y-114551856D01*
X147519712Y-114596784D01*
X147519711Y-114596785D01*
X147519713Y-114596788D01*
X147517523Y-114627392D01*
X147514729Y-114666475D01*
X147514727Y-114666477D01*
X147514727Y-114666480D01*
X147496778Y-114690456D01*
X147472858Y-114722410D01*
X147467437Y-114726246D01*
X147344078Y-114808672D01*
X147344074Y-114808675D01*
X147218651Y-114934098D01*
X147218648Y-114934102D01*
X147120103Y-115081583D01*
X147120096Y-115081596D01*
X147052219Y-115245469D01*
X147052216Y-115245478D01*
X147017613Y-115419441D01*
X147017613Y-115596832D01*
X147052216Y-115770795D01*
X147052219Y-115770804D01*
X147120096Y-115934677D01*
X147120103Y-115934690D01*
X147218648Y-116082171D01*
X147218651Y-116082175D01*
X147344074Y-116207598D01*
X147344078Y-116207601D01*
X147491559Y-116306146D01*
X147491572Y-116306153D01*
X147593379Y-116348322D01*
X147655447Y-116374031D01*
X147655449Y-116374031D01*
X147655454Y-116374033D01*
X147829417Y-116408636D01*
X147829420Y-116408637D01*
X147829422Y-116408637D01*
X148006806Y-116408637D01*
X148006807Y-116408636D01*
X148064795Y-116397101D01*
X148180771Y-116374033D01*
X148180774Y-116374031D01*
X148180779Y-116374031D01*
X148334660Y-116310292D01*
X148344653Y-116306153D01*
X148344653Y-116306152D01*
X148344660Y-116306150D01*
X148492148Y-116207601D01*
X148498101Y-116201648D01*
X148504794Y-116194956D01*
X148531721Y-116180252D01*
X148557540Y-116163660D01*
X148563740Y-116162768D01*
X148566117Y-116161471D01*
X148592475Y-116158637D01*
X148818574Y-116158637D01*
X148853169Y-116163561D01*
X149015539Y-116210734D01*
X149015542Y-116210734D01*
X149015544Y-116210735D01*
X149052419Y-116213637D01*
X149052427Y-116213637D01*
X150505853Y-116213637D01*
X150572892Y-116233322D01*
X150618647Y-116286126D01*
X150628591Y-116355284D01*
X150599566Y-116418840D01*
X150579854Y-116435603D01*
X150580436Y-116436339D01*
X150574768Y-116440820D01*
X150450797Y-116564791D01*
X150358756Y-116714012D01*
X150358754Y-116714017D01*
X150303607Y-116880439D01*
X150303606Y-116880446D01*
X150293113Y-116983150D01*
X150293113Y-117258137D01*
X151130613Y-117258137D01*
X151130613Y-116282483D01*
X151097913Y-116222601D01*
X151102897Y-116152909D01*
X151144767Y-116096975D01*
X151155960Y-116089508D01*
X151169978Y-116081218D01*
X151286194Y-115965002D01*
X151369857Y-115823535D01*
X151415711Y-115665706D01*
X151418613Y-115628831D01*
X151418613Y-115197443D01*
X151415711Y-115160568D01*
X151407262Y-115131488D01*
X151377854Y-115030264D01*
X151369857Y-115002739D01*
X151286194Y-114861272D01*
X151286191Y-114861269D01*
X151281411Y-114855106D01*
X151283863Y-114853203D01*
X151257268Y-114804558D01*
X151262217Y-114734863D01*
X151283053Y-114702441D01*
X151281411Y-114701168D01*
X151286188Y-114695007D01*
X151286194Y-114695002D01*
X151369857Y-114553535D01*
X151415711Y-114395706D01*
X151418613Y-114358831D01*
X151418613Y-113927443D01*
X151415711Y-113890568D01*
X151414991Y-113888090D01*
X151369858Y-113732743D01*
X151369857Y-113732740D01*
X151369857Y-113732739D01*
X151286194Y-113591272D01*
X151286191Y-113591269D01*
X151281411Y-113585106D01*
X151283748Y-113583292D01*
X151256911Y-113534187D01*
X151261869Y-113464493D01*
X151282667Y-113432135D01*
X151281016Y-113430854D01*
X151285799Y-113424687D01*
X151369394Y-113283335D01*
X151415213Y-113125623D01*
X151415408Y-113123138D01*
X151415408Y-113123137D01*
X148470818Y-113123137D01*
X148470817Y-113123138D01*
X148471012Y-113125623D01*
X148516831Y-113283335D01*
X148559519Y-113355516D01*
X148561174Y-113362040D01*
X148565581Y-113367126D01*
X148569656Y-113395472D01*
X148576702Y-113423240D01*
X148574567Y-113429623D01*
X148575525Y-113436284D01*
X148563626Y-113462338D01*
X148554542Y-113489502D01*
X148549296Y-113493716D01*
X148546500Y-113499840D01*
X148522402Y-113515326D01*
X148500076Y-113533266D01*
X148491996Y-113534867D01*
X148487722Y-113537614D01*
X148452787Y-113542637D01*
X148243234Y-113542637D01*
X148176195Y-113522952D01*
X148155553Y-113506318D01*
X147234574Y-112585339D01*
X147201089Y-112524016D01*
X147200638Y-112521849D01*
X147179314Y-112414648D01*
X147169737Y-112366503D01*
X147138694Y-112291557D01*
X147109397Y-112220827D01*
X147109390Y-112220814D01*
X147021789Y-112089711D01*
X147021786Y-112089707D01*
X146910292Y-111978213D01*
X146910288Y-111978210D01*
X146779185Y-111890609D01*
X146779172Y-111890602D01*
X146633501Y-111830264D01*
X146633489Y-111830261D01*
X146478845Y-111799500D01*
X146478842Y-111799500D01*
X146321158Y-111799500D01*
X146321155Y-111799500D01*
X146166510Y-111830261D01*
X146166498Y-111830264D01*
X146020827Y-111890602D01*
X146020814Y-111890609D01*
X145889711Y-111978210D01*
X145889707Y-111978213D01*
X145778213Y-112089707D01*
X145778210Y-112089711D01*
X145690609Y-112220814D01*
X145690602Y-112220827D01*
X145630264Y-112366498D01*
X145630261Y-112366510D01*
X145599500Y-112521153D01*
X134077104Y-112521153D01*
X133400551Y-111844600D01*
X133367066Y-111783277D01*
X133368456Y-111724829D01*
X133400501Y-111605241D01*
X133400501Y-111447127D01*
X133400501Y-111439532D01*
X133400500Y-111439514D01*
X133400500Y-109681664D01*
X133400501Y-109681651D01*
X133400501Y-109513548D01*
X133400501Y-109513547D01*
X133362882Y-109373154D01*
X133364545Y-109303308D01*
X133403707Y-109245445D01*
X133443653Y-109223357D01*
X133612232Y-109167495D01*
X133612237Y-109167493D01*
X133761458Y-109075452D01*
X133885428Y-108951482D01*
X133977469Y-108802261D01*
X133977471Y-108802256D01*
X134032618Y-108635834D01*
X134032619Y-108635827D01*
X134043112Y-108533123D01*
X134043113Y-108533110D01*
X134043113Y-108258137D01*
X133079613Y-108258137D01*
X133012574Y-108238452D01*
X132966819Y-108185648D01*
X132955613Y-108134137D01*
X132955613Y-108008137D01*
X132829613Y-108008137D01*
X132762574Y-107988452D01*
X132716819Y-107935648D01*
X132705613Y-107884137D01*
X132705613Y-106783137D01*
X132692613Y-106783137D01*
X132625574Y-106763452D01*
X132579819Y-106710648D01*
X132568613Y-106659137D01*
X132568613Y-99357136D01*
X132588298Y-99290097D01*
X132641102Y-99244342D01*
X132692613Y-99233136D01*
X132705613Y-99233136D01*
X132705613Y-98132137D01*
X132725298Y-98065098D01*
X132778102Y-98019343D01*
X132829613Y-98008137D01*
X133081613Y-98008137D01*
X133148652Y-98027822D01*
X133194407Y-98080626D01*
X133205613Y-98132137D01*
X133205613Y-99233136D01*
X133343085Y-99233136D01*
X133343099Y-99233135D01*
X133445810Y-99222642D01*
X133612232Y-99167495D01*
X133612237Y-99167493D01*
X133761458Y-99075452D01*
X133885428Y-98951482D01*
X133977469Y-98802261D01*
X133977471Y-98802256D01*
X134032618Y-98635834D01*
X134032619Y-98635827D01*
X134043112Y-98533123D01*
X134043112Y-98504156D01*
X134062794Y-98437116D01*
X134115597Y-98391359D01*
X134184755Y-98381414D01*
X134248312Y-98410437D01*
X134254793Y-98416471D01*
X135068004Y-99229682D01*
X135101489Y-99291005D01*
X135096505Y-99360697D01*
X135054633Y-99416630D01*
X134989169Y-99441047D01*
X134980323Y-99441363D01*
X134214516Y-99441363D01*
X134214510Y-99441364D01*
X134154903Y-99447771D01*
X134020058Y-99498065D01*
X134020055Y-99498067D01*
X133917572Y-99574786D01*
X133875357Y-99595293D01*
X133830604Y-99607285D01*
X133830599Y-99607287D01*
X133693674Y-99686340D01*
X133693669Y-99686344D01*
X133480866Y-99899147D01*
X133466285Y-99924403D01*
X133460122Y-99935079D01*
X133401810Y-100036078D01*
X133360886Y-100188806D01*
X133360886Y-100188808D01*
X133360886Y-100356909D01*
X133360887Y-100356922D01*
X133360887Y-106582326D01*
X133360886Y-106582330D01*
X133360886Y-106617363D01*
X133360886Y-106659138D01*
X133341201Y-106726178D01*
X133288396Y-106771932D01*
X133288385Y-106771933D01*
X133236886Y-106783137D01*
X133205613Y-106783137D01*
X133205613Y-107758137D01*
X134047091Y-107758137D01*
X134099649Y-107729438D01*
X134169341Y-107734422D01*
X134213688Y-107762923D01*
X135515139Y-109064374D01*
X135515149Y-109064385D01*
X135519479Y-109068715D01*
X135519480Y-109068716D01*
X135631284Y-109180520D01*
X135705482Y-109223357D01*
X135718095Y-109230639D01*
X135718097Y-109230641D01*
X135756151Y-109252611D01*
X135768215Y-109259577D01*
X135920943Y-109300500D01*
X146699903Y-109300500D01*
X146766942Y-109320185D01*
X146787584Y-109336819D01*
X148215139Y-110764374D01*
X148215149Y-110764385D01*
X148219479Y-110768715D01*
X148219480Y-110768716D01*
X148331284Y-110880520D01*
X148411728Y-110926963D01*
X148437410Y-110946670D01*
X148510457Y-111019717D01*
X148543942Y-111081040D01*
X148538958Y-111150732D01*
X148529510Y-111170516D01*
X148516370Y-111192734D01*
X148516367Y-111192742D01*
X148470515Y-111350563D01*
X148470514Y-111350569D01*
X148467613Y-111387435D01*
X148467613Y-111818838D01*
X148470514Y-111855704D01*
X148470515Y-111855710D01*
X148516367Y-112013530D01*
X148516368Y-112013533D01*
X148516369Y-112013535D01*
X148527065Y-112031621D01*
X148600030Y-112154999D01*
X148604815Y-112161168D01*
X148602482Y-112162977D01*
X148629323Y-112212132D01*
X148624339Y-112281824D01*
X148603583Y-112314158D01*
X148605210Y-112315420D01*
X148600426Y-112321586D01*
X148516831Y-112462938D01*
X148471012Y-112620650D01*
X148470817Y-112623135D01*
X148470818Y-112623137D01*
X151415408Y-112623137D01*
X151415408Y-112623135D01*
X151415213Y-112620650D01*
X151369394Y-112462938D01*
X151285798Y-112321584D01*
X151281013Y-112315415D01*
X151283479Y-112313501D01*
X151256915Y-112264913D01*
X151261862Y-112195219D01*
X151282969Y-112162369D01*
X151281414Y-112161163D01*
X151286190Y-112155005D01*
X151286194Y-112155002D01*
X151369857Y-112013535D01*
X151415711Y-111855706D01*
X151418613Y-111818831D01*
X151418613Y-111387443D01*
X151415913Y-111353135D01*
X153420817Y-111353135D01*
X153420818Y-111353137D01*
X154643113Y-111353137D01*
X155143113Y-111353137D01*
X156365408Y-111353137D01*
X156365408Y-111353135D01*
X156365213Y-111350650D01*
X156319394Y-111192938D01*
X156235798Y-111051584D01*
X156235791Y-111051575D01*
X156119674Y-110935458D01*
X156119665Y-110935451D01*
X155978309Y-110851854D01*
X155978306Y-110851853D01*
X155820608Y-110806037D01*
X155820602Y-110806036D01*
X155783762Y-110803137D01*
X155143113Y-110803137D01*
X155143113Y-111353137D01*
X154643113Y-111353137D01*
X154643113Y-110803137D01*
X154002463Y-110803137D01*
X153965623Y-110806036D01*
X153965617Y-110806037D01*
X153807919Y-110851853D01*
X153807916Y-110851854D01*
X153666560Y-110935451D01*
X153666551Y-110935458D01*
X153550434Y-111051575D01*
X153550427Y-111051584D01*
X153466831Y-111192938D01*
X153421012Y-111350650D01*
X153420817Y-111353135D01*
X151415913Y-111353135D01*
X151415711Y-111350568D01*
X151406678Y-111319478D01*
X151369858Y-111192743D01*
X151369857Y-111192740D01*
X151369857Y-111192739D01*
X151286194Y-111051272D01*
X151286192Y-111051270D01*
X151286189Y-111051266D01*
X151169983Y-110935060D01*
X151169975Y-110935054D01*
X151077762Y-110880520D01*
X151028511Y-110851393D01*
X151028510Y-110851392D01*
X151028509Y-110851392D01*
X151028506Y-110851391D01*
X150870686Y-110805539D01*
X150870680Y-110805538D01*
X150833814Y-110802637D01*
X150833807Y-110802637D01*
X150043211Y-110802637D01*
X149976172Y-110782952D01*
X149955530Y-110766318D01*
X149227566Y-110038355D01*
X149227564Y-110038352D01*
X149108693Y-109919481D01*
X149108685Y-109919475D01*
X149028244Y-109873033D01*
X149002562Y-109853327D01*
X147487590Y-108338355D01*
X147487588Y-108338352D01*
X147368717Y-108219481D01*
X147368709Y-108219475D01*
X147263477Y-108158720D01*
X147263474Y-108158719D01*
X147231786Y-108140423D01*
X147231787Y-108140423D01*
X147170693Y-108124053D01*
X147079057Y-108099499D01*
X146920943Y-108099499D01*
X146913347Y-108099499D01*
X146913331Y-108099500D01*
X136300097Y-108099500D01*
X136233058Y-108079815D01*
X136212416Y-108063181D01*
X135103278Y-106954043D01*
X135069793Y-106892720D01*
X135074777Y-106823028D01*
X135116649Y-106767095D01*
X135182113Y-106742678D01*
X135190959Y-106742362D01*
X135785258Y-106742362D01*
X135785259Y-106742362D01*
X135844870Y-106735954D01*
X135979718Y-106685659D01*
X136037911Y-106642096D01*
X136103376Y-106617679D01*
X136112222Y-106617363D01*
X142439413Y-106617363D01*
X142486865Y-106626801D01*
X142503369Y-106633638D01*
X142629039Y-106658635D01*
X142629043Y-106658636D01*
X142629044Y-106658636D01*
X142757183Y-106658636D01*
X142757184Y-106658635D01*
X142882857Y-106633638D01*
X143001240Y-106584602D01*
X143107782Y-106513414D01*
X145560924Y-104060272D01*
X147167613Y-104060272D01*
X147167613Y-105456007D01*
X147167614Y-105456013D01*
X147174021Y-105515620D01*
X147224315Y-105650465D01*
X147224319Y-105650472D01*
X147310565Y-105765681D01*
X147310567Y-105765683D01*
X147425777Y-105851930D01*
X147425784Y-105851934D01*
X147560630Y-105902228D01*
X147560629Y-105902228D01*
X147567557Y-105902972D01*
X147620240Y-105908637D01*
X149265985Y-105908636D01*
X149325596Y-105902228D01*
X149460444Y-105851933D01*
X149575659Y-105765683D01*
X149661909Y-105650468D01*
X149712204Y-105515620D01*
X149718613Y-105456010D01*
X149718613Y-105455981D01*
X155118113Y-105455981D01*
X155124514Y-105515509D01*
X155124516Y-105515516D01*
X155174758Y-105650223D01*
X155174762Y-105650230D01*
X155260922Y-105765324D01*
X155260925Y-105765327D01*
X155376019Y-105851487D01*
X155376026Y-105851491D01*
X155510733Y-105901733D01*
X155510740Y-105901735D01*
X155570268Y-105908136D01*
X155570285Y-105908137D01*
X156143113Y-105908137D01*
X156643113Y-105908137D01*
X157215941Y-105908137D01*
X157215957Y-105908136D01*
X157275485Y-105901735D01*
X157275492Y-105901733D01*
X157410199Y-105851491D01*
X157410206Y-105851487D01*
X157525300Y-105765327D01*
X157525303Y-105765324D01*
X157611463Y-105650230D01*
X157611467Y-105650223D01*
X157661709Y-105515516D01*
X157661711Y-105515509D01*
X157668112Y-105455981D01*
X157668113Y-105455964D01*
X157668113Y-105008137D01*
X156643113Y-105008137D01*
X156643113Y-105908137D01*
X156143113Y-105908137D01*
X156143113Y-105008137D01*
X155118113Y-105008137D01*
X155118113Y-105455981D01*
X149718613Y-105455981D01*
X149718612Y-104710292D01*
X149718612Y-104060292D01*
X155118113Y-104060292D01*
X155118113Y-104508137D01*
X156143113Y-104508137D01*
X156643113Y-104508137D01*
X157668113Y-104508137D01*
X157668113Y-104060309D01*
X157668112Y-104060292D01*
X157661711Y-104000764D01*
X157661709Y-104000757D01*
X157611467Y-103866050D01*
X157611463Y-103866043D01*
X157525303Y-103750949D01*
X157525300Y-103750946D01*
X157410206Y-103664786D01*
X157410199Y-103664782D01*
X157275492Y-103614540D01*
X157275485Y-103614538D01*
X157215957Y-103608137D01*
X156643113Y-103608137D01*
X156643113Y-104508137D01*
X156143113Y-104508137D01*
X156143113Y-103608137D01*
X155570268Y-103608137D01*
X155510740Y-103614538D01*
X155510733Y-103614540D01*
X155376026Y-103664782D01*
X155376019Y-103664786D01*
X155260925Y-103750946D01*
X155260922Y-103750949D01*
X155174762Y-103866043D01*
X155174758Y-103866050D01*
X155124516Y-104000757D01*
X155124514Y-104000764D01*
X155118113Y-104060292D01*
X149718612Y-104060292D01*
X149718612Y-104060266D01*
X149718611Y-104060260D01*
X149718610Y-104060253D01*
X149712204Y-104000654D01*
X149708457Y-103990609D01*
X149661910Y-103865808D01*
X149661906Y-103865801D01*
X149575660Y-103750592D01*
X149575657Y-103750589D01*
X149460448Y-103664343D01*
X149460441Y-103664339D01*
X149325595Y-103614045D01*
X149325596Y-103614045D01*
X149265996Y-103607638D01*
X149265994Y-103607637D01*
X149265986Y-103607637D01*
X149265977Y-103607637D01*
X147620242Y-103607637D01*
X147620236Y-103607638D01*
X147560629Y-103614045D01*
X147425784Y-103664339D01*
X147425777Y-103664343D01*
X147310568Y-103750589D01*
X147310565Y-103750592D01*
X147224319Y-103865801D01*
X147224315Y-103865808D01*
X147174021Y-104000654D01*
X147167614Y-104060253D01*
X147167614Y-104060260D01*
X147167613Y-104060272D01*
X145560924Y-104060272D01*
X145682777Y-103938419D01*
X147413674Y-102207521D01*
X148176240Y-101444955D01*
X148237563Y-101411470D01*
X148263921Y-101408636D01*
X149265984Y-101408636D01*
X149265985Y-101408636D01*
X149325596Y-101402228D01*
X149460444Y-101351933D01*
X149575659Y-101265683D01*
X149661909Y-101150468D01*
X149712204Y-101015620D01*
X149718613Y-100956010D01*
X149718612Y-99560272D01*
X155117613Y-99560272D01*
X155117613Y-100956007D01*
X155117614Y-100956013D01*
X155124021Y-101015620D01*
X155174315Y-101150465D01*
X155174319Y-101150472D01*
X155260565Y-101265681D01*
X155260568Y-101265684D01*
X155375777Y-101351930D01*
X155375784Y-101351934D01*
X155510630Y-101402228D01*
X155510629Y-101402228D01*
X155517557Y-101402972D01*
X155570240Y-101408637D01*
X157215985Y-101408636D01*
X157275596Y-101402228D01*
X157410444Y-101351933D01*
X157525659Y-101265683D01*
X157611909Y-101150468D01*
X157662204Y-101015620D01*
X157668613Y-100956010D01*
X157668612Y-99560265D01*
X157662204Y-99500654D01*
X157661238Y-99498065D01*
X157611910Y-99365808D01*
X157611906Y-99365801D01*
X157525660Y-99250592D01*
X157525657Y-99250589D01*
X157410448Y-99164343D01*
X157410441Y-99164339D01*
X157275595Y-99114045D01*
X157275596Y-99114045D01*
X157215996Y-99107638D01*
X157215994Y-99107637D01*
X157215986Y-99107637D01*
X157215977Y-99107637D01*
X155570242Y-99107637D01*
X155570236Y-99107638D01*
X155510629Y-99114045D01*
X155375784Y-99164339D01*
X155375777Y-99164343D01*
X155260568Y-99250589D01*
X155260565Y-99250592D01*
X155174319Y-99365801D01*
X155174315Y-99365808D01*
X155124021Y-99500654D01*
X155117614Y-99560253D01*
X155117614Y-99560260D01*
X155117613Y-99560272D01*
X149718612Y-99560272D01*
X149718612Y-99560265D01*
X149712204Y-99500654D01*
X149711238Y-99498065D01*
X149661910Y-99365808D01*
X149661906Y-99365801D01*
X149575660Y-99250592D01*
X149575657Y-99250589D01*
X149460448Y-99164343D01*
X149460441Y-99164339D01*
X149325595Y-99114045D01*
X149325596Y-99114045D01*
X149265996Y-99107638D01*
X149265994Y-99107637D01*
X149265986Y-99107637D01*
X149265977Y-99107637D01*
X147620242Y-99107637D01*
X147620236Y-99107638D01*
X147560629Y-99114045D01*
X147425784Y-99164339D01*
X147425777Y-99164343D01*
X147310568Y-99250589D01*
X147310565Y-99250592D01*
X147224319Y-99365801D01*
X147224315Y-99365808D01*
X147174021Y-99500654D01*
X147167614Y-99560253D01*
X147167614Y-99560260D01*
X147167613Y-99560272D01*
X147167613Y-100562328D01*
X147147928Y-100629367D01*
X147131294Y-100650009D01*
X142401260Y-105380044D01*
X142339937Y-105413529D01*
X142313579Y-105416363D01*
X140202945Y-105416363D01*
X140135906Y-105396678D01*
X140090151Y-105343874D01*
X140080207Y-105274716D01*
X140109232Y-105211160D01*
X140115264Y-105204682D01*
X149193385Y-96126561D01*
X149193390Y-96126556D01*
X149264579Y-96020013D01*
X149305933Y-95920174D01*
X149313614Y-95901631D01*
X149315146Y-95893929D01*
X149338613Y-95775958D01*
X149338613Y-94921526D01*
X164442613Y-94921526D01*
X164442613Y-95094747D01*
X164462504Y-95220338D01*
X164469711Y-95265838D01*
X164523240Y-95430582D01*
X164601881Y-95584925D01*
X164703699Y-95725065D01*
X164703701Y-95725067D01*
X164811240Y-95832606D01*
X164844725Y-95893929D01*
X164839741Y-95963621D01*
X164797869Y-96019554D01*
X164788657Y-96025825D01*
X164724457Y-96065424D01*
X164600402Y-96189479D01*
X164508300Y-96338800D01*
X164508298Y-96338805D01*
X164491334Y-96389999D01*
X164453114Y-96505340D01*
X164453114Y-96505341D01*
X164453113Y-96505341D01*
X164442613Y-96608120D01*
X164442613Y-97408138D01*
X164442614Y-97408156D01*
X164453113Y-97510933D01*
X164453114Y-97510936D01*
X164455673Y-97518657D01*
X164508299Y-97677471D01*
X164600401Y-97826793D01*
X164724457Y-97950849D01*
X164873779Y-98042951D01*
X165040316Y-98098136D01*
X165143104Y-98108637D01*
X166493121Y-98108636D01*
X166595910Y-98098136D01*
X166762447Y-98042951D01*
X166911769Y-97950849D01*
X167035825Y-97826793D01*
X167127927Y-97677471D01*
X167183112Y-97510934D01*
X167193613Y-97408146D01*
X167193612Y-96608129D01*
X167183112Y-96505340D01*
X167127927Y-96338803D01*
X167035825Y-96189481D01*
X166911769Y-96065425D01*
X166911765Y-96065422D01*
X166847569Y-96025825D01*
X166800844Y-95973877D01*
X166789623Y-95904914D01*
X166817466Y-95840832D01*
X166824963Y-95832628D01*
X166932527Y-95725065D01*
X167034345Y-95584925D01*
X167112986Y-95430582D01*
X167166515Y-95265838D01*
X167193613Y-95094748D01*
X167193613Y-94921526D01*
X167166515Y-94750436D01*
X167112986Y-94585692D01*
X167034345Y-94431349D01*
X166932527Y-94291209D01*
X166810041Y-94168723D01*
X166726663Y-94108145D01*
X166683998Y-94052814D01*
X166678019Y-93983201D01*
X166710625Y-93921406D01*
X166726665Y-93907508D01*
X166809711Y-93847173D01*
X166932145Y-93724739D01*
X167033917Y-93584661D01*
X167112521Y-93430392D01*
X167166027Y-93265721D01*
X167167228Y-93258137D01*
X166098443Y-93258137D01*
X166118188Y-93238392D01*
X166167557Y-93152882D01*
X166193113Y-93057507D01*
X166193113Y-92958767D01*
X166167557Y-92863392D01*
X166118188Y-92777882D01*
X166098443Y-92758137D01*
X167167228Y-92758137D01*
X167167228Y-92758136D01*
X167166027Y-92750552D01*
X167112521Y-92585881D01*
X167033917Y-92431612D01*
X166932145Y-92291534D01*
X166809715Y-92169104D01*
X166669637Y-92067332D01*
X166515370Y-91988728D01*
X166350697Y-91935222D01*
X166179684Y-91908137D01*
X166068113Y-91908137D01*
X166068113Y-92727807D01*
X166048368Y-92708062D01*
X165962858Y-92658693D01*
X165867483Y-92633137D01*
X165768743Y-92633137D01*
X165673368Y-92658693D01*
X165587858Y-92708062D01*
X165568113Y-92727807D01*
X165568113Y-91908137D01*
X165456542Y-91908137D01*
X165285528Y-91935222D01*
X165120855Y-91988728D01*
X164966588Y-92067332D01*
X164826510Y-92169104D01*
X164704080Y-92291534D01*
X164602308Y-92431612D01*
X164523704Y-92585881D01*
X164470198Y-92750552D01*
X164468997Y-92758136D01*
X164468998Y-92758137D01*
X165537783Y-92758137D01*
X165518038Y-92777882D01*
X165468669Y-92863392D01*
X165443113Y-92958767D01*
X165443113Y-93057507D01*
X165468669Y-93152882D01*
X165518038Y-93238392D01*
X165537783Y-93258137D01*
X164468998Y-93258137D01*
X164470198Y-93265721D01*
X164523704Y-93430392D01*
X164602308Y-93584661D01*
X164704080Y-93724739D01*
X164826514Y-93847173D01*
X164909560Y-93907508D01*
X164952227Y-93962838D01*
X164958206Y-94032451D01*
X164925601Y-94094246D01*
X164909563Y-94108144D01*
X164826185Y-94168722D01*
X164703701Y-94291206D01*
X164703701Y-94291207D01*
X164703699Y-94291209D01*
X164659972Y-94351393D01*
X164601881Y-94431348D01*
X164523241Y-94585689D01*
X164469710Y-94750439D01*
X164442613Y-94921526D01*
X149338613Y-94921526D01*
X149338613Y-94458037D01*
X149339274Y-94455782D01*
X149338696Y-94453506D01*
X149349068Y-94422428D01*
X149358298Y-94390998D01*
X149360304Y-94388765D01*
X149360817Y-94387231D01*
X149366630Y-94381728D01*
X149384888Y-94361420D01*
X149390917Y-94356569D01*
X149436463Y-94328477D01*
X149480171Y-94284768D01*
X149485388Y-94280572D01*
X149511738Y-94269683D01*
X149536755Y-94256023D01*
X149543609Y-94256513D01*
X149549962Y-94253888D01*
X149578012Y-94258973D01*
X149606447Y-94261007D01*
X149613212Y-94265355D01*
X149618711Y-94266352D01*
X149627460Y-94274512D01*
X149650794Y-94289508D01*
X149689763Y-94328477D01*
X149836597Y-94419045D01*
X150000360Y-94473311D01*
X150101436Y-94483637D01*
X150774789Y-94483636D01*
X150774797Y-94483635D01*
X150774800Y-94483635D01*
X150830143Y-94477981D01*
X150875866Y-94473311D01*
X151039629Y-94419045D01*
X151175516Y-94335228D01*
X151242908Y-94316788D01*
X151305710Y-94335229D01*
X151441588Y-94419040D01*
X151441591Y-94419041D01*
X151441597Y-94419045D01*
X151605360Y-94473311D01*
X151706436Y-94483637D01*
X152304789Y-94483636D01*
X152304797Y-94483635D01*
X152304800Y-94483635D01*
X152360143Y-94477981D01*
X152405866Y-94473311D01*
X152569629Y-94419045D01*
X152716463Y-94328477D01*
X152830788Y-94214151D01*
X152892107Y-94180669D01*
X152961799Y-94185653D01*
X153006147Y-94214154D01*
X153120074Y-94328081D01*
X153120078Y-94328084D01*
X153266801Y-94418585D01*
X153266812Y-94418590D01*
X153430460Y-94472817D01*
X153531464Y-94483136D01*
X154080613Y-94483136D01*
X154129753Y-94483136D01*
X154129767Y-94483135D01*
X154230765Y-94472817D01*
X154394413Y-94418590D01*
X154394424Y-94418585D01*
X154541147Y-94328084D01*
X154541151Y-94328081D01*
X154663057Y-94206175D01*
X154663060Y-94206171D01*
X154753561Y-94059448D01*
X154753566Y-94059437D01*
X154807793Y-93895789D01*
X154818112Y-93794791D01*
X154818113Y-93794778D01*
X154818113Y-93758137D01*
X154080613Y-93758137D01*
X154080613Y-94483136D01*
X153531464Y-94483136D01*
X153580612Y-94483135D01*
X153580613Y-94483135D01*
X153580613Y-93258137D01*
X154080613Y-93258137D01*
X154818112Y-93258137D01*
X154818112Y-93221497D01*
X154818111Y-93221482D01*
X154807793Y-93120484D01*
X154753566Y-92956836D01*
X154753564Y-92956831D01*
X154694022Y-92860299D01*
X154694021Y-92860297D01*
X154663058Y-92810099D01*
X154541151Y-92688192D01*
X154541147Y-92688189D01*
X154394424Y-92597688D01*
X154394413Y-92597683D01*
X154230765Y-92543456D01*
X154129767Y-92533137D01*
X154080613Y-92533137D01*
X154080613Y-93258137D01*
X153580613Y-93258137D01*
X153580613Y-92533137D01*
X153580612Y-92533136D01*
X153531474Y-92533137D01*
X153531456Y-92533138D01*
X153430460Y-92543456D01*
X153266812Y-92597683D01*
X153266801Y-92597688D01*
X153120078Y-92688189D01*
X153006147Y-92802120D01*
X152944824Y-92835604D01*
X152875132Y-92830620D01*
X152830785Y-92802119D01*
X152716464Y-92687798D01*
X152716463Y-92687797D01*
X152616034Y-92625852D01*
X152569631Y-92597230D01*
X152569626Y-92597228D01*
X152535383Y-92585881D01*
X152405866Y-92542963D01*
X152405864Y-92542962D01*
X152304791Y-92532637D01*
X151706443Y-92532637D01*
X151706425Y-92532638D01*
X151605360Y-92542962D01*
X151441597Y-92597229D01*
X151441594Y-92597230D01*
X151305710Y-92681045D01*
X151238317Y-92699485D01*
X151175516Y-92681045D01*
X151039631Y-92597230D01*
X151039626Y-92597228D01*
X151005383Y-92585881D01*
X150875866Y-92542963D01*
X150875864Y-92542962D01*
X150774791Y-92532637D01*
X150101443Y-92532637D01*
X150101425Y-92532638D01*
X150000360Y-92542962D01*
X149836597Y-92597229D01*
X149836594Y-92597230D01*
X149689761Y-92687798D01*
X149650794Y-92726766D01*
X149589471Y-92760251D01*
X149519779Y-92755267D01*
X149475432Y-92726766D01*
X149436464Y-92687798D01*
X149436463Y-92687797D01*
X149336034Y-92625852D01*
X149289631Y-92597230D01*
X149289626Y-92597228D01*
X149255383Y-92585881D01*
X149125866Y-92542963D01*
X149125864Y-92542962D01*
X149024791Y-92532637D01*
X148351443Y-92532637D01*
X148351425Y-92532638D01*
X148250360Y-92542962D01*
X148086597Y-92597229D01*
X148086594Y-92597230D01*
X147939761Y-92687798D01*
X147817774Y-92809785D01*
X147727206Y-92956618D01*
X147727204Y-92956623D01*
X147726494Y-92958767D01*
X147672939Y-93120384D01*
X147672939Y-93120385D01*
X147672938Y-93120385D01*
X147662613Y-93221452D01*
X147662613Y-93794806D01*
X147662614Y-93794824D01*
X147672938Y-93895889D01*
X147695123Y-93962838D01*
X147727133Y-94059437D01*
X147727205Y-94059652D01*
X147727206Y-94059655D01*
X147757115Y-94108145D01*
X147817773Y-94206487D01*
X147939763Y-94328477D01*
X147978710Y-94352499D01*
X148025433Y-94404444D01*
X148037613Y-94458037D01*
X148037613Y-95391079D01*
X148017928Y-95458118D01*
X148001294Y-95478760D01*
X138808736Y-104671318D01*
X138781808Y-104686021D01*
X138755990Y-104702614D01*
X138749789Y-104703505D01*
X138747413Y-104704803D01*
X138721055Y-104707637D01*
X138719466Y-104707637D01*
X138652427Y-104687952D01*
X138606672Y-104635148D01*
X138597849Y-104607828D01*
X138580542Y-104520821D01*
X138569737Y-104466503D01*
X138537929Y-104389711D01*
X138509397Y-104320827D01*
X138509390Y-104320814D01*
X138421789Y-104189711D01*
X138421786Y-104189707D01*
X138310292Y-104078213D01*
X138310288Y-104078210D01*
X138179185Y-103990609D01*
X138179172Y-103990602D01*
X138033501Y-103930264D01*
X138033489Y-103930261D01*
X137878845Y-103899500D01*
X137878842Y-103899500D01*
X137774857Y-103899500D01*
X137707818Y-103879815D01*
X137662063Y-103827011D01*
X137652119Y-103757853D01*
X137660295Y-103728049D01*
X137672120Y-103699500D01*
X137684007Y-103670803D01*
X137685293Y-103664341D01*
X137718612Y-103496832D01*
X137718613Y-103496830D01*
X137718613Y-103319443D01*
X137718612Y-103319441D01*
X137684009Y-103145478D01*
X137684006Y-103145469D01*
X137683393Y-103143990D01*
X137638997Y-103036806D01*
X137616129Y-102981596D01*
X137616122Y-102981583D01*
X137517577Y-102834102D01*
X137517574Y-102834098D01*
X137392150Y-102708674D01*
X137382680Y-102702346D01*
X137365139Y-102690626D01*
X137320336Y-102637016D01*
X137311627Y-102567691D01*
X137341781Y-102504664D01*
X137346331Y-102499863D01*
X148960890Y-90885306D01*
X149032079Y-90778763D01*
X149081114Y-90660380D01*
X149106113Y-90534706D01*
X149106113Y-90406568D01*
X149106113Y-89458037D01*
X149106774Y-89455782D01*
X149106196Y-89453506D01*
X149116568Y-89422428D01*
X149125798Y-89390998D01*
X149127804Y-89388765D01*
X149128317Y-89387231D01*
X149134130Y-89381728D01*
X149152388Y-89361420D01*
X149158417Y-89356569D01*
X149203963Y-89328477D01*
X149247671Y-89284768D01*
X149252888Y-89280572D01*
X149279238Y-89269683D01*
X149304255Y-89256023D01*
X149311109Y-89256513D01*
X149317462Y-89253888D01*
X149345512Y-89258973D01*
X149373947Y-89261007D01*
X149380712Y-89265355D01*
X149386211Y-89266352D01*
X149394960Y-89274512D01*
X149418294Y-89289508D01*
X149457263Y-89328477D01*
X149604097Y-89419045D01*
X149767860Y-89473311D01*
X149868936Y-89483637D01*
X150542289Y-89483636D01*
X150542297Y-89483635D01*
X150542300Y-89483635D01*
X150597643Y-89477981D01*
X150643366Y-89473311D01*
X150807129Y-89419045D01*
X150953963Y-89328477D01*
X150992932Y-89289508D01*
X151054255Y-89256023D01*
X151123947Y-89261007D01*
X151168294Y-89289508D01*
X151207263Y-89328477D01*
X151354097Y-89419045D01*
X151517860Y-89473311D01*
X151618936Y-89483637D01*
X152217289Y-89483636D01*
X152217297Y-89483635D01*
X152217300Y-89483635D01*
X152272643Y-89477981D01*
X152318366Y-89473311D01*
X152482129Y-89419045D01*
X152628963Y-89328477D01*
X152743288Y-89214151D01*
X152804607Y-89180669D01*
X152874299Y-89185653D01*
X152918647Y-89214154D01*
X153032574Y-89328081D01*
X153032578Y-89328084D01*
X153179301Y-89418585D01*
X153179312Y-89418590D01*
X153342960Y-89472817D01*
X153443964Y-89483136D01*
X153993113Y-89483136D01*
X154042253Y-89483136D01*
X154042267Y-89483135D01*
X154143265Y-89472817D01*
X154306913Y-89418590D01*
X154306924Y-89418585D01*
X154453647Y-89328084D01*
X154453651Y-89328081D01*
X154575557Y-89206175D01*
X154575560Y-89206171D01*
X154666061Y-89059448D01*
X154666066Y-89059437D01*
X154720293Y-88895789D01*
X154730612Y-88794791D01*
X154730613Y-88794778D01*
X154730613Y-88758137D01*
X153993113Y-88758137D01*
X153993113Y-89483136D01*
X153443964Y-89483136D01*
X153493112Y-89483135D01*
X153493113Y-89483135D01*
X153493113Y-88258137D01*
X153993113Y-88258137D01*
X154730612Y-88258137D01*
X154730612Y-88221497D01*
X154730611Y-88221482D01*
X154720293Y-88120484D01*
X154666066Y-87956836D01*
X154666061Y-87956825D01*
X154575560Y-87810102D01*
X154575557Y-87810098D01*
X154453651Y-87688192D01*
X154453647Y-87688189D01*
X154306924Y-87597688D01*
X154306913Y-87597683D01*
X154143265Y-87543456D01*
X154042267Y-87533137D01*
X153993113Y-87533137D01*
X153993113Y-88258137D01*
X153493113Y-88258137D01*
X153493113Y-87533137D01*
X153493112Y-87533136D01*
X153443974Y-87533137D01*
X153443956Y-87533138D01*
X153342960Y-87543456D01*
X153179312Y-87597683D01*
X153179301Y-87597688D01*
X153032578Y-87688189D01*
X152918647Y-87802120D01*
X152857324Y-87835604D01*
X152787632Y-87830620D01*
X152743285Y-87802119D01*
X152628964Y-87687798D01*
X152628963Y-87687797D01*
X152505005Y-87611339D01*
X152482131Y-87597230D01*
X152482126Y-87597228D01*
X152480682Y-87596749D01*
X152318366Y-87542963D01*
X152318364Y-87542962D01*
X152217291Y-87532637D01*
X151618943Y-87532637D01*
X151618925Y-87532638D01*
X151517860Y-87542962D01*
X151354097Y-87597229D01*
X151354094Y-87597230D01*
X151207261Y-87687798D01*
X151168294Y-87726766D01*
X151106971Y-87760251D01*
X151037279Y-87755267D01*
X150992932Y-87726766D01*
X150953964Y-87687798D01*
X150953963Y-87687797D01*
X150830005Y-87611339D01*
X150807131Y-87597230D01*
X150807126Y-87597228D01*
X150805682Y-87596749D01*
X150643366Y-87542963D01*
X150643364Y-87542962D01*
X150542291Y-87532637D01*
X149868943Y-87532637D01*
X149868925Y-87532638D01*
X149767860Y-87542962D01*
X149604097Y-87597229D01*
X149604094Y-87597230D01*
X149457261Y-87687798D01*
X149418294Y-87726766D01*
X149356971Y-87760251D01*
X149287279Y-87755267D01*
X149242932Y-87726766D01*
X149203964Y-87687798D01*
X149203963Y-87687797D01*
X149080005Y-87611339D01*
X149057131Y-87597230D01*
X149057126Y-87597228D01*
X149055682Y-87596749D01*
X148893366Y-87542963D01*
X148893364Y-87542962D01*
X148792291Y-87532637D01*
X148118943Y-87532637D01*
X148118925Y-87532638D01*
X148017860Y-87542962D01*
X147854097Y-87597229D01*
X147854094Y-87597230D01*
X147707261Y-87687798D01*
X147585274Y-87809785D01*
X147494706Y-87956618D01*
X147494704Y-87956623D01*
X147480165Y-88000499D01*
X147440439Y-88120384D01*
X147440439Y-88120385D01*
X147440438Y-88120385D01*
X147430113Y-88221452D01*
X147430113Y-88794806D01*
X147430114Y-88794824D01*
X147440438Y-88895889D01*
X147468249Y-88979815D01*
X147494633Y-89059437D01*
X147494705Y-89059652D01*
X147494706Y-89059655D01*
X147529008Y-89115266D01*
X147585273Y-89206487D01*
X147707263Y-89328477D01*
X147746210Y-89352499D01*
X147792933Y-89404444D01*
X147805113Y-89458037D01*
X147805113Y-90149828D01*
X147785428Y-90216867D01*
X147768794Y-90237509D01*
X137682570Y-100323732D01*
X137621247Y-100357217D01*
X137551555Y-100352233D01*
X137507208Y-100323732D01*
X137426465Y-100242989D01*
X137426461Y-100242986D01*
X137278980Y-100144441D01*
X137278967Y-100144434D01*
X137115094Y-100076557D01*
X137115085Y-100076554D01*
X136941121Y-100041951D01*
X136941118Y-100041951D01*
X136881113Y-100041951D01*
X136814074Y-100022266D01*
X136768319Y-99969462D01*
X136757113Y-99917951D01*
X136757113Y-99284273D01*
X136732115Y-99158606D01*
X136732114Y-99158605D01*
X136732114Y-99158601D01*
X136697837Y-99075849D01*
X136683079Y-99040219D01*
X136623787Y-98951482D01*
X136611891Y-98933677D01*
X136611885Y-98933670D01*
X129984196Y-92305981D01*
X131518113Y-92305981D01*
X131524514Y-92365509D01*
X131524516Y-92365516D01*
X131574758Y-92500223D01*
X131574762Y-92500230D01*
X131660922Y-92615324D01*
X131660925Y-92615327D01*
X131776019Y-92701487D01*
X131776026Y-92701491D01*
X131910733Y-92751733D01*
X131910740Y-92751735D01*
X131970268Y-92758136D01*
X131970285Y-92758137D01*
X132418113Y-92758137D01*
X132918113Y-92758137D01*
X133365941Y-92758137D01*
X133365957Y-92758136D01*
X133425485Y-92751735D01*
X133425492Y-92751733D01*
X133560199Y-92701491D01*
X133560206Y-92701487D01*
X133675300Y-92615327D01*
X133675303Y-92615324D01*
X133761463Y-92500230D01*
X133761467Y-92500223D01*
X133811709Y-92365516D01*
X133811711Y-92365509D01*
X133818112Y-92305981D01*
X133818113Y-92305964D01*
X133818113Y-91733137D01*
X132918113Y-91733137D01*
X132918113Y-92758137D01*
X132418113Y-92758137D01*
X132418113Y-91733137D01*
X131518113Y-91733137D01*
X131518113Y-92305981D01*
X129984196Y-92305981D01*
X129794932Y-92116717D01*
X129761447Y-92055394D01*
X129758613Y-92029036D01*
X129758613Y-90660292D01*
X131518113Y-90660292D01*
X131518113Y-91233137D01*
X132418113Y-91233137D01*
X132918113Y-91233137D01*
X133818113Y-91233137D01*
X133818113Y-90660301D01*
X133818110Y-90660272D01*
X136017613Y-90660272D01*
X136017613Y-92306007D01*
X136017614Y-92306013D01*
X136024021Y-92365620D01*
X136074315Y-92500465D01*
X136074319Y-92500472D01*
X136160565Y-92615681D01*
X136160568Y-92615684D01*
X136275777Y-92701930D01*
X136275784Y-92701934D01*
X136410630Y-92752228D01*
X136410629Y-92752228D01*
X136417557Y-92752972D01*
X136470240Y-92758637D01*
X137865985Y-92758636D01*
X137925596Y-92752228D01*
X138060444Y-92701933D01*
X138175659Y-92615683D01*
X138261909Y-92500468D01*
X138312204Y-92365620D01*
X138318613Y-92306010D01*
X138318612Y-90660265D01*
X138312204Y-90600654D01*
X138307607Y-90588330D01*
X138261910Y-90465808D01*
X138261906Y-90465801D01*
X138175660Y-90350592D01*
X138175657Y-90350589D01*
X138060448Y-90264343D01*
X138060441Y-90264339D01*
X137925595Y-90214045D01*
X137925596Y-90214045D01*
X137865996Y-90207638D01*
X137865994Y-90207637D01*
X137865986Y-90207637D01*
X137865977Y-90207637D01*
X136470242Y-90207637D01*
X136470236Y-90207638D01*
X136410629Y-90214045D01*
X136275784Y-90264339D01*
X136275777Y-90264343D01*
X136160568Y-90350589D01*
X136160565Y-90350592D01*
X136074319Y-90465801D01*
X136074315Y-90465808D01*
X136024021Y-90600654D01*
X136017614Y-90660253D01*
X136017614Y-90660260D01*
X136017613Y-90660272D01*
X133818110Y-90660272D01*
X133811711Y-90600764D01*
X133811709Y-90600757D01*
X133761467Y-90466050D01*
X133761463Y-90466043D01*
X133675303Y-90350949D01*
X133675300Y-90350946D01*
X133560206Y-90264786D01*
X133560199Y-90264782D01*
X133425492Y-90214540D01*
X133425485Y-90214538D01*
X133365957Y-90208137D01*
X132918113Y-90208137D01*
X132918113Y-91233137D01*
X132418113Y-91233137D01*
X132418113Y-90208137D01*
X131970268Y-90208137D01*
X131910740Y-90214538D01*
X131910733Y-90214540D01*
X131776026Y-90264782D01*
X131776019Y-90264786D01*
X131660925Y-90350946D01*
X131660922Y-90350949D01*
X131574762Y-90466043D01*
X131574758Y-90466050D01*
X131524516Y-90600757D01*
X131524514Y-90600764D01*
X131518113Y-90660292D01*
X129758613Y-90660292D01*
X129758613Y-88933123D01*
X138193114Y-88933123D01*
X138203607Y-89035834D01*
X138258754Y-89202256D01*
X138258756Y-89202261D01*
X138350797Y-89351482D01*
X138474767Y-89475452D01*
X138623988Y-89567493D01*
X138623993Y-89567495D01*
X138790415Y-89622642D01*
X138790422Y-89622643D01*
X138893132Y-89633136D01*
X139168112Y-89633136D01*
X139668113Y-89633136D01*
X139943085Y-89633136D01*
X139943099Y-89633135D01*
X140045810Y-89622642D01*
X140212232Y-89567495D01*
X140212237Y-89567493D01*
X140361458Y-89475452D01*
X140485428Y-89351482D01*
X140577469Y-89202261D01*
X140577471Y-89202256D01*
X140632618Y-89035834D01*
X140632619Y-89035827D01*
X140643112Y-88933123D01*
X140643113Y-88933110D01*
X140643113Y-88795637D01*
X139668113Y-88795637D01*
X139668113Y-89633136D01*
X139168112Y-89633136D01*
X139168113Y-89633135D01*
X139168113Y-88795637D01*
X138193114Y-88795637D01*
X138193114Y-88933123D01*
X129758613Y-88933123D01*
X129758613Y-82710272D01*
X131517613Y-82710272D01*
X131517613Y-84356007D01*
X131517614Y-84356013D01*
X131524021Y-84415620D01*
X131574315Y-84550465D01*
X131574319Y-84550472D01*
X131660565Y-84665681D01*
X131660568Y-84665684D01*
X131775777Y-84751930D01*
X131775784Y-84751934D01*
X131910630Y-84802228D01*
X131910629Y-84802228D01*
X131917557Y-84802972D01*
X131970240Y-84808637D01*
X133365985Y-84808636D01*
X133425596Y-84802228D01*
X133560444Y-84751933D01*
X133675659Y-84665683D01*
X133761909Y-84550468D01*
X133812204Y-84415620D01*
X133818613Y-84356010D01*
X133818612Y-82710265D01*
X133812204Y-82650654D01*
X133805354Y-82632289D01*
X133761910Y-82515808D01*
X133761906Y-82515801D01*
X133675660Y-82400592D01*
X133675657Y-82400589D01*
X133560448Y-82314343D01*
X133560441Y-82314339D01*
X133425595Y-82264045D01*
X133425596Y-82264045D01*
X133365996Y-82257638D01*
X133365994Y-82257637D01*
X133365986Y-82257637D01*
X133365977Y-82257637D01*
X131970242Y-82257637D01*
X131970236Y-82257638D01*
X131910629Y-82264045D01*
X131775784Y-82314339D01*
X131775777Y-82314343D01*
X131660568Y-82400589D01*
X131660565Y-82400592D01*
X131574319Y-82515801D01*
X131574315Y-82515808D01*
X131524021Y-82650654D01*
X131517614Y-82710253D01*
X131517614Y-82710260D01*
X131517613Y-82710272D01*
X129758613Y-82710272D01*
X129758613Y-80267754D01*
X129778298Y-80200715D01*
X129812705Y-80167039D01*
X129811987Y-80166051D01*
X129815924Y-80163190D01*
X129815929Y-80163188D01*
X129987905Y-80038241D01*
X130138217Y-79887929D01*
X130138219Y-79887925D01*
X130138222Y-79887923D01*
X130224003Y-79769854D01*
X130263164Y-79715953D01*
X130267906Y-79706645D01*
X130315876Y-79655848D01*
X130383696Y-79639048D01*
X130449832Y-79661582D01*
X130488876Y-79706637D01*
X130493486Y-79715684D01*
X130532841Y-79769853D01*
X131165149Y-79137544D01*
X131182188Y-79201130D01*
X131248014Y-79315144D01*
X131341106Y-79408236D01*
X131455120Y-79474062D01*
X131518703Y-79491099D01*
X130886395Y-80123406D01*
X130886395Y-80123407D01*
X130940562Y-80162761D01*
X131129895Y-80259232D01*
X131331983Y-80324894D01*
X131541867Y-80358137D01*
X131754359Y-80358137D01*
X131964240Y-80324894D01*
X131964243Y-80324894D01*
X132166330Y-80259232D01*
X132355667Y-80162759D01*
X132409829Y-80123407D01*
X132409830Y-80123407D01*
X131777521Y-79491099D01*
X131841106Y-79474062D01*
X131955120Y-79408236D01*
X132048212Y-79315144D01*
X132114038Y-79201130D01*
X132131075Y-79137546D01*
X132763383Y-79769854D01*
X132763383Y-79769853D01*
X132802735Y-79715692D01*
X132807345Y-79706644D01*
X132855318Y-79655846D01*
X132923138Y-79639049D01*
X132989274Y-79661584D01*
X133028317Y-79706641D01*
X133033062Y-79715954D01*
X133158003Y-79887923D01*
X133308326Y-80038246D01*
X133480292Y-80163185D01*
X133480294Y-80163186D01*
X133480297Y-80163188D01*
X133669701Y-80259694D01*
X133871870Y-80325383D01*
X134081826Y-80358637D01*
X134081827Y-80358637D01*
X134294399Y-80358637D01*
X134294400Y-80358637D01*
X134504356Y-80325383D01*
X134706525Y-80259694D01*
X134895929Y-80163188D01*
X135018651Y-80074026D01*
X135067899Y-80038246D01*
X135067901Y-80038243D01*
X135067905Y-80038241D01*
X135218217Y-79887929D01*
X135218219Y-79887925D01*
X135218222Y-79887923D01*
X135343161Y-79715957D01*
X135343160Y-79715957D01*
X135343164Y-79715953D01*
X135347627Y-79707191D01*
X135395601Y-79656396D01*
X135463421Y-79639600D01*
X135529557Y-79662136D01*
X135568599Y-79707193D01*
X135573064Y-79715957D01*
X135698003Y-79887923D01*
X135848326Y-80038246D01*
X136020294Y-80163187D01*
X136034905Y-80170631D01*
X136085702Y-80218604D01*
X136102613Y-80281117D01*
X136102613Y-82436735D01*
X136082928Y-82503774D01*
X136077881Y-82511044D01*
X136074318Y-82515802D01*
X136074315Y-82515808D01*
X136024021Y-82650654D01*
X136017614Y-82710253D01*
X136017614Y-82710260D01*
X136017613Y-82710272D01*
X136017613Y-84356007D01*
X136017614Y-84356013D01*
X136024021Y-84415620D01*
X136074315Y-84550465D01*
X136074319Y-84550472D01*
X136160565Y-84665681D01*
X136160568Y-84665684D01*
X136275777Y-84751930D01*
X136275784Y-84751934D01*
X136410630Y-84802228D01*
X136410629Y-84802228D01*
X136417557Y-84802972D01*
X136470240Y-84808637D01*
X137507659Y-84808636D01*
X137574698Y-84828320D01*
X137595340Y-84844955D01*
X138305664Y-85555279D01*
X138339149Y-85616602D01*
X138334165Y-85686294D01*
X138323523Y-85708055D01*
X138258301Y-85813798D01*
X138258298Y-85813805D01*
X138230462Y-85897807D01*
X138203114Y-85980340D01*
X138203114Y-85980341D01*
X138203113Y-85980341D01*
X138192613Y-86083120D01*
X138192613Y-86858138D01*
X138192614Y-86858156D01*
X138203113Y-86960933D01*
X138203114Y-86960936D01*
X138258298Y-87127468D01*
X138258300Y-87127473D01*
X138263682Y-87136199D01*
X138350401Y-87276793D01*
X138474457Y-87400849D01*
X138477741Y-87402874D01*
X138477766Y-87402890D01*
X138479558Y-87404883D01*
X138480124Y-87405330D01*
X138480047Y-87405426D01*
X138524492Y-87454836D01*
X138535716Y-87523798D01*
X138507874Y-87587881D01*
X138477778Y-87613963D01*
X138474773Y-87615816D01*
X138474768Y-87615820D01*
X138350797Y-87739791D01*
X138258756Y-87889012D01*
X138258754Y-87889017D01*
X138203607Y-88055439D01*
X138203606Y-88055446D01*
X138193113Y-88158150D01*
X138193113Y-88295637D01*
X140643112Y-88295637D01*
X140643112Y-88158165D01*
X140643111Y-88158150D01*
X140632618Y-88055439D01*
X140577471Y-87889017D01*
X140577469Y-87889012D01*
X140485428Y-87739791D01*
X140361457Y-87615820D01*
X140361454Y-87615818D01*
X140358452Y-87613966D01*
X140356826Y-87612158D01*
X140355790Y-87611339D01*
X140355930Y-87611161D01*
X140311730Y-87562017D01*
X140300510Y-87493054D01*
X140328356Y-87428973D01*
X140358457Y-87402891D01*
X140361769Y-87400849D01*
X140485825Y-87276793D01*
X140577927Y-87127471D01*
X140633112Y-86960934D01*
X140643613Y-86858146D01*
X140643612Y-86083129D01*
X140633112Y-85980340D01*
X140577927Y-85813803D01*
X140485825Y-85664481D01*
X140361769Y-85540425D01*
X140212447Y-85448323D01*
X140045910Y-85393138D01*
X140045907Y-85393137D01*
X139941432Y-85382464D01*
X139876740Y-85356068D01*
X139866354Y-85346787D01*
X138354931Y-83835364D01*
X138321446Y-83774041D01*
X138318612Y-83747683D01*
X138318612Y-82710266D01*
X138318611Y-82710260D01*
X138318610Y-82710253D01*
X138312204Y-82650654D01*
X138305354Y-82632289D01*
X138261910Y-82515808D01*
X138261906Y-82515801D01*
X138175660Y-82400592D01*
X138175657Y-82400589D01*
X138060448Y-82314343D01*
X138060441Y-82314339D01*
X137925595Y-82264045D01*
X137925596Y-82264045D01*
X137865996Y-82257638D01*
X137865994Y-82257637D01*
X137865986Y-82257637D01*
X137865978Y-82257637D01*
X137477613Y-82257637D01*
X137410574Y-82237952D01*
X137364819Y-82185148D01*
X137353613Y-82133637D01*
X137353613Y-80281117D01*
X137373298Y-80214078D01*
X137421321Y-80170631D01*
X137435931Y-80163187D01*
X137607899Y-80038246D01*
X137607901Y-80038243D01*
X137607905Y-80038241D01*
X137758217Y-79887929D01*
X137758219Y-79887925D01*
X137758222Y-79887923D01*
X137883161Y-79715957D01*
X137883160Y-79715957D01*
X137883164Y-79715953D01*
X137887627Y-79707191D01*
X137935601Y-79656396D01*
X138003421Y-79639600D01*
X138069557Y-79662136D01*
X138108599Y-79707193D01*
X138113064Y-79715957D01*
X138238003Y-79887923D01*
X138388326Y-80038246D01*
X138560292Y-80163185D01*
X138560294Y-80163186D01*
X138560297Y-80163188D01*
X138749701Y-80259694D01*
X138951870Y-80325383D01*
X139161826Y-80358637D01*
X139161827Y-80358637D01*
X139374399Y-80358637D01*
X139374400Y-80358637D01*
X139584356Y-80325383D01*
X139786525Y-80259694D01*
X139975929Y-80163188D01*
X140098651Y-80074026D01*
X140147899Y-80038246D01*
X140147901Y-80038243D01*
X140147905Y-80038241D01*
X140298217Y-79887929D01*
X140298219Y-79887925D01*
X140298222Y-79887923D01*
X140423161Y-79715957D01*
X140423160Y-79715957D01*
X140423164Y-79715953D01*
X140519670Y-79526549D01*
X140585359Y-79324380D01*
X140618613Y-79114424D01*
X140618613Y-78901850D01*
X140585359Y-78691894D01*
X140519670Y-78489725D01*
X140423164Y-78300321D01*
X140423162Y-78300318D01*
X140423161Y-78300316D01*
X140298222Y-78128350D01*
X140147899Y-77978027D01*
X139975933Y-77853088D01*
X139786527Y-77756581D01*
X139786526Y-77756580D01*
X139786525Y-77756580D01*
X139584356Y-77690891D01*
X139584354Y-77690890D01*
X139584353Y-77690890D01*
X139423070Y-77665345D01*
X139374400Y-77657637D01*
X139161826Y-77657637D01*
X139113155Y-77665345D01*
X138951873Y-77690890D01*
X138749698Y-77756581D01*
X138560292Y-77853088D01*
X138388326Y-77978027D01*
X138238003Y-78128350D01*
X138113062Y-78300319D01*
X138108597Y-78309083D01*
X138060622Y-78359879D01*
X137992801Y-78376673D01*
X137926666Y-78354135D01*
X137887629Y-78309083D01*
X137883163Y-78300319D01*
X137758222Y-78128350D01*
X137607899Y-77978027D01*
X137435933Y-77853088D01*
X137246527Y-77756581D01*
X137246526Y-77756580D01*
X137246525Y-77756580D01*
X137044356Y-77690891D01*
X137044354Y-77690890D01*
X137044353Y-77690890D01*
X136883070Y-77665345D01*
X136834400Y-77657637D01*
X136621826Y-77657637D01*
X136529823Y-77672209D01*
X136407058Y-77691653D01*
X136406799Y-77690019D01*
X136344207Y-77686867D01*
X136297401Y-77657479D01*
X135891787Y-77251864D01*
X135891786Y-77251863D01*
X135785244Y-77180675D01*
X135785240Y-77180672D01*
X135785235Y-77180670D01*
X135666857Y-77131636D01*
X135666851Y-77131634D01*
X135541184Y-77106637D01*
X135541182Y-77106637D01*
X128525862Y-77106637D01*
X128525860Y-77106637D01*
X128400192Y-77131634D01*
X128400186Y-77131636D01*
X128281806Y-77180670D01*
X128281797Y-77180675D01*
X128175262Y-77251860D01*
X128175258Y-77251863D01*
X127754912Y-77672209D01*
X127693589Y-77705694D01*
X127623898Y-77700710D01*
X127525595Y-77664045D01*
X127525596Y-77664045D01*
X127465996Y-77657638D01*
X127465994Y-77657637D01*
X127465986Y-77657637D01*
X127465977Y-77657637D01*
X125670242Y-77657637D01*
X125670236Y-77657638D01*
X125610629Y-77664045D01*
X125475784Y-77714339D01*
X125475777Y-77714343D01*
X125360568Y-77800589D01*
X125360565Y-77800592D01*
X125274319Y-77915801D01*
X125274315Y-77915808D01*
X125224021Y-78050654D01*
X125217614Y-78110253D01*
X125217613Y-78110272D01*
X125217613Y-79458039D01*
X125197928Y-79525078D01*
X125181294Y-79545720D01*
X121801335Y-82925680D01*
X121774405Y-82940384D01*
X121748592Y-82956975D01*
X121742389Y-82957866D01*
X121740012Y-82959165D01*
X121713657Y-82961999D01*
X121683443Y-82961999D01*
X121683439Y-82961999D01*
X121675834Y-82962000D01*
X121675833Y-82961999D01*
X121675831Y-82962000D01*
X119816268Y-82962000D01*
X119749229Y-82942315D01*
X119710729Y-82903097D01*
X119708526Y-82899525D01*
X119620212Y-82756344D01*
X119496156Y-82632288D01*
X119492842Y-82630243D01*
X119491046Y-82628248D01*
X119490489Y-82627807D01*
X119490564Y-82627711D01*
X119446118Y-82578297D01*
X119434897Y-82509334D01*
X119462740Y-82445252D01*
X119492848Y-82419165D01*
X119495842Y-82417318D01*
X119619815Y-82293345D01*
X119711856Y-82144124D01*
X119711858Y-82144119D01*
X119767005Y-81977697D01*
X119767006Y-81977690D01*
X119777499Y-81874986D01*
X119777500Y-81874973D01*
X119777500Y-81737500D01*
X117407500Y-81737500D01*
X117406319Y-81738681D01*
X117344996Y-81772166D01*
X117318638Y-81775000D01*
X114827501Y-81775000D01*
X114827501Y-81912486D01*
X114837994Y-82015197D01*
X114893141Y-82181619D01*
X114893143Y-82181624D01*
X114985184Y-82330845D01*
X115109155Y-82454816D01*
X115109159Y-82454819D01*
X115112156Y-82456668D01*
X115113779Y-82458472D01*
X115114823Y-82459298D01*
X115114681Y-82459476D01*
X115158881Y-82508616D01*
X115170102Y-82577579D01*
X115142259Y-82641661D01*
X115112161Y-82667741D01*
X115108849Y-82669783D01*
X115108843Y-82669788D01*
X114984789Y-82793842D01*
X114892687Y-82943163D01*
X114892686Y-82943166D01*
X114837501Y-83109703D01*
X114837501Y-83109704D01*
X114837500Y-83109704D01*
X114827000Y-83212483D01*
X114827000Y-83987501D01*
X114827001Y-83987519D01*
X114837500Y-84090296D01*
X114837501Y-84090299D01*
X114861592Y-84163000D01*
X114892686Y-84256834D01*
X114984788Y-84406156D01*
X115108844Y-84530212D01*
X115225078Y-84601905D01*
X115271802Y-84653853D01*
X115283025Y-84722816D01*
X115255181Y-84786898D01*
X115198985Y-84825150D01*
X115138566Y-84845171D01*
X115068738Y-84847573D01*
X115011881Y-84815146D01*
X111334248Y-81137513D01*
X114827500Y-81137513D01*
X114827500Y-81275000D01*
X115802500Y-81275000D01*
X115802500Y-80437500D01*
X116302500Y-80437500D01*
X116302500Y-81275000D01*
X117197500Y-81275000D01*
X117198681Y-81273819D01*
X117260004Y-81240334D01*
X117286362Y-81237500D01*
X118302500Y-81237500D01*
X118802500Y-81237500D01*
X119777499Y-81237500D01*
X119777499Y-81100028D01*
X119777498Y-81100013D01*
X119767005Y-80997302D01*
X119711858Y-80830880D01*
X119711856Y-80830875D01*
X119619815Y-80681654D01*
X119495845Y-80557684D01*
X119346624Y-80465643D01*
X119346619Y-80465641D01*
X119180197Y-80410494D01*
X119180190Y-80410493D01*
X119077486Y-80400000D01*
X118802500Y-80400000D01*
X118802500Y-81237500D01*
X118302500Y-81237500D01*
X118302500Y-80400000D01*
X118027529Y-80400000D01*
X118027512Y-80400001D01*
X117924802Y-80410494D01*
X117758380Y-80465641D01*
X117758375Y-80465643D01*
X117609154Y-80557684D01*
X117485182Y-80681656D01*
X117396472Y-80825477D01*
X117344524Y-80872201D01*
X117275561Y-80883422D01*
X117211479Y-80855579D01*
X117185395Y-80825476D01*
X117119815Y-80719154D01*
X116995845Y-80595184D01*
X116846624Y-80503143D01*
X116846619Y-80503141D01*
X116680197Y-80447994D01*
X116680190Y-80447993D01*
X116577486Y-80437500D01*
X116302500Y-80437500D01*
X115802500Y-80437500D01*
X115527529Y-80437500D01*
X115527512Y-80437501D01*
X115424802Y-80447994D01*
X115258380Y-80503141D01*
X115258375Y-80503143D01*
X115109154Y-80595184D01*
X114985184Y-80719154D01*
X114893143Y-80868375D01*
X114893141Y-80868380D01*
X114837994Y-81034802D01*
X114837993Y-81034809D01*
X114827500Y-81137513D01*
X111334248Y-81137513D01*
X110635090Y-80438355D01*
X110635088Y-80438352D01*
X110516217Y-80319481D01*
X110516209Y-80319475D01*
X110412664Y-80259694D01*
X110412661Y-80259693D01*
X110412659Y-80259692D01*
X110405607Y-80255620D01*
X110379286Y-80240423D01*
X110379287Y-80240423D01*
X110318193Y-80224053D01*
X110226557Y-80199499D01*
X110068443Y-80199499D01*
X110060847Y-80199499D01*
X110060831Y-80199500D01*
X99520940Y-80199500D01*
X99480019Y-80210464D01*
X99480019Y-80210465D01*
X99442751Y-80220451D01*
X99368214Y-80240423D01*
X99368209Y-80240426D01*
X99231290Y-80319475D01*
X99231282Y-80319481D01*
X95761594Y-83789169D01*
X95761590Y-83789174D01*
X95738355Y-83829421D01*
X95738354Y-83829423D01*
X95682536Y-83926102D01*
X95641612Y-84078830D01*
X95641612Y-84236944D01*
X95641612Y-84236946D01*
X95641613Y-84246940D01*
X95641613Y-100745467D01*
X95641612Y-100745485D01*
X95641612Y-100911191D01*
X95641611Y-100911191D01*
X91527275Y-100911191D01*
X91746196Y-78581285D01*
X91749573Y-78553735D01*
X91760448Y-78508137D01*
X91831891Y-78208581D01*
X91834808Y-78198335D01*
X91960862Y-77818409D01*
X91964649Y-77808452D01*
X92122962Y-77440783D01*
X92127599Y-77431177D01*
X92316993Y-77078510D01*
X92322430Y-77069357D01*
X92541496Y-76734312D01*
X92547702Y-76725659D01*
X92794797Y-76410746D01*
X92801751Y-76402630D01*
X92909483Y-76287345D01*
X93075055Y-76110164D01*
X93082658Y-76102701D01*
X93380146Y-75834853D01*
X93388367Y-75828069D01*
X93707804Y-75586854D01*
X93716602Y-75580788D01*
X94055638Y-75367973D01*
X94064883Y-75362712D01*
X94420990Y-75179889D01*
X94430690Y-75175426D01*
X94801218Y-75023954D01*
X94811268Y-75020344D01*
X95193438Y-74901359D01*
X95203762Y-74898627D01*
X95594773Y-74812997D01*
X95605290Y-74811165D01*
X96002233Y-74759530D01*
X96012857Y-74758612D01*
X96415567Y-74741236D01*
X96420491Y-74741123D01*
X96420791Y-74741122D01*
X96484005Y-74741122D01*
X96484800Y-74740908D01*
X96488343Y-74740896D01*
X167915397Y-74508648D01*
X167920924Y-74508752D01*
G37*
%TD.AperFunction*%
%TD*%
M02*
