%TF.GenerationSoftware,KiCad,Pcbnew,9.0.1*%
%TF.CreationDate,2026-04-16T13:06:31+02:00*%
%TF.ProjectId,Odometre_Schematic,4f646f6d-6574-4726-955f-536368656d61,rev?*%
%TF.SameCoordinates,Original*%
%TF.FileFunction,Copper,L2,Bot*%
%TF.FilePolarity,Positive*%
%FSLAX46Y46*%
G04 Gerber Fmt 4.6, Leading zero omitted, Abs format (unit mm)*
G04 Created by KiCad (PCBNEW 9.0.1) date 2026-04-16 13:06:31*
%MOMM*%
%LPD*%
G01*
G04 APERTURE LIST*
G04 Aperture macros list*
%AMRoundRect*
0 Rectangle with rounded corners*
0 $1 Rounding radius*
0 $2 $3 $4 $5 $6 $7 $8 $9 X,Y pos of 4 corners*
0 Add a 4 corners polygon primitive as box body*
4,1,4,$2,$3,$4,$5,$6,$7,$8,$9,$2,$3,0*
0 Add four circle primitives for the rounded corners*
1,1,$1+$1,$2,$3*
1,1,$1+$1,$4,$5*
1,1,$1+$1,$6,$7*
1,1,$1+$1,$8,$9*
0 Add four rect primitives between the rounded corners*
20,1,$1+$1,$2,$3,$4,$5,0*
20,1,$1+$1,$4,$5,$6,$7,0*
20,1,$1+$1,$6,$7,$8,$9,0*
20,1,$1+$1,$8,$9,$2,$3,0*%
G04 Aperture macros list end*
%TA.AperFunction,ComponentPad*%
%ADD10C,2.200000*%
%TD*%
%TA.AperFunction,ComponentPad*%
%ADD11R,1.700000X1.700000*%
%TD*%
%TA.AperFunction,ComponentPad*%
%ADD12C,1.700000*%
%TD*%
%TA.AperFunction,ComponentPad*%
%ADD13RoundRect,0.250000X0.625000X-0.350000X0.625000X0.350000X-0.625000X0.350000X-0.625000X-0.350000X0*%
%TD*%
%TA.AperFunction,ComponentPad*%
%ADD14O,1.750000X1.200000*%
%TD*%
%TA.AperFunction,ComponentPad*%
%ADD15RoundRect,0.250000X-0.625000X0.350000X-0.625000X-0.350000X0.625000X-0.350000X0.625000X0.350000X0*%
%TD*%
%TA.AperFunction,ComponentPad*%
%ADD16C,5.600000*%
%TD*%
%TA.AperFunction,ComponentPad*%
%ADD17C,1.500000*%
%TD*%
%TA.AperFunction,ViaPad*%
%ADD18C,0.600000*%
%TD*%
%TA.AperFunction,ViaPad*%
%ADD19C,0.800000*%
%TD*%
%TA.AperFunction,Conductor*%
%ADD20C,0.200000*%
%TD*%
%TA.AperFunction,Conductor*%
%ADD21C,0.300000*%
%TD*%
G04 APERTURE END LIST*
D10*
%TO.P,U4,1,M*%
%TO.N,LA55-P_OUT*%
X141470000Y-127300000D03*
%TO.P,U4,2,-*%
%TO.N,GND*%
X136390000Y-127300000D03*
%TO.P,U4,3,+*%
%TO.N,+12V*%
X113530000Y-127300000D03*
%TD*%
D11*
%TO.P,J6,1,Pin_1*%
%TO.N,+3.3V*%
X126568113Y-79008137D03*
D12*
%TO.P,J6,2,Pin_2*%
%TO.N,DEBUG_SWCLK*%
X129108113Y-79008137D03*
%TO.P,J6,3,Pin_3*%
%TO.N,GND*%
X131648113Y-79008137D03*
%TO.P,J6,4,Pin_4*%
%TO.N,DEBUG_SWDIO*%
X134188113Y-79008137D03*
%TO.P,J6,5,Pin_5*%
%TO.N,NRST*%
X136728113Y-79008137D03*
%TO.P,J6,6,Pin_6*%
%TO.N,unconnected-(J6-Pin_6-Pad6)*%
X139268113Y-79008137D03*
%TD*%
D13*
%TO.P,J2,1,Pin_1*%
%TO.N,CANH*%
X165818113Y-97008137D03*
D14*
%TO.P,J2,2,Pin_2*%
%TO.N,CANL*%
X165818113Y-95008137D03*
%TO.P,J2,3,Pin_3*%
%TO.N,GND*%
X165818113Y-93008137D03*
%TD*%
D15*
%TO.P,J3,1,Pin_1*%
%TO.N,GND*%
X97418113Y-100008137D03*
D14*
%TO.P,J3,2,Pin_2*%
%TO.N,+12V*%
X97418113Y-102008137D03*
%TD*%
D13*
%TO.P,J1,1,Pin_1*%
%TO.N,CANH*%
X165818113Y-106508137D03*
D14*
%TO.P,J1,2,Pin_2*%
%TO.N,CANL*%
X165818113Y-104508137D03*
%TO.P,J1,3,Pin_3*%
%TO.N,GND*%
X165818113Y-102508137D03*
%TD*%
D16*
%TO.P,H1,1,1*%
%TO.N,GND*%
X96418110Y-79508140D03*
%TD*%
%TO.P,H3,1,1*%
%TO.N,GND*%
X96918113Y-129508137D03*
%TD*%
%TO.P,H4,1,1*%
%TO.N,GND*%
X168418113Y-130008137D03*
%TD*%
D17*
%TO.P,U5,1,1*%
%TO.N,+3.3V*%
X102570000Y-111600000D03*
%TO.P,U5,2,2*%
%TO.N,Net-(R7-Pad1)*%
X105080000Y-111600000D03*
%TO.P,U5,3,3*%
%TO.N,+3.3V*%
X107590000Y-111600000D03*
%TO.P,U5,4,4*%
%TO.N,Net-(R8-Pad1)*%
X110100000Y-111600000D03*
%TO.P,U5,5,5*%
%TO.N,+3.3V*%
X112610000Y-111600000D03*
%TO.P,U5,6,6*%
%TO.N,Net-(R9-Pad1)*%
X115120000Y-111600000D03*
%TO.P,U5,7,7*%
%TO.N,+3.3V*%
X117630000Y-111600000D03*
%TO.P,U5,8,8*%
%TO.N,Net-(R10-Pad1)*%
X120140000Y-111600000D03*
%TO.P,U5,9,9*%
%TO.N,+3.3V*%
X122650000Y-111600000D03*
%TO.P,U5,10,10*%
%TO.N,Net-(R11-Pad1)*%
X125160000Y-111600000D03*
%TD*%
D16*
%TO.P,H2,1,1*%
%TO.N,GND*%
X168500000Y-79900000D03*
%TD*%
D18*
%TO.N,+3.3V*%
X131961173Y-109838827D03*
X141900000Y-115800000D03*
%TO.N,+5V*%
X146400000Y-112600000D03*
X113200000Y-100700000D03*
D19*
%TO.N,DEBUG_SWDIO*%
X136852427Y-100942451D03*
%TO.N,FDCAN1_RX*%
X147918113Y-115508137D03*
X136818113Y-103408137D03*
D18*
%TO.N,GND*%
X164400000Y-78300000D03*
X99400000Y-87800000D03*
X158800000Y-80800000D03*
X159000000Y-120400000D03*
X131000000Y-86600000D03*
X146200000Y-78200000D03*
X113000000Y-81300000D03*
X100700000Y-77900000D03*
X101000000Y-118200000D03*
X117800000Y-78000000D03*
X139800000Y-112400000D03*
X97600000Y-84300000D03*
X128600000Y-113600000D03*
X151300000Y-97000000D03*
X143500000Y-98200000D03*
X137800000Y-93800000D03*
X110400000Y-85600000D03*
X160000000Y-105500000D03*
X106700000Y-101200000D03*
X120400000Y-104900000D03*
X155400000Y-78400000D03*
X134300000Y-119200000D03*
X150500000Y-107400000D03*
X125300000Y-90400000D03*
X120300000Y-97700000D03*
X123700000Y-97700000D03*
X159200000Y-94100000D03*
X108100000Y-77900000D03*
%TO.N,Bar2*%
X110100000Y-118500000D03*
X126500000Y-104900000D03*
%TO.N,Bar4*%
X136168113Y-104100000D03*
X122100000Y-116700000D03*
%TO.N,Bar1*%
X127874265Y-104074265D03*
X114800000Y-104200000D03*
%TO.N,Bar5*%
X127400000Y-116800000D03*
X137800000Y-104700000D03*
%TD*%
D20*
%TO.N,+3.3V*%
X135938827Y-109838827D02*
X141900000Y-115800000D01*
X131961173Y-109838827D02*
X135938827Y-109838827D01*
%TO.N,+5V*%
X146400000Y-108200000D02*
X146400000Y-112600000D01*
X128479303Y-102707137D02*
X129231303Y-103459137D01*
X130356923Y-102707137D02*
X140907137Y-102707137D01*
X113200000Y-100700000D02*
X115207137Y-102707137D01*
X115207137Y-102707137D02*
X128479303Y-102707137D01*
X140907137Y-102707137D02*
X146400000Y-108200000D01*
X129231303Y-103459137D02*
X129604923Y-103459137D01*
X129604923Y-103459137D02*
X130356923Y-102707137D01*
D21*
%TO.N,CANH*%
X167144113Y-98334137D02*
X165818113Y-97008137D01*
X165818113Y-106508137D02*
X167144113Y-105182137D01*
X167144113Y-105182137D02*
X167144113Y-98334137D01*
%TO.N,CANL*%
X165818113Y-104508137D02*
X164492113Y-103182137D01*
X164492113Y-103182137D02*
X164492113Y-96334137D01*
X164492113Y-96334137D02*
X165818113Y-95008137D01*
%TO.N,DEBUG_SWDIO*%
X134188113Y-79008137D02*
X136852427Y-81672451D01*
X136852427Y-81672451D02*
X136852427Y-100942451D01*
%TO.N,FDCAN1_RX*%
X144208137Y-115508137D02*
X147918113Y-115508137D01*
X136818113Y-103408137D02*
X136818113Y-108118113D01*
X136818113Y-108118113D02*
X144208137Y-115508137D01*
%TO.N,GND*%
X96418113Y-79508137D02*
X93618114Y-82308136D01*
D20*
X136390000Y-129398137D02*
X136500000Y-129508137D01*
D21*
X96918113Y-129508137D02*
X136500000Y-129508137D01*
X167918113Y-80008137D02*
X167918113Y-90908137D01*
X168418113Y-130008137D02*
X163941113Y-125531137D01*
D20*
X136390000Y-127300000D02*
X136390000Y-129398137D01*
D21*
X126418113Y-100008137D02*
X97418113Y-100008137D01*
X165308138Y-76708138D02*
X168500000Y-79900000D01*
X132918113Y-99508137D02*
X132918113Y-80278137D01*
X129418113Y-103008137D02*
X126418113Y-100008137D01*
X163941113Y-94885137D02*
X165818113Y-93008137D01*
X132918113Y-80278137D02*
X131648113Y-79008137D01*
X163941113Y-125531137D02*
X163941113Y-94885137D01*
X167918113Y-90908137D02*
X165818113Y-93008137D01*
X99218112Y-76708138D02*
X96418110Y-79508140D01*
X93618114Y-82308136D02*
X93618114Y-126208138D01*
X167918113Y-129508137D02*
X168418113Y-130008137D01*
X129418113Y-103008137D02*
X132918113Y-99508137D01*
X129348114Y-76708138D02*
X131648113Y-79008137D01*
X99218112Y-76708138D02*
X129348114Y-76708138D01*
X165308138Y-76708138D02*
X129348114Y-76708138D01*
X93618114Y-126208138D02*
X96918113Y-129508137D01*
X136500000Y-129508137D02*
X167918113Y-129508137D01*
D20*
%TO.N,Bar2*%
X122843661Y-104900000D02*
X126500000Y-104900000D01*
X110100000Y-118500000D02*
X116579000Y-112021000D01*
X116579000Y-111164661D02*
X122843661Y-104900000D01*
X116579000Y-112021000D02*
X116579000Y-111164661D01*
%TO.N,Bar4*%
X122100000Y-116700000D02*
X134700000Y-104100000D01*
X134700000Y-104100000D02*
X136168113Y-104100000D01*
%TO.N,Bar1*%
X114800000Y-104200000D02*
X115400000Y-103600000D01*
X127800000Y-103600000D02*
X127874265Y-103674265D01*
X115400000Y-103600000D02*
X127800000Y-103600000D01*
X127874265Y-103674265D02*
X127874265Y-104074265D01*
%TO.N,Bar5*%
X147617614Y-116800000D02*
X148619113Y-115798501D01*
X148619113Y-115798501D02*
X148619113Y-115217773D01*
X148208477Y-114807137D02*
X146207137Y-114807137D01*
X137800000Y-106400000D02*
X137800000Y-104700000D01*
X127400000Y-116800000D02*
X147617614Y-116800000D01*
X148619113Y-115217773D02*
X148208477Y-114807137D01*
X146207137Y-114807137D02*
X137800000Y-106400000D01*
%TD*%
%TA.AperFunction,Conductor*%
%TO.N,GND*%
G36*
X166014343Y-98128321D02*
G01*
X166034985Y-98144955D01*
X166457294Y-98567263D01*
X166490779Y-98628586D01*
X166493613Y-98654944D01*
X166493613Y-101312673D01*
X166473928Y-101379712D01*
X166421124Y-101425467D01*
X166351966Y-101435411D01*
X166350215Y-101435146D01*
X166179684Y-101408137D01*
X166068113Y-101408137D01*
X166068113Y-102227807D01*
X166048368Y-102208062D01*
X165962858Y-102158693D01*
X165867483Y-102133137D01*
X165768743Y-102133137D01*
X165673368Y-102158693D01*
X165587858Y-102208062D01*
X165568113Y-102227807D01*
X165568113Y-101408137D01*
X165456542Y-101408137D01*
X165286011Y-101435146D01*
X165216717Y-101426191D01*
X165163265Y-101381195D01*
X165142626Y-101314443D01*
X165142613Y-101312673D01*
X165142613Y-98232636D01*
X165162298Y-98165597D01*
X165215102Y-98119842D01*
X165266609Y-98108636D01*
X165947304Y-98108636D01*
X166014343Y-98128321D01*
G37*
%TD.AperFunction*%
%TA.AperFunction,Conductor*%
G36*
X167920924Y-74508752D02*
G01*
X168367148Y-74527210D01*
X168377319Y-74528053D01*
X168818222Y-74583012D01*
X168828302Y-74584694D01*
X169263148Y-74675873D01*
X169273056Y-74678382D01*
X169698881Y-74805157D01*
X169708564Y-74808481D01*
X170122456Y-74969985D01*
X170131820Y-74974092D01*
X170530968Y-75169225D01*
X170539981Y-75174103D01*
X170921626Y-75401516D01*
X170930207Y-75407121D01*
X171291786Y-75665286D01*
X171299869Y-75671577D01*
X171638886Y-75958713D01*
X171646426Y-75965654D01*
X171960575Y-76279805D01*
X171967516Y-76287345D01*
X172254649Y-76626365D01*
X172260944Y-76634453D01*
X172332254Y-76734329D01*
X172499475Y-76968540D01*
X172519103Y-76996030D01*
X172524708Y-77004610D01*
X172752118Y-77386259D01*
X172756996Y-77395272D01*
X172952120Y-77794409D01*
X172956237Y-77803795D01*
X173117734Y-78217683D01*
X173121061Y-78227376D01*
X173218220Y-78553735D01*
X173247824Y-78653173D01*
X173250340Y-78663108D01*
X173341510Y-79097927D01*
X173343197Y-79108036D01*
X173398147Y-79548904D01*
X173398993Y-79559117D01*
X173417506Y-80006789D01*
X173417612Y-80011913D01*
X173417612Y-130940835D01*
X173414602Y-130967989D01*
X173335631Y-131319865D01*
X173333009Y-131329658D01*
X173211970Y-131717385D01*
X173208560Y-131726920D01*
X173056236Y-132103462D01*
X173052050Y-132112702D01*
X172869471Y-132475514D01*
X172864545Y-132484380D01*
X172652924Y-132831061D01*
X172647290Y-132839495D01*
X172408037Y-133167729D01*
X172401732Y-133175674D01*
X172136457Y-133483249D01*
X172129524Y-133490652D01*
X171840007Y-133775511D01*
X171832493Y-133782323D01*
X171520655Y-134042576D01*
X171512608Y-134048751D01*
X171180534Y-134282652D01*
X171172010Y-134288149D01*
X170821949Y-134494117D01*
X170813004Y-134498899D01*
X170447261Y-134675577D01*
X170437955Y-134679611D01*
X170059021Y-134825798D01*
X170049417Y-134829059D01*
X169659785Y-134943792D01*
X169649946Y-134946257D01*
X169252237Y-135028764D01*
X169242229Y-135030416D01*
X168839122Y-135080139D01*
X168829014Y-135080968D01*
X168420207Y-135097703D01*
X168415135Y-135097807D01*
X95979449Y-135097807D01*
X95954588Y-135095289D01*
X95569448Y-135016472D01*
X95560031Y-135014158D01*
X95143116Y-134894235D01*
X95133909Y-134891192D01*
X94727651Y-134739061D01*
X94718709Y-134735308D01*
X94325566Y-134551888D01*
X94316945Y-134547447D01*
X93939360Y-134333877D01*
X93931112Y-134328777D01*
X93571342Y-134086335D01*
X93563519Y-134080605D01*
X93393672Y-133945711D01*
X93223816Y-133810808D01*
X93216473Y-133804493D01*
X92898873Y-133508955D01*
X92892038Y-133502077D01*
X92866418Y-133474195D01*
X92598517Y-133182639D01*
X92592244Y-133175251D01*
X92324586Y-132833856D01*
X92318906Y-132825997D01*
X92078740Y-132464724D01*
X92073691Y-132456444D01*
X91862491Y-132077506D01*
X91858105Y-132068857D01*
X91677167Y-131674582D01*
X91673470Y-131665617D01*
X91523894Y-131258405D01*
X91520909Y-131249179D01*
X91471719Y-131074029D01*
X91403606Y-130831501D01*
X91401360Y-130822109D01*
X91317052Y-130396525D01*
X91315547Y-130386984D01*
X91264755Y-129956127D01*
X91263998Y-129946469D01*
X91249317Y-129571377D01*
X91247016Y-129512589D01*
X91246928Y-129506583D01*
X91269796Y-127174038D01*
X111929500Y-127174038D01*
X111929500Y-127425961D01*
X111968910Y-127674785D01*
X112046760Y-127914383D01*
X112125413Y-128068747D01*
X112160995Y-128138581D01*
X112161132Y-128138848D01*
X112309201Y-128342649D01*
X112309205Y-128342654D01*
X112487345Y-128520794D01*
X112487350Y-128520798D01*
X112588449Y-128594250D01*
X112691155Y-128668870D01*
X112834184Y-128741747D01*
X112915616Y-128783239D01*
X112915618Y-128783239D01*
X112915621Y-128783241D01*
X113155215Y-128861090D01*
X113404038Y-128900500D01*
X113404039Y-128900500D01*
X113655961Y-128900500D01*
X113655962Y-128900500D01*
X113904785Y-128861090D01*
X114144379Y-128783241D01*
X114368845Y-128668870D01*
X114572656Y-128520793D01*
X114750793Y-128342656D01*
X114898870Y-128138845D01*
X115013241Y-127914379D01*
X115091090Y-127674785D01*
X115130500Y-127425962D01*
X115130500Y-127174071D01*
X134790000Y-127174071D01*
X134790000Y-127425928D01*
X134829397Y-127674669D01*
X134907219Y-127914184D01*
X135021557Y-128138583D01*
X135095748Y-128240697D01*
X135095748Y-128240698D01*
X135769824Y-127566622D01*
X135791823Y-127619732D01*
X135865693Y-127730287D01*
X135959713Y-127824307D01*
X136070268Y-127898177D01*
X136123376Y-127920175D01*
X135449300Y-128594250D01*
X135551416Y-128668442D01*
X135775815Y-128782780D01*
X136015330Y-128860602D01*
X136264072Y-128900000D01*
X136515928Y-128900000D01*
X136764669Y-128860602D01*
X137004184Y-128782780D01*
X137228575Y-128668446D01*
X137228581Y-128668442D01*
X137330697Y-128594250D01*
X137330698Y-128594250D01*
X136656622Y-127920175D01*
X136709732Y-127898177D01*
X136820287Y-127824307D01*
X136914307Y-127730287D01*
X136988177Y-127619732D01*
X137010175Y-127566622D01*
X137684250Y-128240698D01*
X137684250Y-128240697D01*
X137758442Y-128138581D01*
X137758446Y-128138575D01*
X137872780Y-127914184D01*
X137950602Y-127674669D01*
X137990000Y-127425928D01*
X137990000Y-127174071D01*
X137989995Y-127174038D01*
X139869500Y-127174038D01*
X139869500Y-127425961D01*
X139908910Y-127674785D01*
X139986760Y-127914383D01*
X140065413Y-128068747D01*
X140100995Y-128138581D01*
X140101132Y-128138848D01*
X140249201Y-128342649D01*
X140249205Y-128342654D01*
X140427345Y-128520794D01*
X140427350Y-128520798D01*
X140528449Y-128594250D01*
X140631155Y-128668870D01*
X140774184Y-128741747D01*
X140855616Y-128783239D01*
X140855618Y-128783239D01*
X140855621Y-128783241D01*
X141095215Y-128861090D01*
X141344038Y-128900500D01*
X141344039Y-128900500D01*
X141595961Y-128900500D01*
X141595962Y-128900500D01*
X141844785Y-128861090D01*
X142084379Y-128783241D01*
X142308845Y-128668870D01*
X142512656Y-128520793D01*
X142690793Y-128342656D01*
X142838870Y-128138845D01*
X142953241Y-127914379D01*
X143031090Y-127674785D01*
X143070500Y-127425962D01*
X143070500Y-127174038D01*
X143031090Y-126925215D01*
X142953241Y-126685621D01*
X142953239Y-126685618D01*
X142953239Y-126685616D01*
X142911747Y-126604184D01*
X142838870Y-126461155D01*
X142764868Y-126359300D01*
X142690798Y-126257350D01*
X142690794Y-126257345D01*
X142512654Y-126079205D01*
X142512649Y-126079201D01*
X142308848Y-125931132D01*
X142308847Y-125931131D01*
X142308845Y-125931130D01*
X142238747Y-125895413D01*
X142084383Y-125816760D01*
X141844785Y-125738910D01*
X141595962Y-125699500D01*
X141344038Y-125699500D01*
X141219626Y-125719205D01*
X141095214Y-125738910D01*
X140855616Y-125816760D01*
X140631151Y-125931132D01*
X140427350Y-126079201D01*
X140427345Y-126079205D01*
X140249205Y-126257345D01*
X140249201Y-126257350D01*
X140101132Y-126461151D01*
X139986760Y-126685616D01*
X139908910Y-126925214D01*
X139869500Y-127174038D01*
X137989995Y-127174038D01*
X137950602Y-126925330D01*
X137872780Y-126685815D01*
X137758442Y-126461416D01*
X137684250Y-126359301D01*
X137684250Y-126359300D01*
X137010175Y-127033376D01*
X136988177Y-126980268D01*
X136914307Y-126869713D01*
X136820287Y-126775693D01*
X136709732Y-126701823D01*
X136656621Y-126679823D01*
X137330698Y-126005748D01*
X137228583Y-125931557D01*
X137004184Y-125817219D01*
X136764669Y-125739397D01*
X136515928Y-125700000D01*
X136264072Y-125700000D01*
X136015330Y-125739397D01*
X135775815Y-125817219D01*
X135551413Y-125931559D01*
X135449301Y-126005747D01*
X135449300Y-126005748D01*
X136123377Y-126679824D01*
X136070268Y-126701823D01*
X135959713Y-126775693D01*
X135865693Y-126869713D01*
X135791823Y-126980268D01*
X135769824Y-127033377D01*
X135095748Y-126359300D01*
X135095747Y-126359301D01*
X135021559Y-126461413D01*
X134907219Y-126685815D01*
X134829397Y-126925330D01*
X134790000Y-127174071D01*
X115130500Y-127174071D01*
X115130500Y-127174038D01*
X115091090Y-126925215D01*
X115013241Y-126685621D01*
X115013239Y-126685618D01*
X115013239Y-126685616D01*
X114971747Y-126604184D01*
X114898870Y-126461155D01*
X114824868Y-126359300D01*
X114750798Y-126257350D01*
X114750794Y-126257345D01*
X114572654Y-126079205D01*
X114572649Y-126079201D01*
X114368848Y-125931132D01*
X114368847Y-125931131D01*
X114368845Y-125931130D01*
X114298747Y-125895413D01*
X114144383Y-125816760D01*
X113904785Y-125738910D01*
X113655962Y-125699500D01*
X113404038Y-125699500D01*
X113279626Y-125719205D01*
X113155214Y-125738910D01*
X112915616Y-125816760D01*
X112691151Y-125931132D01*
X112487350Y-126079201D01*
X112487345Y-126079205D01*
X112309205Y-126257345D01*
X112309201Y-126257350D01*
X112161132Y-126461151D01*
X112046760Y-126685616D01*
X111968910Y-126925214D01*
X111929500Y-127174038D01*
X91269796Y-127174038D01*
X91423448Y-111501577D01*
X101319500Y-111501577D01*
X101319500Y-111698422D01*
X101350290Y-111892826D01*
X101411117Y-112080029D01*
X101482858Y-112220827D01*
X101500476Y-112255405D01*
X101616172Y-112414646D01*
X101755354Y-112553828D01*
X101914595Y-112669524D01*
X101932883Y-112678842D01*
X102089970Y-112758882D01*
X102089972Y-112758882D01*
X102089975Y-112758884D01*
X102163131Y-112782654D01*
X102277173Y-112819709D01*
X102471578Y-112850500D01*
X102471583Y-112850500D01*
X102668422Y-112850500D01*
X102862826Y-112819709D01*
X103050025Y-112758884D01*
X103225405Y-112669524D01*
X103384646Y-112553828D01*
X103523828Y-112414646D01*
X103639524Y-112255405D01*
X103714515Y-112108226D01*
X103762489Y-112057430D01*
X103830310Y-112040635D01*
X103896445Y-112063172D01*
X103935485Y-112108226D01*
X104010476Y-112255405D01*
X104126172Y-112414646D01*
X104265354Y-112553828D01*
X104424595Y-112669524D01*
X104442883Y-112678842D01*
X104599970Y-112758882D01*
X104599972Y-112758882D01*
X104599975Y-112758884D01*
X104673131Y-112782654D01*
X104787173Y-112819709D01*
X104981578Y-112850500D01*
X104981583Y-112850500D01*
X105178422Y-112850500D01*
X105372826Y-112819709D01*
X105560025Y-112758884D01*
X105735405Y-112669524D01*
X105894646Y-112553828D01*
X106033828Y-112414646D01*
X106149524Y-112255405D01*
X106224515Y-112108226D01*
X106272489Y-112057430D01*
X106340310Y-112040635D01*
X106406445Y-112063172D01*
X106445485Y-112108226D01*
X106520476Y-112255405D01*
X106636172Y-112414646D01*
X106775354Y-112553828D01*
X106934595Y-112669524D01*
X106952883Y-112678842D01*
X107109970Y-112758882D01*
X107109972Y-112758882D01*
X107109975Y-112758884D01*
X107183131Y-112782654D01*
X107297173Y-112819709D01*
X107491578Y-112850500D01*
X107491583Y-112850500D01*
X107688422Y-112850500D01*
X107882826Y-112819709D01*
X108070025Y-112758884D01*
X108245405Y-112669524D01*
X108404646Y-112553828D01*
X108543828Y-112414646D01*
X108659524Y-112255405D01*
X108734515Y-112108226D01*
X108782489Y-112057430D01*
X108850310Y-112040635D01*
X108916445Y-112063172D01*
X108955485Y-112108226D01*
X109030476Y-112255405D01*
X109146172Y-112414646D01*
X109285354Y-112553828D01*
X109444595Y-112669524D01*
X109462883Y-112678842D01*
X109619970Y-112758882D01*
X109619972Y-112758882D01*
X109619975Y-112758884D01*
X109693131Y-112782654D01*
X109807173Y-112819709D01*
X110001578Y-112850500D01*
X110001583Y-112850500D01*
X110198422Y-112850500D01*
X110392826Y-112819709D01*
X110580025Y-112758884D01*
X110755405Y-112669524D01*
X110914646Y-112553828D01*
X111053828Y-112414646D01*
X111169524Y-112255405D01*
X111244515Y-112108226D01*
X111292489Y-112057430D01*
X111360310Y-112040635D01*
X111426445Y-112063172D01*
X111465485Y-112108226D01*
X111540476Y-112255405D01*
X111656172Y-112414646D01*
X111795354Y-112553828D01*
X111954595Y-112669524D01*
X111972883Y-112678842D01*
X112129970Y-112758882D01*
X112129972Y-112758882D01*
X112129975Y-112758884D01*
X112203131Y-112782654D01*
X112317173Y-112819709D01*
X112511578Y-112850500D01*
X112511583Y-112850500D01*
X112708422Y-112850500D01*
X112902826Y-112819709D01*
X113090025Y-112758884D01*
X113265405Y-112669524D01*
X113424646Y-112553828D01*
X113563828Y-112414646D01*
X113679524Y-112255405D01*
X113754515Y-112108226D01*
X113802489Y-112057430D01*
X113870310Y-112040635D01*
X113936445Y-112063172D01*
X113975485Y-112108226D01*
X114050476Y-112255405D01*
X114166172Y-112414646D01*
X114305354Y-112553828D01*
X114464595Y-112669524D01*
X114639975Y-112758884D01*
X114713134Y-112782655D01*
X114770808Y-112822091D01*
X114798007Y-112886450D01*
X114786093Y-112955296D01*
X114762496Y-112988266D01*
X110085339Y-117665425D01*
X110024016Y-117698910D01*
X110021850Y-117699361D01*
X109866508Y-117730261D01*
X109866498Y-117730264D01*
X109720827Y-117790602D01*
X109720814Y-117790609D01*
X109589711Y-117878210D01*
X109589707Y-117878213D01*
X109478213Y-117989707D01*
X109478210Y-117989711D01*
X109390609Y-118120814D01*
X109390602Y-118120827D01*
X109330264Y-118266498D01*
X109330261Y-118266510D01*
X109299500Y-118421153D01*
X109299500Y-118578846D01*
X109330261Y-118733489D01*
X109330264Y-118733501D01*
X109390602Y-118879172D01*
X109390609Y-118879185D01*
X109478210Y-119010288D01*
X109478213Y-119010292D01*
X109589707Y-119121786D01*
X109589711Y-119121789D01*
X109720814Y-119209390D01*
X109720827Y-119209397D01*
X109866498Y-119269735D01*
X109866503Y-119269737D01*
X110021153Y-119300499D01*
X110021156Y-119300500D01*
X110021158Y-119300500D01*
X110178844Y-119300500D01*
X110178845Y-119300499D01*
X110333497Y-119269737D01*
X110479179Y-119209394D01*
X110610289Y-119121789D01*
X110721789Y-119010289D01*
X110809394Y-118879179D01*
X110869737Y-118733497D01*
X110889113Y-118636085D01*
X110900638Y-118578150D01*
X110933023Y-118516239D01*
X110934518Y-118514716D01*
X116786834Y-112662400D01*
X116848155Y-112628917D01*
X116917847Y-112633901D01*
X116947398Y-112649765D01*
X116964792Y-112662402D01*
X116974595Y-112669524D01*
X117086347Y-112726464D01*
X117149970Y-112758882D01*
X117149972Y-112758882D01*
X117149975Y-112758884D01*
X117223131Y-112782654D01*
X117337173Y-112819709D01*
X117531578Y-112850500D01*
X117531583Y-112850500D01*
X117728422Y-112850500D01*
X117922826Y-112819709D01*
X118110025Y-112758884D01*
X118285405Y-112669524D01*
X118444646Y-112553828D01*
X118583828Y-112414646D01*
X118699524Y-112255405D01*
X118774515Y-112108226D01*
X118822489Y-112057430D01*
X118890310Y-112040635D01*
X118956445Y-112063172D01*
X118995485Y-112108226D01*
X119070476Y-112255405D01*
X119186172Y-112414646D01*
X119325354Y-112553828D01*
X119484595Y-112669524D01*
X119502883Y-112678842D01*
X119659970Y-112758882D01*
X119659972Y-112758882D01*
X119659975Y-112758884D01*
X119733131Y-112782654D01*
X119847173Y-112819709D01*
X120041578Y-112850500D01*
X120041583Y-112850500D01*
X120238422Y-112850500D01*
X120432826Y-112819709D01*
X120620025Y-112758884D01*
X120795405Y-112669524D01*
X120954646Y-112553828D01*
X121093828Y-112414646D01*
X121209524Y-112255405D01*
X121284515Y-112108226D01*
X121332489Y-112057430D01*
X121400310Y-112040635D01*
X121466445Y-112063172D01*
X121505485Y-112108226D01*
X121580476Y-112255405D01*
X121696172Y-112414646D01*
X121835354Y-112553828D01*
X121994595Y-112669524D01*
X122012883Y-112678842D01*
X122169970Y-112758882D01*
X122169972Y-112758882D01*
X122169975Y-112758884D01*
X122243131Y-112782654D01*
X122357173Y-112819709D01*
X122551578Y-112850500D01*
X122551583Y-112850500D01*
X122748422Y-112850500D01*
X122942826Y-112819709D01*
X123130025Y-112758884D01*
X123305405Y-112669524D01*
X123464646Y-112553828D01*
X123603828Y-112414646D01*
X123719524Y-112255405D01*
X123794515Y-112108226D01*
X123842489Y-112057430D01*
X123910310Y-112040635D01*
X123976445Y-112063172D01*
X124015485Y-112108226D01*
X124090476Y-112255405D01*
X124206172Y-112414646D01*
X124345354Y-112553828D01*
X124504595Y-112669524D01*
X124522883Y-112678842D01*
X124679970Y-112758882D01*
X124679972Y-112758882D01*
X124679975Y-112758884D01*
X124753131Y-112782654D01*
X124871808Y-112821215D01*
X124871259Y-112822903D01*
X124925229Y-112853865D01*
X124957415Y-112915880D01*
X124950965Y-112985451D01*
X124923402Y-113027362D01*
X122085339Y-115865425D01*
X122024016Y-115898910D01*
X122021850Y-115899361D01*
X121866508Y-115930261D01*
X121866498Y-115930264D01*
X121720827Y-115990602D01*
X121720814Y-115990609D01*
X121589711Y-116078210D01*
X121589707Y-116078213D01*
X121478213Y-116189707D01*
X121478210Y-116189711D01*
X121390609Y-116320814D01*
X121390602Y-116320827D01*
X121330264Y-116466498D01*
X121330261Y-116466510D01*
X121299500Y-116621153D01*
X121299500Y-116778846D01*
X121330261Y-116933489D01*
X121330264Y-116933501D01*
X121390602Y-117079172D01*
X121390609Y-117079185D01*
X121478210Y-117210288D01*
X121478213Y-117210292D01*
X121589707Y-117321786D01*
X121589711Y-117321789D01*
X121720814Y-117409390D01*
X121720827Y-117409397D01*
X121866498Y-117469735D01*
X121866503Y-117469737D01*
X122021153Y-117500499D01*
X122021156Y-117500500D01*
X122021158Y-117500500D01*
X122178844Y-117500500D01*
X122178845Y-117500499D01*
X122333497Y-117469737D01*
X122479179Y-117409394D01*
X122610289Y-117321789D01*
X122721789Y-117210289D01*
X122809394Y-117079179D01*
X122869737Y-116933497D01*
X122889113Y-116836085D01*
X122900638Y-116778150D01*
X122933023Y-116716239D01*
X122934518Y-116714716D01*
X134912416Y-104736819D01*
X134973739Y-104703334D01*
X135000097Y-104700500D01*
X135588347Y-104700500D01*
X135655386Y-104720185D01*
X135657238Y-104721398D01*
X135788927Y-104809390D01*
X135788940Y-104809397D01*
X135872488Y-104844003D01*
X135934616Y-104869737D01*
X136014510Y-104885629D01*
X136067804Y-104896230D01*
X136129715Y-104928615D01*
X136164289Y-104989330D01*
X136167613Y-105017847D01*
X136167613Y-108182182D01*
X136167613Y-108182184D01*
X136167612Y-108182184D01*
X136186883Y-108279057D01*
X136186883Y-108279058D01*
X136192610Y-108307850D01*
X136192611Y-108307855D01*
X136192612Y-108307857D01*
X136241648Y-108426240D01*
X136290997Y-108500097D01*
X136312839Y-108532786D01*
X136312840Y-108532787D01*
X141950373Y-114170318D01*
X143702861Y-115922806D01*
X143767874Y-115987819D01*
X143801358Y-116049143D01*
X143796373Y-116118834D01*
X143754502Y-116174768D01*
X143689037Y-116199184D01*
X143680192Y-116199500D01*
X142786555Y-116199500D01*
X142719516Y-116179815D01*
X142673761Y-116127011D01*
X142663817Y-116057853D01*
X142668840Y-116039588D01*
X142667969Y-116039324D01*
X142669731Y-116033509D01*
X142669737Y-116033497D01*
X142700500Y-115878842D01*
X142700500Y-115721158D01*
X142700500Y-115721155D01*
X142700499Y-115721153D01*
X142669738Y-115566510D01*
X142669737Y-115566503D01*
X142669735Y-115566498D01*
X142609397Y-115420827D01*
X142609390Y-115420814D01*
X142521789Y-115289711D01*
X142521786Y-115289707D01*
X142410292Y-115178213D01*
X142410288Y-115178210D01*
X142279185Y-115090609D01*
X142279172Y-115090602D01*
X142133501Y-115030264D01*
X142133491Y-115030261D01*
X141978151Y-114999362D01*
X141916241Y-114966977D01*
X141914662Y-114965426D01*
X136426417Y-109477182D01*
X136426415Y-109477179D01*
X136307544Y-109358308D01*
X136307543Y-109358307D01*
X136220731Y-109308187D01*
X136220731Y-109308186D01*
X136220727Y-109308185D01*
X136170612Y-109279250D01*
X136017884Y-109238326D01*
X135859770Y-109238326D01*
X135852174Y-109238326D01*
X135852158Y-109238327D01*
X132540939Y-109238327D01*
X132473900Y-109218642D01*
X132472048Y-109217429D01*
X132340358Y-109129436D01*
X132340345Y-109129429D01*
X132194674Y-109069091D01*
X132194662Y-109069088D01*
X132040018Y-109038327D01*
X132040015Y-109038327D01*
X131882331Y-109038327D01*
X131882328Y-109038327D01*
X131727683Y-109069088D01*
X131727671Y-109069091D01*
X131582000Y-109129429D01*
X131581987Y-109129436D01*
X131450884Y-109217037D01*
X131450880Y-109217040D01*
X131339386Y-109328534D01*
X131339383Y-109328538D01*
X131251782Y-109459641D01*
X131251775Y-109459654D01*
X131191437Y-109605325D01*
X131191434Y-109605337D01*
X131160673Y-109759980D01*
X131160673Y-109917673D01*
X131191434Y-110072316D01*
X131191437Y-110072328D01*
X131251775Y-110217999D01*
X131251782Y-110218012D01*
X131339383Y-110349115D01*
X131339385Y-110349118D01*
X131450880Y-110460613D01*
X131450884Y-110460616D01*
X131581987Y-110548217D01*
X131582000Y-110548224D01*
X131727671Y-110608562D01*
X131727676Y-110608564D01*
X131882326Y-110639326D01*
X131882329Y-110639327D01*
X131882331Y-110639327D01*
X132040017Y-110639327D01*
X132040018Y-110639326D01*
X132194670Y-110608564D01*
X132340352Y-110548221D01*
X132370720Y-110527930D01*
X132472048Y-110460225D01*
X132538726Y-110439347D01*
X132540939Y-110439327D01*
X135638730Y-110439327D01*
X135705769Y-110459012D01*
X135726411Y-110475646D01*
X141065425Y-115814660D01*
X141074284Y-115830885D01*
X141087216Y-115844101D01*
X141097982Y-115874284D01*
X141098910Y-115875983D01*
X141099190Y-115877302D01*
X141099500Y-115878805D01*
X141099500Y-115878842D01*
X141130263Y-116033497D01*
X141132513Y-116038930D01*
X141134891Y-116050461D01*
X141132954Y-116073940D01*
X141135503Y-116097359D01*
X141130136Y-116108113D01*
X141129149Y-116120094D01*
X141114825Y-116138799D01*
X141104309Y-116159878D01*
X141093980Y-116166024D01*
X141086672Y-116175569D01*
X141064508Y-116183562D01*
X141044266Y-116195608D01*
X141024018Y-116198164D01*
X141020946Y-116199273D01*
X141018918Y-116198808D01*
X141013445Y-116199500D01*
X127979766Y-116199500D01*
X127912727Y-116179815D01*
X127910875Y-116178602D01*
X127779185Y-116090609D01*
X127779172Y-116090602D01*
X127633501Y-116030264D01*
X127633489Y-116030261D01*
X127478845Y-115999500D01*
X127478842Y-115999500D01*
X127321158Y-115999500D01*
X127321155Y-115999500D01*
X127166510Y-116030261D01*
X127166498Y-116030264D01*
X127020827Y-116090602D01*
X127020814Y-116090609D01*
X126889711Y-116178210D01*
X126889707Y-116178213D01*
X126778213Y-116289707D01*
X126778210Y-116289711D01*
X126690609Y-116420814D01*
X126690602Y-116420827D01*
X126630264Y-116566498D01*
X126630261Y-116566510D01*
X126599500Y-116721153D01*
X126599500Y-116878846D01*
X126630261Y-117033489D01*
X126630264Y-117033501D01*
X126690602Y-117179172D01*
X126690609Y-117179185D01*
X126778210Y-117310288D01*
X126778213Y-117310292D01*
X126889707Y-117421786D01*
X126889711Y-117421789D01*
X127020814Y-117509390D01*
X127020827Y-117509397D01*
X127166498Y-117569735D01*
X127166503Y-117569737D01*
X127321153Y-117600499D01*
X127321156Y-117600500D01*
X127321158Y-117600500D01*
X127478844Y-117600500D01*
X127478845Y-117600499D01*
X127633497Y-117569737D01*
X127779179Y-117509394D01*
X127792491Y-117500499D01*
X127910875Y-117421398D01*
X127977553Y-117400520D01*
X127979766Y-117400500D01*
X147530945Y-117400500D01*
X147530961Y-117400501D01*
X147538557Y-117400501D01*
X147696668Y-117400501D01*
X147696671Y-117400501D01*
X147849399Y-117359577D01*
X147914849Y-117321789D01*
X147986330Y-117280520D01*
X148098134Y-117168716D01*
X148098134Y-117168714D01*
X148108338Y-117158511D01*
X148108342Y-117158506D01*
X148977619Y-116289229D01*
X148977624Y-116289225D01*
X148987827Y-116279021D01*
X148987829Y-116279021D01*
X149099633Y-116167217D01*
X149178690Y-116030285D01*
X149219613Y-115877558D01*
X149219613Y-115306832D01*
X149219614Y-115306819D01*
X149219614Y-115138718D01*
X149219614Y-115138716D01*
X149178690Y-114985988D01*
X149121748Y-114887362D01*
X149099633Y-114849057D01*
X148987829Y-114737253D01*
X148987826Y-114737251D01*
X148696067Y-114445492D01*
X148696065Y-114445489D01*
X148577194Y-114326618D01*
X148577193Y-114326617D01*
X148490381Y-114276497D01*
X148490381Y-114276496D01*
X148490377Y-114276495D01*
X148440262Y-114247560D01*
X148287534Y-114206636D01*
X148129420Y-114206636D01*
X148121824Y-114206636D01*
X148121808Y-114206637D01*
X146507234Y-114206637D01*
X146440195Y-114186952D01*
X146419553Y-114170318D01*
X138436819Y-106187584D01*
X138403334Y-106126261D01*
X138400500Y-106099903D01*
X138400500Y-105279765D01*
X138420185Y-105212726D01*
X138421398Y-105210874D01*
X138509390Y-105079185D01*
X138509390Y-105079184D01*
X138509394Y-105079179D01*
X138569737Y-104933497D01*
X138600500Y-104778842D01*
X138600500Y-104621158D01*
X138600500Y-104621155D01*
X138600499Y-104621153D01*
X138595246Y-104594747D01*
X138569737Y-104466503D01*
X138537929Y-104389711D01*
X138509397Y-104320827D01*
X138509390Y-104320814D01*
X138421789Y-104189711D01*
X138421786Y-104189707D01*
X138310292Y-104078213D01*
X138310288Y-104078210D01*
X138179185Y-103990609D01*
X138179172Y-103990602D01*
X138033501Y-103930264D01*
X138033489Y-103930261D01*
X137878845Y-103899500D01*
X137878842Y-103899500D01*
X137774857Y-103899500D01*
X137707818Y-103879815D01*
X137662063Y-103827011D01*
X137652119Y-103757853D01*
X137660295Y-103728049D01*
X137684007Y-103670803D01*
X137718613Y-103496828D01*
X137718613Y-103431637D01*
X137738298Y-103364598D01*
X137791102Y-103318843D01*
X137842613Y-103307637D01*
X140607040Y-103307637D01*
X140674079Y-103327322D01*
X140694721Y-103343956D01*
X145763181Y-108412416D01*
X145796666Y-108473739D01*
X145799500Y-108500097D01*
X145799500Y-112020234D01*
X145779815Y-112087273D01*
X145778602Y-112089125D01*
X145690609Y-112220814D01*
X145690602Y-112220827D01*
X145630264Y-112366498D01*
X145630261Y-112366510D01*
X145599500Y-112521153D01*
X145599500Y-112678846D01*
X145630261Y-112833489D01*
X145630264Y-112833501D01*
X145690602Y-112979172D01*
X145690609Y-112979185D01*
X145778210Y-113110288D01*
X145778213Y-113110292D01*
X145889707Y-113221786D01*
X145889711Y-113221789D01*
X146020814Y-113309390D01*
X146020827Y-113309397D01*
X146166498Y-113369735D01*
X146166503Y-113369737D01*
X146321153Y-113400499D01*
X146321156Y-113400500D01*
X146321158Y-113400500D01*
X146478844Y-113400500D01*
X146478845Y-113400499D01*
X146633497Y-113369737D01*
X146779179Y-113309394D01*
X146910289Y-113221789D01*
X147021789Y-113110289D01*
X147109394Y-112979179D01*
X147169737Y-112833497D01*
X147200500Y-112678842D01*
X147200500Y-112521158D01*
X147200500Y-112521155D01*
X147200499Y-112521153D01*
X147169737Y-112366503D01*
X147123719Y-112255405D01*
X147109397Y-112220827D01*
X147109390Y-112220814D01*
X147021398Y-112089125D01*
X147000520Y-112022447D01*
X147000500Y-112020234D01*
X147000500Y-108120945D01*
X147000500Y-108120943D01*
X146959577Y-107968216D01*
X146890556Y-107848667D01*
X146880524Y-107831290D01*
X146880521Y-107831286D01*
X146880520Y-107831284D01*
X146768716Y-107719480D01*
X146768715Y-107719479D01*
X146764385Y-107715149D01*
X146764374Y-107715139D01*
X141394727Y-102345492D01*
X141394725Y-102345489D01*
X141275854Y-102226618D01*
X141275853Y-102226617D01*
X141189041Y-102176497D01*
X141189041Y-102176496D01*
X141189037Y-102176495D01*
X141138922Y-102147560D01*
X140986194Y-102106636D01*
X140828080Y-102106636D01*
X140820484Y-102106636D01*
X140820468Y-102106637D01*
X130443593Y-102106637D01*
X130443577Y-102106636D01*
X130435981Y-102106636D01*
X130277866Y-102106636D01*
X130201502Y-102127098D01*
X130125137Y-102147560D01*
X130125132Y-102147563D01*
X129988213Y-102226612D01*
X129988205Y-102226618D01*
X129505793Y-102709030D01*
X129444470Y-102742515D01*
X129374778Y-102737531D01*
X129330433Y-102709031D01*
X128966892Y-102345491D01*
X128966891Y-102345489D01*
X128848020Y-102226618D01*
X128848019Y-102226617D01*
X128761207Y-102176497D01*
X128761207Y-102176496D01*
X128761203Y-102176495D01*
X128711088Y-102147560D01*
X128558360Y-102106636D01*
X128400246Y-102106636D01*
X128392650Y-102106636D01*
X128392634Y-102106637D01*
X115507234Y-102106637D01*
X115440195Y-102086952D01*
X115419553Y-102070318D01*
X114034574Y-100685339D01*
X114001089Y-100624016D01*
X114000638Y-100621849D01*
X113979565Y-100515910D01*
X113969737Y-100466503D01*
X113969735Y-100466498D01*
X113909397Y-100320827D01*
X113909390Y-100320814D01*
X113821789Y-100189711D01*
X113821786Y-100189707D01*
X113710292Y-100078213D01*
X113710288Y-100078210D01*
X113579185Y-99990609D01*
X113579172Y-99990602D01*
X113433501Y-99930264D01*
X113433489Y-99930261D01*
X113278845Y-99899500D01*
X113278842Y-99899500D01*
X113121158Y-99899500D01*
X113121155Y-99899500D01*
X112966510Y-99930261D01*
X112966498Y-99930264D01*
X112820827Y-99990602D01*
X112820814Y-99990609D01*
X112689711Y-100078210D01*
X112689707Y-100078213D01*
X112578213Y-100189707D01*
X112578210Y-100189711D01*
X112490609Y-100320814D01*
X112490602Y-100320827D01*
X112430264Y-100466498D01*
X112430261Y-100466510D01*
X112399500Y-100621153D01*
X112399500Y-100778846D01*
X112430261Y-100933489D01*
X112430264Y-100933501D01*
X112490602Y-101079172D01*
X112490609Y-101079185D01*
X112578210Y-101210288D01*
X112578213Y-101210292D01*
X112689707Y-101321786D01*
X112689711Y-101321789D01*
X112820814Y-101409390D01*
X112820827Y-101409397D01*
X112966498Y-101469735D01*
X112966503Y-101469737D01*
X113031147Y-101482595D01*
X113121849Y-101500638D01*
X113183760Y-101533023D01*
X113185339Y-101534574D01*
X114726615Y-103075850D01*
X114726617Y-103075853D01*
X114813083Y-103162319D01*
X114846567Y-103223640D01*
X114846566Y-103223641D01*
X114846567Y-103223642D01*
X114841583Y-103293333D01*
X114841578Y-103293339D01*
X114813084Y-103337679D01*
X114785339Y-103365425D01*
X114724016Y-103398911D01*
X114721848Y-103399362D01*
X114566508Y-103430261D01*
X114566498Y-103430264D01*
X114420827Y-103490602D01*
X114420814Y-103490609D01*
X114289711Y-103578210D01*
X114289707Y-103578213D01*
X114178213Y-103689707D01*
X114178210Y-103689711D01*
X114090609Y-103820814D01*
X114090602Y-103820827D01*
X114030264Y-103966498D01*
X114030261Y-103966510D01*
X113999500Y-104121153D01*
X113999500Y-104278846D01*
X114030261Y-104433489D01*
X114030264Y-104433501D01*
X114090602Y-104579172D01*
X114090609Y-104579185D01*
X114178210Y-104710288D01*
X114178213Y-104710292D01*
X114289707Y-104821786D01*
X114289711Y-104821789D01*
X114420814Y-104909390D01*
X114420827Y-104909397D01*
X114566498Y-104969735D01*
X114566503Y-104969737D01*
X114721153Y-105000499D01*
X114721156Y-105000500D01*
X114721158Y-105000500D01*
X114878844Y-105000500D01*
X114878845Y-105000499D01*
X115033497Y-104969737D01*
X115179179Y-104909394D01*
X115310289Y-104821789D01*
X115421789Y-104710289D01*
X115509394Y-104579179D01*
X115569737Y-104433497D01*
X115592149Y-104320827D01*
X115596231Y-104300308D01*
X115628616Y-104238397D01*
X115689332Y-104203823D01*
X115717848Y-104200500D01*
X122395033Y-104200500D01*
X122462072Y-104220185D01*
X122507827Y-104272989D01*
X122517771Y-104342147D01*
X122488746Y-104405703D01*
X122480465Y-104413506D01*
X122480692Y-104413733D01*
X116210285Y-110684139D01*
X116210284Y-110684141D01*
X116179131Y-110715294D01*
X116179129Y-110715296D01*
X116117805Y-110748780D01*
X116048114Y-110743794D01*
X116003768Y-110715294D01*
X115934648Y-110646174D01*
X115934646Y-110646172D01*
X115775405Y-110530476D01*
X115770408Y-110527930D01*
X115600029Y-110441117D01*
X115412826Y-110380290D01*
X115218422Y-110349500D01*
X115218417Y-110349500D01*
X115021583Y-110349500D01*
X115021578Y-110349500D01*
X114827173Y-110380290D01*
X114639970Y-110441117D01*
X114464594Y-110530476D01*
X114373741Y-110596485D01*
X114305354Y-110646172D01*
X114305352Y-110646174D01*
X114305351Y-110646174D01*
X114166174Y-110785351D01*
X114166174Y-110785352D01*
X114166172Y-110785354D01*
X114116485Y-110853741D01*
X114050476Y-110944594D01*
X113975485Y-111091773D01*
X113927510Y-111142569D01*
X113859689Y-111159364D01*
X113793554Y-111136827D01*
X113754515Y-111091773D01*
X113679523Y-110944594D01*
X113563828Y-110785354D01*
X113424646Y-110646172D01*
X113265405Y-110530476D01*
X113260408Y-110527930D01*
X113090029Y-110441117D01*
X112902826Y-110380290D01*
X112708422Y-110349500D01*
X112708417Y-110349500D01*
X112511583Y-110349500D01*
X112511578Y-110349500D01*
X112317173Y-110380290D01*
X112129970Y-110441117D01*
X111954594Y-110530476D01*
X111863741Y-110596485D01*
X111795354Y-110646172D01*
X111795352Y-110646174D01*
X111795351Y-110646174D01*
X111656174Y-110785351D01*
X111656174Y-110785352D01*
X111656172Y-110785354D01*
X111606485Y-110853741D01*
X111540476Y-110944594D01*
X111465485Y-111091773D01*
X111417510Y-111142569D01*
X111349689Y-111159364D01*
X111283554Y-111136827D01*
X111244515Y-111091773D01*
X111169523Y-110944594D01*
X111053828Y-110785354D01*
X110914646Y-110646172D01*
X110755405Y-110530476D01*
X110750408Y-110527930D01*
X110580029Y-110441117D01*
X110392826Y-110380290D01*
X110198422Y-110349500D01*
X110198417Y-110349500D01*
X110001583Y-110349500D01*
X110001578Y-110349500D01*
X109807173Y-110380290D01*
X109619970Y-110441117D01*
X109444594Y-110530476D01*
X109353741Y-110596485D01*
X109285354Y-110646172D01*
X109285352Y-110646174D01*
X109285351Y-110646174D01*
X109146174Y-110785351D01*
X109146174Y-110785352D01*
X109146172Y-110785354D01*
X109096485Y-110853741D01*
X109030476Y-110944594D01*
X108955485Y-111091773D01*
X108907510Y-111142569D01*
X108839689Y-111159364D01*
X108773554Y-111136827D01*
X108734515Y-111091773D01*
X108659523Y-110944594D01*
X108543828Y-110785354D01*
X108404646Y-110646172D01*
X108245405Y-110530476D01*
X108240408Y-110527930D01*
X108070029Y-110441117D01*
X107882826Y-110380290D01*
X107688422Y-110349500D01*
X107688417Y-110349500D01*
X107491583Y-110349500D01*
X107491578Y-110349500D01*
X107297173Y-110380290D01*
X107109970Y-110441117D01*
X106934594Y-110530476D01*
X106843741Y-110596485D01*
X106775354Y-110646172D01*
X106775352Y-110646174D01*
X106775351Y-110646174D01*
X106636174Y-110785351D01*
X106636174Y-110785352D01*
X106636172Y-110785354D01*
X106586485Y-110853741D01*
X106520476Y-110944594D01*
X106445485Y-111091773D01*
X106397510Y-111142569D01*
X106329689Y-111159364D01*
X106263554Y-111136827D01*
X106224515Y-111091773D01*
X106149523Y-110944594D01*
X106033828Y-110785354D01*
X105894646Y-110646172D01*
X105735405Y-110530476D01*
X105730408Y-110527930D01*
X105560029Y-110441117D01*
X105372826Y-110380290D01*
X105178422Y-110349500D01*
X105178417Y-110349500D01*
X104981583Y-110349500D01*
X104981578Y-110349500D01*
X104787173Y-110380290D01*
X104599970Y-110441117D01*
X104424594Y-110530476D01*
X104333741Y-110596485D01*
X104265354Y-110646172D01*
X104265352Y-110646174D01*
X104265351Y-110646174D01*
X104126174Y-110785351D01*
X104126174Y-110785352D01*
X104126172Y-110785354D01*
X104076485Y-110853741D01*
X104010476Y-110944594D01*
X103935485Y-111091773D01*
X103887510Y-111142569D01*
X103819689Y-111159364D01*
X103753554Y-111136827D01*
X103714515Y-111091773D01*
X103639523Y-110944594D01*
X103523828Y-110785354D01*
X103384646Y-110646172D01*
X103225405Y-110530476D01*
X103220408Y-110527930D01*
X103050029Y-110441117D01*
X102862826Y-110380290D01*
X102668422Y-110349500D01*
X102668417Y-110349500D01*
X102471583Y-110349500D01*
X102471578Y-110349500D01*
X102277173Y-110380290D01*
X102089970Y-110441117D01*
X101914594Y-110530476D01*
X101823741Y-110596485D01*
X101755354Y-110646172D01*
X101755352Y-110646174D01*
X101755351Y-110646174D01*
X101616174Y-110785351D01*
X101616174Y-110785352D01*
X101616172Y-110785354D01*
X101566485Y-110853741D01*
X101500476Y-110944594D01*
X101411117Y-111119970D01*
X101350290Y-111307173D01*
X101319500Y-111501577D01*
X91423448Y-111501577D01*
X91517370Y-101921526D01*
X96042613Y-101921526D01*
X96042613Y-102094748D01*
X96069711Y-102265838D01*
X96123240Y-102430582D01*
X96201881Y-102584925D01*
X96303699Y-102725065D01*
X96426185Y-102847551D01*
X96566325Y-102949369D01*
X96720668Y-103028010D01*
X96885412Y-103081539D01*
X97056502Y-103108637D01*
X97056503Y-103108637D01*
X97779723Y-103108637D01*
X97779724Y-103108637D01*
X97950814Y-103081539D01*
X98115558Y-103028010D01*
X98269901Y-102949369D01*
X98410041Y-102847551D01*
X98532527Y-102725065D01*
X98634345Y-102584925D01*
X98712986Y-102430582D01*
X98766515Y-102265838D01*
X98793613Y-102094748D01*
X98793613Y-101921526D01*
X98766515Y-101750436D01*
X98712986Y-101585692D01*
X98634345Y-101431349D01*
X98532527Y-101291209D01*
X98424621Y-101183303D01*
X98391136Y-101121980D01*
X98396120Y-101052288D01*
X98437992Y-100996355D01*
X98447207Y-100990082D01*
X98511458Y-100950452D01*
X98635428Y-100826482D01*
X98727469Y-100677261D01*
X98727471Y-100677256D01*
X98782618Y-100510834D01*
X98782619Y-100510827D01*
X98793112Y-100408123D01*
X98793113Y-100408110D01*
X98793113Y-100258137D01*
X97698443Y-100258137D01*
X97718188Y-100238392D01*
X97767557Y-100152882D01*
X97793113Y-100057507D01*
X97793113Y-99958767D01*
X97767557Y-99863392D01*
X97718188Y-99777882D01*
X97698443Y-99758137D01*
X98793112Y-99758137D01*
X98793112Y-99608165D01*
X98793111Y-99608150D01*
X98782618Y-99505439D01*
X98727471Y-99339017D01*
X98727469Y-99339012D01*
X98635428Y-99189791D01*
X98511458Y-99065821D01*
X98362237Y-98973780D01*
X98362232Y-98973778D01*
X98195810Y-98918631D01*
X98195803Y-98918630D01*
X98093099Y-98908137D01*
X97668113Y-98908137D01*
X97668113Y-99727807D01*
X97648368Y-99708062D01*
X97562858Y-99658693D01*
X97467483Y-99633137D01*
X97368743Y-99633137D01*
X97273368Y-99658693D01*
X97187858Y-99708062D01*
X97168113Y-99727807D01*
X97168113Y-98908137D01*
X96743141Y-98908137D01*
X96743125Y-98908138D01*
X96640415Y-98918631D01*
X96473993Y-98973778D01*
X96473988Y-98973780D01*
X96324767Y-99065821D01*
X96200797Y-99189791D01*
X96108756Y-99339012D01*
X96108754Y-99339017D01*
X96053607Y-99505439D01*
X96053606Y-99505446D01*
X96043113Y-99608150D01*
X96043113Y-99758137D01*
X97137783Y-99758137D01*
X97118038Y-99777882D01*
X97068669Y-99863392D01*
X97043113Y-99958767D01*
X97043113Y-100057507D01*
X97068669Y-100152882D01*
X97118038Y-100238392D01*
X97137783Y-100258137D01*
X96043114Y-100258137D01*
X96043114Y-100408123D01*
X96053607Y-100510834D01*
X96108754Y-100677256D01*
X96108756Y-100677261D01*
X96200797Y-100826482D01*
X96324769Y-100950454D01*
X96389019Y-100990083D01*
X96435744Y-101042030D01*
X96446967Y-101110993D01*
X96419124Y-101175075D01*
X96411605Y-101183303D01*
X96303698Y-101291210D01*
X96201881Y-101431348D01*
X96123241Y-101585689D01*
X96069710Y-101750439D01*
X96055058Y-101842950D01*
X96042613Y-101921526D01*
X91517370Y-101921526D01*
X91746196Y-78581285D01*
X91749573Y-78553735D01*
X91760448Y-78508137D01*
X91831891Y-78208581D01*
X91834806Y-78198341D01*
X91864026Y-78110272D01*
X125217613Y-78110272D01*
X125217613Y-79906007D01*
X125217614Y-79906013D01*
X125224021Y-79965620D01*
X125274315Y-80100465D01*
X125274319Y-80100472D01*
X125360565Y-80215681D01*
X125360568Y-80215684D01*
X125475777Y-80301930D01*
X125475784Y-80301934D01*
X125610630Y-80352228D01*
X125610629Y-80352228D01*
X125617557Y-80352972D01*
X125670240Y-80358637D01*
X127465985Y-80358636D01*
X127525596Y-80352228D01*
X127660444Y-80301933D01*
X127775659Y-80215683D01*
X127861909Y-80100468D01*
X127910923Y-79969053D01*
X127952794Y-79913121D01*
X128018258Y-79888703D01*
X128086531Y-79903554D01*
X128114786Y-79924706D01*
X128228326Y-80038246D01*
X128400292Y-80163185D01*
X128400294Y-80163186D01*
X128400297Y-80163188D01*
X128589701Y-80259694D01*
X128791870Y-80325383D01*
X129001826Y-80358637D01*
X129001827Y-80358637D01*
X129214399Y-80358637D01*
X129214400Y-80358637D01*
X129424356Y-80325383D01*
X129626525Y-80259694D01*
X129815929Y-80163188D01*
X129902251Y-80100472D01*
X129987899Y-80038246D01*
X129987901Y-80038243D01*
X129987905Y-80038241D01*
X130138217Y-79887929D01*
X130138219Y-79887925D01*
X130138222Y-79887923D01*
X130224003Y-79769854D01*
X130263164Y-79715953D01*
X130267906Y-79706645D01*
X130315876Y-79655848D01*
X130383696Y-79639048D01*
X130449832Y-79661582D01*
X130488876Y-79706637D01*
X130493486Y-79715684D01*
X130532841Y-79769853D01*
X131165150Y-79137545D01*
X131182188Y-79201130D01*
X131248014Y-79315144D01*
X131341106Y-79408236D01*
X131455120Y-79474062D01*
X131518703Y-79491099D01*
X130886395Y-80123406D01*
X130886395Y-80123407D01*
X130940562Y-80162761D01*
X131129895Y-80259232D01*
X131331983Y-80324894D01*
X131541867Y-80358137D01*
X131754359Y-80358137D01*
X131964240Y-80324894D01*
X131964243Y-80324894D01*
X132166330Y-80259232D01*
X132355667Y-80162759D01*
X132409829Y-80123407D01*
X132409830Y-80123407D01*
X131777521Y-79491099D01*
X131841106Y-79474062D01*
X131955120Y-79408236D01*
X132048212Y-79315144D01*
X132114038Y-79201130D01*
X132131075Y-79137545D01*
X132763383Y-79769854D01*
X132763383Y-79769853D01*
X132802735Y-79715692D01*
X132807345Y-79706644D01*
X132855318Y-79655846D01*
X132923138Y-79639049D01*
X132989274Y-79661584D01*
X133028317Y-79706641D01*
X133033062Y-79715954D01*
X133158003Y-79887923D01*
X133308326Y-80038246D01*
X133480292Y-80163185D01*
X133480294Y-80163186D01*
X133480297Y-80163188D01*
X133669701Y-80259694D01*
X133871870Y-80325383D01*
X134081826Y-80358637D01*
X134081827Y-80358637D01*
X134294399Y-80358637D01*
X134294400Y-80358637D01*
X134404224Y-80341242D01*
X134509168Y-80324621D01*
X134509428Y-80326265D01*
X134571965Y-80329387D01*
X134618824Y-80358794D01*
X136165608Y-81905578D01*
X136199093Y-81966901D01*
X136201927Y-81993259D01*
X136201927Y-100268089D01*
X136182242Y-100335128D01*
X136165608Y-100355770D01*
X136152965Y-100368412D01*
X136152962Y-100368416D01*
X136054417Y-100515897D01*
X136054410Y-100515910D01*
X135986533Y-100679783D01*
X135986530Y-100679792D01*
X135951927Y-100853755D01*
X135951927Y-101031146D01*
X135986530Y-101205109D01*
X135986533Y-101205118D01*
X136054410Y-101368991D01*
X136054417Y-101369004D01*
X136152962Y-101516485D01*
X136152965Y-101516489D01*
X136278388Y-101641912D01*
X136278392Y-101641915D01*
X136425873Y-101740460D01*
X136425886Y-101740467D01*
X136548790Y-101791374D01*
X136589761Y-101808345D01*
X136589763Y-101808345D01*
X136589768Y-101808347D01*
X136763731Y-101842950D01*
X136763734Y-101842951D01*
X136763736Y-101842951D01*
X136941120Y-101842951D01*
X136941121Y-101842950D01*
X136999109Y-101831415D01*
X137115085Y-101808347D01*
X137115088Y-101808345D01*
X137115093Y-101808345D01*
X137278974Y-101740464D01*
X137426462Y-101641915D01*
X137551891Y-101516486D01*
X137650440Y-101368998D01*
X137718321Y-101205117D01*
X137725561Y-101168723D01*
X137752926Y-101031146D01*
X137752927Y-101031144D01*
X137752927Y-100853757D01*
X137752926Y-100853755D01*
X137718323Y-100679792D01*
X137718320Y-100679783D01*
X137717275Y-100677261D01*
X137694035Y-100621153D01*
X137650443Y-100515910D01*
X137650436Y-100515897D01*
X137551891Y-100368416D01*
X137551888Y-100368412D01*
X137539246Y-100355770D01*
X137505761Y-100294447D01*
X137502927Y-100268089D01*
X137502927Y-96270065D01*
X163841613Y-96270065D01*
X163841613Y-103246208D01*
X163865216Y-103364863D01*
X163865216Y-103364865D01*
X163865217Y-103364865D01*
X163866612Y-103371883D01*
X163892647Y-103434735D01*
X163915648Y-103490264D01*
X163986836Y-103596806D01*
X163986839Y-103596810D01*
X163986840Y-103596811D01*
X164457854Y-104067824D01*
X164491339Y-104129147D01*
X164488105Y-104193821D01*
X164469710Y-104250436D01*
X164458564Y-104320814D01*
X164442613Y-104421526D01*
X164442613Y-104594748D01*
X164469711Y-104765838D01*
X164516354Y-104909390D01*
X164523241Y-104930584D01*
X164547832Y-104978846D01*
X164601881Y-105084925D01*
X164703699Y-105225065D01*
X164703701Y-105225067D01*
X164811240Y-105332606D01*
X164844725Y-105393929D01*
X164839741Y-105463621D01*
X164797869Y-105519554D01*
X164788657Y-105525825D01*
X164724457Y-105565424D01*
X164600402Y-105689479D01*
X164508300Y-105838800D01*
X164508299Y-105838803D01*
X164453114Y-106005340D01*
X164453114Y-106005341D01*
X164453113Y-106005341D01*
X164442613Y-106108120D01*
X164442613Y-106908138D01*
X164442614Y-106908156D01*
X164453113Y-107010933D01*
X164453114Y-107010936D01*
X164499253Y-107150171D01*
X164508299Y-107177471D01*
X164600401Y-107326793D01*
X164724457Y-107450849D01*
X164873779Y-107542951D01*
X165040316Y-107598136D01*
X165143104Y-107608637D01*
X166493121Y-107608636D01*
X166595910Y-107598136D01*
X166762447Y-107542951D01*
X166911769Y-107450849D01*
X167035825Y-107326793D01*
X167127927Y-107177471D01*
X167183112Y-107010934D01*
X167193613Y-106908146D01*
X167193612Y-106108129D01*
X167193612Y-106108128D01*
X167193612Y-106104972D01*
X167195001Y-106104972D01*
X167209963Y-106042362D01*
X167229874Y-106016319D01*
X167649389Y-105596806D01*
X167720578Y-105490264D01*
X167769614Y-105371881D01*
X167773968Y-105349992D01*
X167777426Y-105332606D01*
X167794613Y-105246208D01*
X167794613Y-98270065D01*
X167769615Y-98144398D01*
X167769614Y-98144397D01*
X167769614Y-98144393D01*
X167720578Y-98026010D01*
X167720577Y-98026009D01*
X167720574Y-98026003D01*
X167649390Y-97919469D01*
X167649389Y-97919468D01*
X167558782Y-97828861D01*
X167229882Y-97499961D01*
X167196397Y-97438638D01*
X167194163Y-97411303D01*
X167193613Y-97411303D01*
X167193612Y-96608135D01*
X167193611Y-96608117D01*
X167183112Y-96505340D01*
X167183111Y-96505337D01*
X167127927Y-96338803D01*
X167035825Y-96189481D01*
X166911769Y-96065425D01*
X166911765Y-96065422D01*
X166847569Y-96025825D01*
X166800844Y-95973877D01*
X166789623Y-95904914D01*
X166817466Y-95840832D01*
X166824963Y-95832628D01*
X166932527Y-95725065D01*
X167034345Y-95584925D01*
X167112986Y-95430582D01*
X167166515Y-95265838D01*
X167193613Y-95094748D01*
X167193613Y-94921526D01*
X167166515Y-94750436D01*
X167112986Y-94585692D01*
X167034345Y-94431349D01*
X166932527Y-94291209D01*
X166810041Y-94168723D01*
X166726663Y-94108145D01*
X166683998Y-94052814D01*
X166678019Y-93983201D01*
X166710625Y-93921406D01*
X166726665Y-93907508D01*
X166809711Y-93847173D01*
X166932145Y-93724739D01*
X167033917Y-93584661D01*
X167112521Y-93430392D01*
X167166027Y-93265721D01*
X167167228Y-93258137D01*
X166098443Y-93258137D01*
X166118188Y-93238392D01*
X166167557Y-93152882D01*
X166193113Y-93057507D01*
X166193113Y-92958767D01*
X166167557Y-92863392D01*
X166118188Y-92777882D01*
X166098443Y-92758137D01*
X167167228Y-92758137D01*
X167167228Y-92758136D01*
X167166027Y-92750552D01*
X167112521Y-92585881D01*
X167033917Y-92431612D01*
X166932145Y-92291534D01*
X166809715Y-92169104D01*
X166669637Y-92067332D01*
X166515370Y-91988728D01*
X166350697Y-91935222D01*
X166179684Y-91908137D01*
X166068113Y-91908137D01*
X166068113Y-92727807D01*
X166048368Y-92708062D01*
X165962858Y-92658693D01*
X165867483Y-92633137D01*
X165768743Y-92633137D01*
X165673368Y-92658693D01*
X165587858Y-92708062D01*
X165568113Y-92727807D01*
X165568113Y-91908137D01*
X165456542Y-91908137D01*
X165285528Y-91935222D01*
X165120855Y-91988728D01*
X164966588Y-92067332D01*
X164826510Y-92169104D01*
X164704080Y-92291534D01*
X164602308Y-92431612D01*
X164523704Y-92585881D01*
X164470198Y-92750552D01*
X164468997Y-92758136D01*
X164468998Y-92758137D01*
X165537783Y-92758137D01*
X165518038Y-92777882D01*
X165468669Y-92863392D01*
X165443113Y-92958767D01*
X165443113Y-93057507D01*
X165468669Y-93152882D01*
X165518038Y-93238392D01*
X165537783Y-93258137D01*
X164468998Y-93258137D01*
X164470198Y-93265721D01*
X164523704Y-93430392D01*
X164602308Y-93584661D01*
X164704080Y-93724739D01*
X164826514Y-93847173D01*
X164909560Y-93907508D01*
X164952227Y-93962838D01*
X164958206Y-94032451D01*
X164925601Y-94094246D01*
X164909563Y-94108144D01*
X164826185Y-94168722D01*
X164703701Y-94291206D01*
X164703701Y-94291207D01*
X164703699Y-94291209D01*
X164659972Y-94351393D01*
X164601881Y-94431348D01*
X164523241Y-94585689D01*
X164469710Y-94750439D01*
X164442613Y-94921526D01*
X164442613Y-95094747D01*
X164469711Y-95265841D01*
X164488104Y-95322450D01*
X164490099Y-95392291D01*
X164457854Y-95448448D01*
X163986838Y-95919465D01*
X163986835Y-95919468D01*
X163950851Y-95973322D01*
X163950852Y-95973323D01*
X163915647Y-96026011D01*
X163866612Y-96144392D01*
X163866610Y-96144398D01*
X163841613Y-96270065D01*
X137502927Y-96270065D01*
X137502927Y-81608379D01*
X137477929Y-81482712D01*
X137477928Y-81482711D01*
X137477928Y-81482707D01*
X137428892Y-81364324D01*
X137357704Y-81257782D01*
X137357702Y-81257780D01*
X137357700Y-81257777D01*
X137357699Y-81257776D01*
X136670240Y-80570318D01*
X136636755Y-80508995D01*
X136641739Y-80439304D01*
X136683610Y-80383370D01*
X136749075Y-80358953D01*
X136757921Y-80358637D01*
X136834399Y-80358637D01*
X136834400Y-80358637D01*
X137044356Y-80325383D01*
X137246525Y-80259694D01*
X137435929Y-80163188D01*
X137522251Y-80100472D01*
X137607899Y-80038246D01*
X137607901Y-80038243D01*
X137607905Y-80038241D01*
X137758217Y-79887929D01*
X137758219Y-79887925D01*
X137758222Y-79887923D01*
X137883161Y-79715957D01*
X137883160Y-79715957D01*
X137883164Y-79715953D01*
X137887627Y-79707191D01*
X137935601Y-79656396D01*
X138003421Y-79639600D01*
X138069557Y-79662136D01*
X138108599Y-79707193D01*
X138113064Y-79715957D01*
X138238003Y-79887923D01*
X138388326Y-80038246D01*
X138560292Y-80163185D01*
X138560294Y-80163186D01*
X138560297Y-80163188D01*
X138749701Y-80259694D01*
X138951870Y-80325383D01*
X139161826Y-80358637D01*
X139161827Y-80358637D01*
X139374399Y-80358637D01*
X139374400Y-80358637D01*
X139584356Y-80325383D01*
X139786525Y-80259694D01*
X139975929Y-80163188D01*
X140062251Y-80100472D01*
X140147899Y-80038246D01*
X140147901Y-80038243D01*
X140147905Y-80038241D01*
X140298217Y-79887929D01*
X140298219Y-79887925D01*
X140298222Y-79887923D01*
X140423161Y-79715957D01*
X140423160Y-79715957D01*
X140423164Y-79715953D01*
X140519670Y-79526549D01*
X140585359Y-79324380D01*
X140618613Y-79114424D01*
X140618613Y-78901850D01*
X140585359Y-78691894D01*
X140519670Y-78489725D01*
X140423164Y-78300321D01*
X140423162Y-78300318D01*
X140423161Y-78300316D01*
X140298222Y-78128350D01*
X140147899Y-77978027D01*
X139975933Y-77853088D01*
X139786527Y-77756581D01*
X139786526Y-77756580D01*
X139786525Y-77756580D01*
X139584356Y-77690891D01*
X139584354Y-77690890D01*
X139584353Y-77690890D01*
X139423070Y-77665345D01*
X139374400Y-77657637D01*
X139161826Y-77657637D01*
X139113155Y-77665345D01*
X138951873Y-77690890D01*
X138749698Y-77756581D01*
X138560292Y-77853088D01*
X138388326Y-77978027D01*
X138238003Y-78128350D01*
X138113062Y-78300319D01*
X138108597Y-78309083D01*
X138060622Y-78359879D01*
X137992801Y-78376673D01*
X137926666Y-78354135D01*
X137887629Y-78309083D01*
X137883163Y-78300319D01*
X137758222Y-78128350D01*
X137607899Y-77978027D01*
X137435933Y-77853088D01*
X137246527Y-77756581D01*
X137246526Y-77756580D01*
X137246525Y-77756580D01*
X137044356Y-77690891D01*
X137044354Y-77690890D01*
X137044353Y-77690890D01*
X136883070Y-77665345D01*
X136834400Y-77657637D01*
X136621826Y-77657637D01*
X136573155Y-77665345D01*
X136411873Y-77690890D01*
X136209698Y-77756581D01*
X136020292Y-77853088D01*
X135848326Y-77978027D01*
X135698003Y-78128350D01*
X135573062Y-78300319D01*
X135568597Y-78309083D01*
X135520622Y-78359879D01*
X135452801Y-78376673D01*
X135386666Y-78354135D01*
X135347629Y-78309083D01*
X135343163Y-78300319D01*
X135218222Y-78128350D01*
X135067899Y-77978027D01*
X134895933Y-77853088D01*
X134706527Y-77756581D01*
X134706526Y-77756580D01*
X134706525Y-77756580D01*
X134504356Y-77690891D01*
X134504354Y-77690890D01*
X134504353Y-77690890D01*
X134343070Y-77665345D01*
X134294400Y-77657637D01*
X134081826Y-77657637D01*
X134033155Y-77665345D01*
X133871873Y-77690890D01*
X133669698Y-77756581D01*
X133480292Y-77853088D01*
X133308326Y-77978027D01*
X133158003Y-78128350D01*
X133033062Y-78300319D01*
X133028315Y-78309636D01*
X132980340Y-78360430D01*
X132912518Y-78377224D01*
X132846384Y-78354685D01*
X132807347Y-78309632D01*
X132802739Y-78300589D01*
X132763383Y-78246419D01*
X132763382Y-78246419D01*
X132131075Y-78878727D01*
X132114038Y-78815144D01*
X132048212Y-78701130D01*
X131955120Y-78608038D01*
X131841106Y-78542212D01*
X131777522Y-78525174D01*
X132409829Y-77892865D01*
X132355663Y-77853512D01*
X132166330Y-77757041D01*
X131964242Y-77691379D01*
X131754359Y-77658137D01*
X131541867Y-77658137D01*
X131331985Y-77691379D01*
X131331982Y-77691379D01*
X131129895Y-77757041D01*
X130940552Y-77853517D01*
X130886395Y-77892864D01*
X130886395Y-77892865D01*
X131518704Y-78525174D01*
X131455120Y-78542212D01*
X131341106Y-78608038D01*
X131248014Y-78701130D01*
X131182188Y-78815144D01*
X131165150Y-78878728D01*
X130532841Y-78246419D01*
X130532840Y-78246419D01*
X130493493Y-78300577D01*
X130493489Y-78300583D01*
X130488873Y-78309642D01*
X130440894Y-78360434D01*
X130373072Y-78377224D01*
X130306939Y-78354680D01*
X130267907Y-78309630D01*
X130263164Y-78300321D01*
X130263162Y-78300318D01*
X130263161Y-78300316D01*
X130138222Y-78128350D01*
X129987899Y-77978027D01*
X129815933Y-77853088D01*
X129626527Y-77756581D01*
X129626526Y-77756580D01*
X129626525Y-77756580D01*
X129424356Y-77690891D01*
X129424354Y-77690890D01*
X129424353Y-77690890D01*
X129263070Y-77665345D01*
X129214400Y-77657637D01*
X129001826Y-77657637D01*
X128953155Y-77665345D01*
X128791873Y-77690890D01*
X128589698Y-77756581D01*
X128400292Y-77853088D01*
X128228328Y-77978026D01*
X128114786Y-78091568D01*
X128053463Y-78125052D01*
X127983771Y-78120068D01*
X127927838Y-78078196D01*
X127910923Y-78047219D01*
X127861910Y-77915808D01*
X127861906Y-77915801D01*
X127775660Y-77800592D01*
X127775657Y-77800589D01*
X127660448Y-77714343D01*
X127660441Y-77714339D01*
X127525595Y-77664045D01*
X127525596Y-77664045D01*
X127465996Y-77657638D01*
X127465994Y-77657637D01*
X127465986Y-77657637D01*
X127465977Y-77657637D01*
X125670242Y-77657637D01*
X125670236Y-77657638D01*
X125610629Y-77664045D01*
X125475784Y-77714339D01*
X125475777Y-77714343D01*
X125360568Y-77800589D01*
X125360565Y-77800592D01*
X125274319Y-77915801D01*
X125274315Y-77915808D01*
X125224021Y-78050654D01*
X125217614Y-78110253D01*
X125217613Y-78110272D01*
X91864026Y-78110272D01*
X91960862Y-77818409D01*
X91964649Y-77808452D01*
X92122962Y-77440783D01*
X92127599Y-77431177D01*
X92316993Y-77078510D01*
X92322430Y-77069357D01*
X92541496Y-76734312D01*
X92547702Y-76725659D01*
X92794797Y-76410746D01*
X92801751Y-76402630D01*
X92909483Y-76287345D01*
X93075055Y-76110164D01*
X93082658Y-76102701D01*
X93380146Y-75834853D01*
X93388367Y-75828069D01*
X93707804Y-75586854D01*
X93716602Y-75580788D01*
X94055638Y-75367973D01*
X94064883Y-75362712D01*
X94420990Y-75179889D01*
X94430690Y-75175426D01*
X94801218Y-75023954D01*
X94811268Y-75020344D01*
X95193438Y-74901359D01*
X95203762Y-74898627D01*
X95594773Y-74812997D01*
X95605290Y-74811165D01*
X96002233Y-74759530D01*
X96012857Y-74758612D01*
X96415567Y-74741236D01*
X96420491Y-74741123D01*
X96420791Y-74741122D01*
X96484005Y-74741122D01*
X96484800Y-74740908D01*
X96488343Y-74740896D01*
X167915397Y-74508648D01*
X167920924Y-74508752D01*
G37*
%TD.AperFunction*%
%TD*%
M02*
