%TF.GenerationSoftware,KiCad,Pcbnew,9.0.1*%
%TF.CreationDate,2026-04-16T13:06:31+02:00*%
%TF.ProjectId,Odometre_Schematic,4f646f6d-6574-4726-955f-536368656d61,rev?*%
%TF.SameCoordinates,Original*%
%TF.FileFunction,Paste,Top*%
%TF.FilePolarity,Positive*%
%FSLAX46Y46*%
G04 Gerber Fmt 4.6, Leading zero omitted, Abs format (unit mm)*
G04 Created by KiCad (PCBNEW 9.0.1) date 2026-04-16 13:06:31*
%MOMM*%
%LPD*%
G01*
G04 APERTURE LIST*
G04 Aperture macros list*
%AMRoundRect*
0 Rectangle with rounded corners*
0 $1 Rounding radius*
0 $2 $3 $4 $5 $6 $7 $8 $9 X,Y pos of 4 corners*
0 Add a 4 corners polygon primitive as box body*
4,1,4,$2,$3,$4,$5,$6,$7,$8,$9,$2,$3,0*
0 Add four circle primitives for the rounded corners*
1,1,$1+$1,$2,$3*
1,1,$1+$1,$4,$5*
1,1,$1+$1,$6,$7*
1,1,$1+$1,$8,$9*
0 Add four rect primitives between the rounded corners*
20,1,$1+$1,$2,$3,$4,$5,0*
20,1,$1+$1,$4,$5,$6,$7,0*
20,1,$1+$1,$6,$7,$8,$9,0*
20,1,$1+$1,$8,$9,$2,$3,0*%
G04 Aperture macros list end*
%ADD10RoundRect,0.250000X0.475000X-0.337500X0.475000X0.337500X-0.475000X0.337500X-0.475000X-0.337500X0*%
%ADD11RoundRect,0.150000X-0.825000X-0.150000X0.825000X-0.150000X0.825000X0.150000X-0.825000X0.150000X0*%
%ADD12RoundRect,0.250000X-0.337500X-0.475000X0.337500X-0.475000X0.337500X0.475000X-0.337500X0.475000X0*%
%ADD13RoundRect,0.237500X-0.237500X0.250000X-0.237500X-0.250000X0.237500X-0.250000X0.237500X0.250000X0*%
%ADD14RoundRect,0.237500X0.287500X0.237500X-0.287500X0.237500X-0.287500X-0.237500X0.287500X-0.237500X0*%
%ADD15RoundRect,0.237500X-0.237500X0.287500X-0.237500X-0.287500X0.237500X-0.287500X0.237500X0.287500X0*%
%ADD16RoundRect,0.250000X0.337500X0.475000X-0.337500X0.475000X-0.337500X-0.475000X0.337500X-0.475000X0*%
%ADD17RoundRect,0.237500X-0.250000X-0.237500X0.250000X-0.237500X0.250000X0.237500X-0.250000X0.237500X0*%
%ADD18R,1.475000X0.450000*%
%ADD19RoundRect,0.250000X-1.125000X1.275000X-1.125000X-1.275000X1.125000X-1.275000X1.125000X1.275000X0*%
%ADD20RoundRect,0.250000X-0.350000X0.850000X-0.350000X-0.850000X0.350000X-0.850000X0.350000X0.850000X0*%
%ADD21R,1.550000X1.300000*%
%ADD22RoundRect,0.237500X0.237500X-0.250000X0.237500X0.250000X-0.237500X0.250000X-0.237500X-0.250000X0*%
%ADD23R,1.300000X1.550000*%
%ADD24RoundRect,0.250000X-0.475000X0.337500X-0.475000X-0.337500X0.475000X-0.337500X0.475000X0.337500X0*%
G04 APERTURE END LIST*
D10*
%TO.C,C6*%
X139418113Y-88545637D03*
X139418113Y-86470637D03*
%TD*%
D11*
%TO.C,U1*%
X149943113Y-111603137D03*
X149943113Y-112873137D03*
X149943113Y-114143137D03*
X149943113Y-115413137D03*
X154893113Y-115413137D03*
X154893113Y-114143137D03*
X154893113Y-112873137D03*
X154893113Y-111603137D03*
%TD*%
D12*
%TO.C,C3*%
X130880613Y-98008137D03*
X132955613Y-98008137D03*
%TD*%
D13*
%TO.C,R9*%
X115100000Y-115087500D03*
X115100000Y-116912500D03*
%TD*%
%TO.C,R11*%
X125200000Y-114887500D03*
X125200000Y-116712500D03*
%TD*%
D14*
%TO.C,D2*%
X150438113Y-93508137D03*
X148688113Y-93508137D03*
%TD*%
D15*
%TO.C,D3*%
X122552500Y-91237500D03*
X122552500Y-92987500D03*
%TD*%
D16*
%TO.C,C5*%
X132955613Y-108008137D03*
X130880613Y-108008137D03*
%TD*%
D15*
%TO.C,D4*%
X109900000Y-92600000D03*
X109900000Y-94350000D03*
%TD*%
D13*
%TO.C,R7*%
X105100000Y-115087500D03*
X105100000Y-116912500D03*
%TD*%
D10*
%TO.C,C8*%
X100381887Y-84691863D03*
X100381887Y-82616863D03*
%TD*%
D13*
%TO.C,R8*%
X110100000Y-115087500D03*
X110100000Y-116912500D03*
%TD*%
D10*
%TO.C,C2*%
X118552500Y-83562500D03*
X118552500Y-81487500D03*
%TD*%
D17*
%TO.C,R1*%
X151918113Y-88508137D03*
X153743113Y-88508137D03*
%TD*%
D16*
%TO.C,C7*%
X153455613Y-117508137D03*
X151380613Y-117508137D03*
%TD*%
D18*
%TO.C,IC1*%
X129123887Y-100166863D03*
X129123887Y-100816863D03*
X129123887Y-101466863D03*
X129123887Y-102116863D03*
X129123887Y-102766863D03*
X129123887Y-103416863D03*
X129123887Y-104066863D03*
X129123887Y-104716863D03*
X129123887Y-105366863D03*
X129123887Y-106016863D03*
X134999887Y-106016863D03*
X134999887Y-105366863D03*
X134999887Y-104716863D03*
X134999887Y-104066863D03*
X134999887Y-103416863D03*
X134999887Y-102766863D03*
X134999887Y-102116863D03*
X134999887Y-101466863D03*
X134999887Y-100816863D03*
X134999887Y-100166863D03*
%TD*%
D17*
%TO.C,R2*%
X152005613Y-93508137D03*
X153830613Y-93508137D03*
%TD*%
D19*
%TO.C,U3*%
X106925000Y-92425000D03*
X103875000Y-92425000D03*
X106925000Y-95775000D03*
X103875000Y-95775000D03*
D20*
X107680000Y-87800000D03*
X105400000Y-87800000D03*
X103120000Y-87800000D03*
%TD*%
D21*
%TO.C,S2*%
X148443113Y-100258137D03*
X148443113Y-104758137D03*
X156393113Y-100258137D03*
X156393113Y-104758137D03*
%TD*%
D22*
%TO.C,R6*%
X153000000Y-127212500D03*
X153000000Y-125387500D03*
%TD*%
D10*
%TO.C,C9*%
X102846887Y-84691863D03*
X102846887Y-82616863D03*
%TD*%
D14*
%TO.C,D1*%
X150205613Y-88508137D03*
X148455613Y-88508137D03*
%TD*%
D19*
%TO.C,U2*%
X119552500Y-91025000D03*
X116502500Y-91025000D03*
X119552500Y-94375000D03*
X116502500Y-94375000D03*
D20*
X120307500Y-86400000D03*
X118027500Y-86400000D03*
X115747500Y-86400000D03*
%TD*%
D22*
%TO.C,R5*%
X109900000Y-90887500D03*
X109900000Y-89062500D03*
%TD*%
%TO.C,R4*%
X122552500Y-89525000D03*
X122552500Y-87700000D03*
%TD*%
D23*
%TO.C,S1*%
X137168113Y-83533137D03*
X132668113Y-83533137D03*
X137168113Y-91483137D03*
X132668113Y-91483137D03*
%TD*%
D13*
%TO.C,R3*%
X156918113Y-112595637D03*
X156918113Y-114420637D03*
%TD*%
D10*
%TO.C,C1*%
X116052500Y-83600000D03*
X116052500Y-81525000D03*
%TD*%
D13*
%TO.C,R10*%
X120200000Y-114887500D03*
X120200000Y-116712500D03*
%TD*%
D24*
%TO.C,C4*%
X125418113Y-101970637D03*
X125418113Y-104045637D03*
%TD*%
M02*
